<svg width="1013" height="99" viewBox="0 0 1013 99" fill="none" xmlns="http://www.w3.org/2000/svg">
<g filter="url(#filter0_f_27_189)">
<ellipse cx="506.5" cy="65.5" rx="502.5" ry="6.5" fill="#DF1973"/>
</g>
<mask id="path-2-outside-1_27_189" maskUnits="userSpaceOnUse" x="53" y="27" width="888" height="73" fill="black">
<rect fill="white" x="53" y="27" width="888" height="73"/>
<path d="M98.792 51.496L95.816 51.4L93.032 39.88C89.32 39.24 86.536 38.92 84.68 38.92C81.032 38.92 76.936 39.656 72.392 41.128C71.048 43.624 69.992 46.824 69.224 50.728C68.456 54.632 68.072 58.312 68.072 61.768C68.072 79.432 73.16 88.264 83.336 88.264C87.688 88.264 91.144 87.624 93.704 86.344L95.72 74.632C99.752 74.632 102.824 74.856 104.936 75.304C105.96 82.28 106.472 87.944 106.472 92.296C104.936 93.448 101.832 94.728 97.16 96.136C92.552 97.544 88.008 98.248 83.528 98.248C64.456 98.248 54.92 86.472 54.92 62.92C54.92 51.72 57.224 43.208 61.832 37.384C66.504 31.56 73.928 28.648 84.104 28.648C89.16 28.648 93.64 29.384 97.544 30.856C101 32.136 103.944 33.544 106.376 35.08C106.376 39.432 105.896 44.68 104.936 50.824C103.144 51.272 101.096 51.496 98.792 51.496ZM184.48 30.856L184.576 31.816C184.576 34.44 184.16 36.68 183.328 38.536C182.496 39.176 181.184 39.688 179.392 40.072L195.424 87.496L204.544 88.648C204.544 91.272 203.808 94.056 202.336 97H179.008L178.144 91.72C180.832 90.696 182.592 90.024 183.424 89.704L179.584 78.856H157.984C156.064 84.552 155.04 87.528 154.912 87.784L161.536 88.648C161.536 89.992 161.28 91.56 160.768 93.352C160.256 95.08 159.776 96.296 159.328 97H136L135.136 91.72C138.016 90.504 140.608 89.608 142.912 89.032L159.04 39.688C154.752 39.048 151.52 38.216 149.344 37.192C149.344 35.336 149.632 33.704 150.208 32.296C151.552 31.848 154.688 31.336 159.616 30.76C164.608 30.12 169.344 29.8 173.824 29.8C178.368 29.8 181.92 30.152 184.48 30.856ZM172.096 57.256L169.312 44.584H168.352L165.28 57.832L160.768 69.832H176.8L172.096 57.256ZM280.387 77.416L289.219 29.8H314.179C314.691 32.552 314.947 34.504 314.947 35.656C311.875 36.744 309.219 37.576 306.979 38.152L313.795 87.784L320.419 88.648C320.419 91.272 319.683 94.056 318.211 97H294.883L294.019 91.72C297.603 90.248 300.291 89.32 302.083 88.936L294.691 49.768L284.899 92.296H275.107L259.939 45.352L251.779 87.784L258.403 88.648C258.403 91.272 257.667 94.056 256.195 97H232.867L232.003 91.72C235.587 90.248 238.275 89.32 240.067 88.936L246.883 38.152L238.915 35.656L239.683 29.8H266.563L279.427 77.416H280.387ZM379.117 29.8C387.245 29.8 393.293 31.208 397.261 34.024C401.229 36.84 403.213 41.96 403.213 49.384C403.213 55.592 401.293 60.776 397.453 64.936C393.613 69.032 387.469 71.08 379.021 71.08C376.269 71.08 374.093 71.048 372.493 70.984L372.301 87.88L379.309 88.648C379.309 91.464 378.573 94.248 377.101 97H353.389L352.525 91.72C355.853 90.376 358.541 89.448 360.589 88.936C360.589 88.744 360.301 71.816 359.725 38.152C358.701 37.896 356.045 37.064 351.757 35.656L352.525 29.8H379.117ZM377.005 61.96C381.293 61.896 384.621 60.712 386.989 58.408C389.357 56.104 390.541 53.128 390.541 49.48C390.541 45.832 389.485 43.24 387.373 41.704C385.325 40.104 382.093 39.304 377.677 39.304C375.949 39.304 374.317 39.336 372.781 39.4C372.653 49.512 372.589 57.064 372.589 62.056L377.005 61.96ZM452.842 39.4C452.842 46.696 452.778 52.968 452.65 58.216H462.442L463.402 51.592C466.666 51.592 469.834 52.392 472.906 53.992V73.192L466.57 73.48C465.034 71.176 464.138 69.16 463.882 67.432H452.554C452.426 76.392 452.362 83.144 452.362 87.688H468.778L470.89 79.336C474.858 79.336 477.866 79.528 479.914 79.912C480.874 83.56 481.354 86.888 481.354 89.896C481.354 92.84 481.258 95.208 481.066 97H433.45L432.586 91.72C436.746 90.12 439.434 89.192 440.65 88.936C440.586 85.16 440.522 79.848 440.458 73C440.202 57.64 439.978 46.024 439.786 38.152L431.818 35.656L432.586 29.8H479.722C479.914 31.528 480.01 33.704 480.01 36.328C480.01 38.888 479.53 42.472 478.57 47.08C476.586 47.72 473.578 48.04 469.546 48.04L467.338 39.4H452.842ZM542.649 87.976C553.273 87.976 558.585 79.816 558.585 63.496C558.585 47.176 553.273 39.016 542.649 39.016C538.041 39.016 534.009 39.72 530.553 41.128C527.609 47.272 526.137 54.408 526.137 62.536C526.137 70.6 527.353 76.872 529.785 81.352C532.217 85.768 536.505 87.976 542.649 87.976ZM542.649 28.648C553.337 28.648 560.857 31.464 565.209 37.096C569.561 42.664 571.737 51.208 571.737 62.728C571.737 69.96 570.809 76.136 568.953 81.256C567.097 86.376 563.961 90.472 559.545 93.544C555.129 96.616 549.497 98.152 542.649 98.152C532.217 98.152 524.633 95.24 519.897 89.416C515.225 83.592 512.889 75.112 512.889 63.976C512.889 40.424 522.809 28.648 542.649 28.648ZM666.223 38.344L665.935 97H653.647L621.967 45.352C621.711 64.104 621.551 78.248 621.487 87.784L628.111 88.648C628.111 91.272 627.375 94.056 625.903 97H602.575L601.711 91.72C605.295 90.248 607.983 89.32 609.775 88.936C609.775 88.744 609.487 71.816 608.911 38.152L600.943 35.656L601.711 29.8H626.671L654.607 79.912L653.167 38.152L645.199 35.656L645.967 29.8H670.927C670.863 29.8 670.863 29.864 670.927 29.992C671.055 30.12 671.183 30.408 671.311 30.856C671.503 31.24 671.695 31.72 671.887 32.296C672.271 33.32 672.527 35.016 672.655 37.384C669.391 37.896 667.247 38.216 666.223 38.344ZM748.199 30.856L748.295 31.816C748.295 34.44 747.879 36.68 747.047 38.536C746.215 39.176 744.903 39.688 743.111 40.072L759.143 87.496L768.263 88.648C768.263 91.272 767.527 94.056 766.055 97H742.727L741.863 91.72C744.551 90.696 746.311 90.024 747.143 89.704L743.303 78.856H721.703C719.783 84.552 718.759 87.528 718.631 87.784L725.255 88.648C725.255 89.992 724.999 91.56 724.487 93.352C723.975 95.08 723.495 96.296 723.047 97H699.719L698.855 91.72C701.735 90.504 704.327 89.608 706.631 89.032L722.759 39.688C718.471 39.048 715.239 38.216 713.063 37.192C713.063 35.336 713.351 33.704 713.927 32.296C715.271 31.848 718.407 31.336 723.335 30.76C728.327 30.12 733.063 29.8 737.543 29.8C742.087 29.8 745.639 30.152 748.199 30.856ZM735.815 57.256L733.031 44.584H732.071L728.999 57.832L724.487 69.832H740.519L735.815 57.256ZM797.737 47.272C796.713 42.856 796.201 39.368 796.201 36.808C796.201 34.248 796.297 31.912 796.489 29.8H852.265C852.521 32.872 852.649 34.952 852.649 36.04C852.649 38.792 852.137 42.536 851.113 47.272C849.257 47.784 846.217 48.04 841.993 48.04L839.785 38.344H831.625C831.561 40.776 831.273 57.256 830.761 87.784L837.673 88.648C837.673 91.592 836.937 94.376 835.465 97H812.137L811.273 91.72C815.689 90.056 818.473 89.128 819.625 88.936C819.625 88.68 819.241 71.848 818.473 38.44H808.969L806.857 47.848C803.081 47.848 800.041 47.656 797.737 47.272ZM910.524 87.976C921.148 87.976 926.46 79.816 926.46 63.496C926.46 47.176 921.148 39.016 910.524 39.016C905.916 39.016 901.884 39.72 898.428 41.128C895.484 47.272 894.012 54.408 894.012 62.536C894.012 70.6 895.228 76.872 897.66 81.352C900.092 85.768 904.38 87.976 910.524 87.976ZM910.524 28.648C921.212 28.648 928.732 31.464 933.084 37.096C937.436 42.664 939.612 51.208 939.612 62.728C939.612 69.96 938.684 76.136 936.828 81.256C934.972 86.376 931.836 90.472 927.42 93.544C923.004 96.616 917.372 98.152 910.524 98.152C900.092 98.152 892.508 95.24 887.772 89.416C883.1 83.592 880.764 75.112 880.764 63.976C880.764 40.424 890.684 28.648 910.524 28.648Z"/>
</mask>
<g filter="url(#filter1_i_27_189)">
<path d="M98.792 51.496L95.816 51.4L93.032 39.88C89.32 39.24 86.536 38.92 84.68 38.92C81.032 38.92 76.936 39.656 72.392 41.128C71.048 43.624 69.992 46.824 69.224 50.728C68.456 54.632 68.072 58.312 68.072 61.768C68.072 79.432 73.16 88.264 83.336 88.264C87.688 88.264 91.144 87.624 93.704 86.344L95.72 74.632C99.752 74.632 102.824 74.856 104.936 75.304C105.96 82.28 106.472 87.944 106.472 92.296C104.936 93.448 101.832 94.728 97.16 96.136C92.552 97.544 88.008 98.248 83.528 98.248C64.456 98.248 54.92 86.472 54.92 62.92C54.92 51.72 57.224 43.208 61.832 37.384C66.504 31.56 73.928 28.648 84.104 28.648C89.16 28.648 93.64 29.384 97.544 30.856C101 32.136 103.944 33.544 106.376 35.08C106.376 39.432 105.896 44.68 104.936 50.824C103.144 51.272 101.096 51.496 98.792 51.496ZM184.48 30.856L184.576 31.816C184.576 34.44 184.16 36.68 183.328 38.536C182.496 39.176 181.184 39.688 179.392 40.072L195.424 87.496L204.544 88.648C204.544 91.272 203.808 94.056 202.336 97H179.008L178.144 91.72C180.832 90.696 182.592 90.024 183.424 89.704L179.584 78.856H157.984C156.064 84.552 155.04 87.528 154.912 87.784L161.536 88.648C161.536 89.992 161.28 91.56 160.768 93.352C160.256 95.08 159.776 96.296 159.328 97H136L135.136 91.72C138.016 90.504 140.608 89.608 142.912 89.032L159.04 39.688C154.752 39.048 151.52 38.216 149.344 37.192C149.344 35.336 149.632 33.704 150.208 32.296C151.552 31.848 154.688 31.336 159.616 30.76C164.608 30.12 169.344 29.8 173.824 29.8C178.368 29.8 181.92 30.152 184.48 30.856ZM172.096 57.256L169.312 44.584H168.352L165.28 57.832L160.768 69.832H176.8L172.096 57.256ZM280.387 77.416L289.219 29.8H314.179C314.691 32.552 314.947 34.504 314.947 35.656C311.875 36.744 309.219 37.576 306.979 38.152L313.795 87.784L320.419 88.648C320.419 91.272 319.683 94.056 318.211 97H294.883L294.019 91.72C297.603 90.248 300.291 89.32 302.083 88.936L294.691 49.768L284.899 92.296H275.107L259.939 45.352L251.779 87.784L258.403 88.648C258.403 91.272 257.667 94.056 256.195 97H232.867L232.003 91.72C235.587 90.248 238.275 89.32 240.067 88.936L246.883 38.152L238.915 35.656L239.683 29.8H266.563L279.427 77.416H280.387ZM379.117 29.8C387.245 29.8 393.293 31.208 397.261 34.024C401.229 36.84 403.213 41.96 403.213 49.384C403.213 55.592 401.293 60.776 397.453 64.936C393.613 69.032 387.469 71.08 379.021 71.08C376.269 71.08 374.093 71.048 372.493 70.984L372.301 87.88L379.309 88.648C379.309 91.464 378.573 94.248 377.101 97H353.389L352.525 91.72C355.853 90.376 358.541 89.448 360.589 88.936C360.589 88.744 360.301 71.816 359.725 38.152C358.701 37.896 356.045 37.064 351.757 35.656L352.525 29.8H379.117ZM377.005 61.96C381.293 61.896 384.621 60.712 386.989 58.408C389.357 56.104 390.541 53.128 390.541 49.48C390.541 45.832 389.485 43.24 387.373 41.704C385.325 40.104 382.093 39.304 377.677 39.304C375.949 39.304 374.317 39.336 372.781 39.4C372.653 49.512 372.589 57.064 372.589 62.056L377.005 61.96ZM452.842 39.4C452.842 46.696 452.778 52.968 452.65 58.216H462.442L463.402 51.592C466.666 51.592 469.834 52.392 472.906 53.992V73.192L466.57 73.48C465.034 71.176 464.138 69.16 463.882 67.432H452.554C452.426 76.392 452.362 83.144 452.362 87.688H468.778L470.89 79.336C474.858 79.336 477.866 79.528 479.914 79.912C480.874 83.56 481.354 86.888 481.354 89.896C481.354 92.84 481.258 95.208 481.066 97H433.45L432.586 91.72C436.746 90.12 439.434 89.192 440.65 88.936C440.586 85.16 440.522 79.848 440.458 73C440.202 57.64 439.978 46.024 439.786 38.152L431.818 35.656L432.586 29.8H479.722C479.914 31.528 480.01 33.704 480.01 36.328C480.01 38.888 479.53 42.472 478.57 47.08C476.586 47.72 473.578 48.04 469.546 48.04L467.338 39.4H452.842ZM542.649 87.976C553.273 87.976 558.585 79.816 558.585 63.496C558.585 47.176 553.273 39.016 542.649 39.016C538.041 39.016 534.009 39.72 530.553 41.128C527.609 47.272 526.137 54.408 526.137 62.536C526.137 70.6 527.353 76.872 529.785 81.352C532.217 85.768 536.505 87.976 542.649 87.976ZM542.649 28.648C553.337 28.648 560.857 31.464 565.209 37.096C569.561 42.664 571.737 51.208 571.737 62.728C571.737 69.96 570.809 76.136 568.953 81.256C567.097 86.376 563.961 90.472 559.545 93.544C555.129 96.616 549.497 98.152 542.649 98.152C532.217 98.152 524.633 95.24 519.897 89.416C515.225 83.592 512.889 75.112 512.889 63.976C512.889 40.424 522.809 28.648 542.649 28.648ZM666.223 38.344L665.935 97H653.647L621.967 45.352C621.711 64.104 621.551 78.248 621.487 87.784L628.111 88.648C628.111 91.272 627.375 94.056 625.903 97H602.575L601.711 91.72C605.295 90.248 607.983 89.32 609.775 88.936C609.775 88.744 609.487 71.816 608.911 38.152L600.943 35.656L601.711 29.8H626.671L654.607 79.912L653.167 38.152L645.199 35.656L645.967 29.8H670.927C670.863 29.8 670.863 29.864 670.927 29.992C671.055 30.12 671.183 30.408 671.311 30.856C671.503 31.24 671.695 31.72 671.887 32.296C672.271 33.32 672.527 35.016 672.655 37.384C669.391 37.896 667.247 38.216 666.223 38.344ZM748.199 30.856L748.295 31.816C748.295 34.44 747.879 36.68 747.047 38.536C746.215 39.176 744.903 39.688 743.111 40.072L759.143 87.496L768.263 88.648C768.263 91.272 767.527 94.056 766.055 97H742.727L741.863 91.72C744.551 90.696 746.311 90.024 747.143 89.704L743.303 78.856H721.703C719.783 84.552 718.759 87.528 718.631 87.784L725.255 88.648C725.255 89.992 724.999 91.56 724.487 93.352C723.975 95.08 723.495 96.296 723.047 97H699.719L698.855 91.72C701.735 90.504 704.327 89.608 706.631 89.032L722.759 39.688C718.471 39.048 715.239 38.216 713.063 37.192C713.063 35.336 713.351 33.704 713.927 32.296C715.271 31.848 718.407 31.336 723.335 30.76C728.327 30.12 733.063 29.8 737.543 29.8C742.087 29.8 745.639 30.152 748.199 30.856ZM735.815 57.256L733.031 44.584H732.071L728.999 57.832L724.487 69.832H740.519L735.815 57.256ZM797.737 47.272C796.713 42.856 796.201 39.368 796.201 36.808C796.201 34.248 796.297 31.912 796.489 29.8H852.265C852.521 32.872 852.649 34.952 852.649 36.04C852.649 38.792 852.137 42.536 851.113 47.272C849.257 47.784 846.217 48.04 841.993 48.04L839.785 38.344H831.625C831.561 40.776 831.273 57.256 830.761 87.784L837.673 88.648C837.673 91.592 836.937 94.376 835.465 97H812.137L811.273 91.72C815.689 90.056 818.473 89.128 819.625 88.936C819.625 88.68 819.241 71.848 818.473 38.44H808.969L806.857 47.848C803.081 47.848 800.041 47.656 797.737 47.272ZM910.524 87.976C921.148 87.976 926.46 79.816 926.46 63.496C926.46 47.176 921.148 39.016 910.524 39.016C905.916 39.016 901.884 39.72 898.428 41.128C895.484 47.272 894.012 54.408 894.012 62.536C894.012 70.6 895.228 76.872 897.66 81.352C900.092 85.768 904.38 87.976 910.524 87.976ZM910.524 28.648C921.212 28.648 928.732 31.464 933.084 37.096C937.436 42.664 939.612 51.208 939.612 62.728C939.612 69.96 938.684 76.136 936.828 81.256C934.972 86.376 931.836 90.472 927.42 93.544C923.004 96.616 917.372 98.152 910.524 98.152C900.092 98.152 892.508 95.24 887.772 89.416C883.1 83.592 880.764 75.112 880.764 63.976C880.764 40.424 890.684 28.648 910.524 28.648Z" fill="white"/>
</g>
<path d="M98.792 51.496L98.7598 52.4955L98.7759 52.496H98.792V51.496ZM95.816 51.4L94.844 51.6349L95.0228 52.3749L95.7838 52.3995L95.816 51.4ZM93.032 39.88L94.004 39.6451L93.8496 39.0062L93.2019 38.8945L93.032 39.88ZM72.392 41.128L72.0838 40.1767L71.7019 40.3004L71.5115 40.6539L72.392 41.128ZM69.224 50.728L70.2052 50.921L69.224 50.728ZM93.704 86.344L94.1512 87.2384L94.6037 87.0122L94.6895 86.5136L93.704 86.344ZM95.72 74.632V73.632H94.8774L94.7345 74.4624L95.72 74.632ZM104.936 75.304L105.925 75.1588L105.824 74.4702L105.144 74.3258L104.936 75.304ZM106.472 92.296L107.072 93.096L107.472 92.796V92.296H106.472ZM97.16 96.136L96.8714 95.1785L96.8678 95.1796L97.16 96.136ZM61.832 37.384L61.052 36.7582L61.0478 36.7635L61.832 37.384ZM97.544 30.856L97.1912 31.7917L97.1967 31.7937L97.544 30.856ZM106.376 35.08H107.376V34.5288L106.91 34.2345L106.376 35.08ZM104.936 50.824L105.179 51.7941L105.822 51.6334L105.924 50.9784L104.936 50.824ZM98.8242 50.4965L95.8482 50.4005L95.7838 52.3995L98.7598 52.4955L98.8242 50.4965ZM96.788 51.1651L94.004 39.6451L92.06 40.1149L94.844 51.6349L96.788 51.1651ZM93.2019 38.8945C89.4786 38.2526 86.6252 37.92 84.68 37.92V39.92C86.4468 39.92 89.1614 40.2274 92.8621 40.8655L93.2019 38.8945ZM84.68 37.92C80.9007 37.92 76.6984 38.6818 72.0838 40.1767L72.7002 42.0793C77.1736 40.6302 81.1633 39.92 84.68 39.92V37.92ZM71.5115 40.6539C70.1052 43.2656 69.023 46.5691 68.2428 50.535L70.2052 50.921C70.961 47.0789 71.9908 43.9824 73.2725 41.6021L71.5115 40.6539ZM68.2428 50.535C67.4641 54.4932 67.072 58.2383 67.072 61.768H69.072C69.072 58.3857 69.4479 54.7708 70.2052 50.921L68.2428 50.535ZM67.072 61.768C67.072 70.6632 68.3473 77.4973 71.0215 82.1392C73.7436 86.8644 77.8897 89.264 83.336 89.264V87.264C78.6063 87.264 75.1204 85.2476 72.7545 81.1408C70.3407 76.9507 69.072 70.5368 69.072 61.768H67.072ZM83.336 89.264C87.7697 89.264 91.3988 88.6146 94.1512 87.2384L93.2568 85.4496C90.8892 86.6334 87.6063 87.264 83.336 87.264V89.264ZM94.6895 86.5136L96.7055 74.8016L94.7345 74.4624L92.7185 86.1744L94.6895 86.5136ZM95.72 75.632C99.7312 75.632 102.72 75.8562 104.728 76.2822L105.144 74.3258C102.928 73.8558 99.7728 73.632 95.72 73.632V75.632ZM103.947 75.4492C104.967 82.4027 105.472 88.013 105.472 92.296H107.472C107.472 87.875 106.953 82.1573 105.925 75.1588L103.947 75.4492ZM105.872 91.496C104.495 92.5288 101.553 93.7678 96.8714 95.1785L97.4486 97.0935C102.111 95.6882 105.377 94.3672 107.072 93.096L105.872 91.496ZM96.8678 95.1796C92.3474 96.5609 87.9018 97.248 83.528 97.248V99.248C88.1142 99.248 92.7566 98.5271 97.4522 97.0924L96.8678 95.1796ZM83.528 97.248C74.2085 97.248 67.3795 94.3812 62.8491 88.7867C58.2861 83.1518 55.92 74.587 55.92 62.92H53.92C53.92 74.805 56.3219 83.9042 61.2949 90.0453C66.3005 96.2268 73.7755 99.248 83.528 99.248V97.248ZM55.92 62.92C55.92 51.836 58.2033 43.5819 62.6162 38.0045L61.0478 36.7635C56.2447 42.8341 53.92 51.604 53.92 62.92H55.92ZM62.612 38.0097C67.0314 32.5006 74.1143 29.648 84.104 29.648V27.648C73.7417 27.648 65.9766 30.6194 61.052 36.7583L62.612 38.0097ZM84.104 29.648C89.0643 29.648 93.421 30.3702 97.1912 31.7917L97.8968 29.9203C93.859 28.3978 89.2557 27.648 84.104 27.648V29.648ZM97.1967 31.7937C100.605 33.056 103.483 34.4353 105.842 35.9255L106.91 34.2345C104.405 32.6527 101.395 31.216 97.8913 29.9183L97.1967 31.7937ZM105.376 35.08C105.376 39.3636 104.903 44.557 103.948 50.6696L105.924 50.9784C106.889 44.803 107.376 39.5004 107.376 35.08H105.376ZM104.693 49.8539C102.997 50.2779 101.033 50.496 98.792 50.496V52.496C101.159 52.496 103.291 52.2661 105.179 51.7941L104.693 49.8539ZM184.48 30.856L185.475 30.7565L185.407 30.0737L184.745 29.8918L184.48 30.856ZM184.576 31.816H185.576V31.7661L185.571 31.7165L184.576 31.816ZM183.328 38.536L183.938 39.3286L184.138 39.175L184.241 38.9451L183.328 38.536ZM179.392 40.072L179.183 39.0942L178.086 39.3293L178.445 40.3922L179.392 40.072ZM195.424 87.496L194.477 87.8163L194.678 88.4096L195.299 88.4881L195.424 87.496ZM204.544 88.648H205.544V87.7664L204.67 87.6559L204.544 88.648ZM202.336 97V98H202.954L203.231 97.4472L202.336 97ZM179.008 97L178.021 97.1615L178.159 98H179.008V97ZM178.144 91.72L177.788 90.7855L177.026 91.0761L177.157 91.8815L178.144 91.72ZM183.424 89.704L183.783 90.6373L184.692 90.2879L184.367 89.3703L183.424 89.704ZM179.584 78.856L180.527 78.5223L180.291 77.856H179.584V78.856ZM157.984 78.856V77.856H157.266L157.037 78.5366L157.984 78.856ZM154.912 87.784L154.018 87.3368L153.389 88.5938L154.783 88.7756L154.912 87.784ZM161.536 88.648H162.536V87.77L161.666 87.6564L161.536 88.648ZM160.768 93.352L161.727 93.6361L161.73 93.6267L160.768 93.352ZM159.328 97V98H159.877L160.172 97.5369L159.328 97ZM136 97L135.013 97.1615L135.151 98H136V97ZM135.136 91.72L134.747 90.7988L134.022 91.1049L134.149 91.8815L135.136 91.72ZM142.912 89.032L143.155 90.0021L143.691 89.8681L143.863 89.3427L142.912 89.032ZM159.04 39.688L159.991 39.9987L160.358 38.8737L159.188 38.699L159.04 39.688ZM149.344 37.192H148.344V37.8266L148.918 38.0968L149.344 37.192ZM150.208 32.296L149.892 31.3473L149.457 31.4925L149.283 31.9174L150.208 32.296ZM159.616 30.76L159.732 31.7533L159.743 31.7519L159.616 30.76ZM172.096 57.256L171.12 57.4706L171.135 57.5399L171.16 57.6063L172.096 57.256ZM169.312 44.584L170.289 44.3694L170.116 43.584H169.312V44.584ZM168.352 44.584V43.584H167.558L167.378 44.3581L168.352 44.584ZM165.28 57.832L166.216 58.1839L166.239 58.1222L166.254 58.0579L165.28 57.832ZM160.768 69.832L159.832 69.4801L159.324 70.832H160.768V69.832ZM176.8 69.832V70.832H178.242L177.737 69.4817L176.8 69.832ZM183.485 30.9555L183.581 31.9155L185.571 31.7165L185.475 30.7565L183.485 30.9555ZM183.576 31.816C183.576 34.3383 183.176 36.4312 182.416 38.1269L184.241 38.9451C185.145 36.9288 185.576 34.5417 185.576 31.816H183.576ZM182.719 37.7434C182.062 38.2485 180.922 38.7214 179.183 39.0942L179.602 41.0498C181.446 40.6546 182.931 40.1035 183.938 39.3286L182.719 37.7434ZM178.445 40.3922L194.477 87.8163L196.372 87.1758L180.34 39.7517L178.445 40.3922ZM195.299 88.4881L204.419 89.6401L204.67 87.6559L195.55 86.5039L195.299 88.4881ZM203.544 88.648C203.544 91.0823 202.862 93.7132 201.442 96.5528L203.231 97.4472C204.755 94.3988 205.544 91.4617 205.544 88.648H203.544ZM202.336 96H179.008V98H202.336V96ZM179.995 96.8385L179.131 91.5585L177.157 91.8815L178.021 97.1615L179.995 96.8385ZM178.5 92.6545C181.188 91.6306 182.949 90.958 183.783 90.6373L183.065 88.7707C182.235 89.09 180.477 89.7614 177.788 90.7855L178.5 92.6545ZM184.367 89.3703L180.527 78.5223L178.642 79.1897L182.482 90.0377L184.367 89.3703ZM179.584 77.856H157.984V79.856H179.584V77.856ZM157.037 78.5366C156.077 81.384 155.342 83.5497 154.831 85.0346C154.575 85.7775 154.376 86.3474 154.234 86.7463C154.078 87.1861 154.015 87.3422 154.018 87.3368L155.807 88.2312C155.873 88.0978 155.987 87.7859 156.118 87.4177C156.264 87.0086 156.465 86.4305 156.722 85.6854C157.235 84.1943 157.972 82.024 158.932 79.1754L157.037 78.5366ZM154.783 88.7756L161.407 89.6396L161.666 87.6564L155.042 86.7924L154.783 88.7756ZM160.536 88.648C160.536 89.871 160.302 91.3429 159.807 93.0773L161.73 93.6267C162.258 91.7771 162.536 90.113 162.536 88.648H160.536ZM159.809 93.0679C159.301 94.7852 158.852 95.8853 158.485 96.4631L160.172 97.5369C160.7 96.7067 161.212 95.3748 161.727 93.6361L159.809 93.0679ZM159.328 96H136V98H159.328V96ZM136.987 96.8385L136.123 91.5585L134.149 91.8815L135.013 97.1615L136.987 96.8385ZM135.525 92.6413C138.372 91.4394 140.914 90.5624 143.155 90.0021L142.67 88.0619C140.303 88.6535 137.661 89.5686 134.747 90.7988L135.525 92.6413ZM143.863 89.3427L159.991 39.9987L158.09 39.3773L141.962 88.7213L143.863 89.3427ZM159.188 38.699C154.932 38.0638 151.814 37.249 149.77 36.2872L148.918 38.0968C151.227 39.183 154.572 40.0322 158.893 40.677L159.188 38.699ZM150.344 37.192C150.344 35.4381 150.616 33.9392 151.134 32.6746L149.283 31.9174C148.648 33.4688 148.344 35.2339 148.344 37.192H150.344ZM150.524 33.2447C151.751 32.8359 154.775 32.3326 159.732 31.7532L159.5 29.7668C154.601 30.3393 151.354 30.8601 149.892 31.3473L150.524 33.2447ZM159.743 31.7519C164.698 31.1166 169.392 30.8 173.824 30.8V28.8C169.297 28.8 164.518 29.1234 159.489 29.7681L159.743 31.7519ZM173.824 30.8C178.333 30.8 181.781 31.1509 184.215 31.8202L184.745 29.8918C182.059 29.1531 178.404 28.8 173.824 28.8V30.8ZM173.073 57.0414L170.289 44.3694L168.336 44.7986L171.12 57.4706L173.073 57.0414ZM169.312 43.584H168.352V45.584H169.312V43.584ZM167.378 44.3581L164.306 57.6061L166.254 58.0579L169.326 44.8099L167.378 44.3581ZM164.344 57.4801L159.832 69.4801L161.704 70.1839L166.216 58.1839L164.344 57.4801ZM160.768 70.832H176.8V68.832H160.768V70.832ZM177.737 69.4817L173.033 56.9057L171.16 57.6063L175.864 70.1823L177.737 69.4817ZM280.387 77.416V78.416H281.218L281.37 77.5984L280.387 77.416ZM289.219 29.8V28.8H288.387L288.235 29.6176L289.219 29.8ZM314.178 29.8L315.162 29.6171L315.01 28.8H314.178V29.8ZM314.947 35.656L315.28 36.5986L315.947 36.3627V35.656H314.947ZM306.979 38.152L306.729 37.1835L305.867 37.4054L305.988 38.2881L306.979 38.152ZM313.794 87.784L312.804 87.9201L312.908 88.6768L313.665 88.7756L313.794 87.784ZM320.419 88.648H321.419V87.77L320.548 87.6564L320.419 88.648ZM318.211 97V98H318.829L319.105 97.4472L318.211 97ZM294.883 97L293.896 97.1615L294.033 98H294.883V97ZM294.018 91.72L293.639 90.795L292.903 91.097L293.032 91.8815L294.018 91.72ZM302.083 88.936L302.292 89.9138L303.246 89.7094L303.065 88.7505L302.083 88.936ZM294.691 49.768L295.673 49.5825L293.716 49.5436L294.691 49.768ZM284.898 92.296V93.296H285.694L285.873 92.5204L284.898 92.296ZM275.107 92.296L274.155 92.6035L274.379 93.296H275.107V92.296ZM259.939 45.352L260.89 45.0445L258.956 45.1631L259.939 45.352ZM251.779 87.784L250.796 87.5952L250.596 88.6382L251.649 88.7756L251.779 87.784ZM258.402 88.648H259.402V87.77L258.532 87.6564L258.402 88.648ZM256.195 97V98H256.813L257.089 97.4472L256.195 97ZM232.867 97L231.88 97.1615L232.017 98H232.867V97ZM232.003 91.72L231.623 90.795L230.887 91.097L231.016 91.8815L232.003 91.72ZM240.066 88.936L240.276 89.9138L240.964 89.7664L241.058 89.069L240.066 88.936ZM246.883 38.152L247.874 38.285L247.986 37.4497L247.181 37.1977L246.883 38.152ZM238.915 35.656L237.923 35.526L237.814 36.3591L238.616 36.6103L238.915 35.656ZM239.682 29.8V28.8H238.805L238.691 29.67L239.682 29.8ZM266.562 29.8L267.528 29.5392L267.328 28.8H266.562V29.8ZM279.426 77.416L278.461 77.6768L278.661 78.416H279.426V77.416ZM281.37 77.5984L290.202 29.9824L288.235 29.6176L279.403 77.2336L281.37 77.5984ZM289.219 30.8H314.178V28.8H289.219V30.8ZM313.195 29.9829C313.708 32.7357 313.947 34.6061 313.947 35.656H315.947C315.947 34.4019 315.673 32.3683 315.162 29.6171L313.195 29.9829ZM314.613 34.7134C311.558 35.7951 308.932 36.6172 306.729 37.1835L307.228 39.1205C309.505 38.5348 312.191 37.6929 315.28 36.5986L314.613 34.7134ZM305.988 38.2881L312.804 87.9201L314.785 87.6479L307.969 38.0159L305.988 38.2881ZM313.665 88.7756L320.289 89.6396L320.548 87.6564L313.924 86.7924L313.665 88.7756ZM319.419 88.648C319.419 91.0823 318.736 93.7132 317.316 96.5528L319.105 97.4472C320.629 94.3988 321.419 91.4617 321.419 88.648H319.419ZM318.211 96H294.883V98H318.211V96ZM295.869 96.8385L295.005 91.5585L293.032 91.8815L293.896 97.1615L295.869 96.8385ZM294.398 92.645C297.974 91.1765 300.593 90.2779 302.292 89.9138L301.873 87.9582C299.988 88.3621 297.231 89.3195 293.639 90.795L294.398 92.645ZM303.065 88.7505L295.673 49.5825L293.708 49.9534L301.1 89.1215L303.065 88.7505ZM293.716 49.5436L283.924 92.0716L285.873 92.5204L295.665 49.9924L293.716 49.5436ZM284.898 91.296H275.107V93.296H284.898V91.296ZM276.058 91.9885L260.89 45.0445L258.987 45.6595L274.155 92.6035L276.058 91.9885ZM258.956 45.1631L250.796 87.5952L252.761 87.9728L260.921 45.5408L258.956 45.1631ZM251.649 88.7756L258.273 89.6396L258.532 87.6564L251.908 86.7924L251.649 88.7756ZM257.402 88.648C257.402 91.0823 256.72 93.7132 255.3 96.5528L257.089 97.4472C258.613 94.3988 259.402 91.4617 259.402 88.648H257.402ZM256.195 96H232.867V98H256.195V96ZM233.853 96.8385L232.989 91.5585L231.016 91.8815L231.88 97.1615L233.853 96.8385ZM232.382 92.645C235.958 91.1765 238.577 90.2779 240.276 89.9138L239.857 87.9582C237.972 88.3621 235.215 89.3195 231.623 90.795L232.382 92.645ZM241.058 89.069L247.874 38.285L245.891 38.019L239.075 88.803L241.058 89.069ZM247.181 37.1977L239.213 34.7017L238.616 36.6103L246.584 39.1063L247.181 37.1977ZM239.906 35.786L240.674 29.93L238.691 29.67L237.923 35.526L239.906 35.786ZM239.682 30.8H266.562V28.8H239.682V30.8ZM265.597 30.0608L278.461 77.6768L280.392 77.1552L267.528 29.5392L265.597 30.0608ZM279.426 78.416H280.387V76.416H279.426V78.416ZM397.261 34.024L396.682 34.8395L397.261 34.024ZM397.453 64.936L398.183 65.62L398.188 65.6143L397.453 64.936ZM372.493 70.984L372.533 69.9848L371.505 69.9437L371.493 70.9726L372.493 70.984ZM372.301 87.88L371.301 87.8686L371.291 88.7753L372.192 88.874L372.301 87.88ZM379.309 88.648H380.309V87.7516L379.418 87.654L379.309 88.648ZM377.101 97V98H377.7L377.983 97.4716L377.101 97ZM353.389 97L352.402 97.1615L352.54 98H353.389V97ZM352.525 91.72L352.151 90.7928L351.409 91.0922L351.538 91.8815L352.525 91.72ZM360.589 88.936L360.832 89.9061L361.589 89.7168V88.936H360.589ZM359.725 38.152L360.725 38.1349L360.712 37.3679L359.968 37.1819L359.725 38.152ZM351.757 35.656L350.766 35.526L350.658 36.3476L351.445 36.6061L351.757 35.656ZM352.525 29.8V28.8H351.648L351.534 29.67L352.525 29.8ZM377.005 61.96L376.99 60.9601L376.984 60.9602L377.005 61.96ZM386.989 58.408L387.687 59.1247L386.989 58.408ZM387.373 41.704L386.758 42.492L386.771 42.5026L386.785 42.5127L387.373 41.704ZM372.781 39.4L372.74 38.4009L371.793 38.4403L371.781 39.3873L372.781 39.4ZM372.589 62.056H371.589V63.078L372.611 63.0558L372.589 62.056ZM379.117 30.8C387.164 30.8 392.963 32.2 396.682 34.8395L397.84 33.2085C393.623 30.216 387.327 28.8 379.117 28.8V30.8ZM396.682 34.8395C400.269 37.3848 402.213 42.1069 402.213 49.384H404.213C404.213 41.8131 402.19 36.2952 397.84 33.2085L396.682 34.8395ZM402.213 49.384C402.213 55.367 400.371 60.3009 396.718 64.2577L398.188 65.6143C402.216 61.2511 404.213 55.817 404.213 49.384H402.213ZM396.724 64.2521C393.15 68.0635 387.332 70.08 379.021 70.08V72.08C387.607 72.08 394.076 70.0005 398.183 65.6199L396.724 64.2521ZM379.021 70.08C376.275 70.08 374.114 70.048 372.533 69.9848L372.453 71.9832C374.073 72.048 376.264 72.08 379.021 72.08V70.08ZM371.493 70.9726L371.301 87.8686L373.301 87.8914L373.493 70.9954L371.493 70.9726ZM372.192 88.874L379.2 89.6421L379.418 87.654L372.41 86.8859L372.192 88.874ZM378.309 88.648C378.309 91.2822 377.622 93.9054 376.219 96.5284L377.983 97.4716C379.524 94.5906 380.309 91.6458 380.309 88.648H378.309ZM377.101 96H353.389V98H377.101V96ZM354.376 96.8385L353.512 91.5585L351.538 91.8815L352.402 97.1615L354.376 96.8385ZM352.9 92.6472C356.21 91.3104 358.849 90.4018 360.832 89.9061L360.347 87.9659C358.233 88.4942 355.496 89.4416 352.151 90.7928L352.9 92.6472ZM361.589 88.936C361.589 88.7326 361.301 71.7877 360.725 38.1349L358.725 38.1691C359.013 55.0011 359.229 67.6491 359.373 76.113C359.445 80.345 359.499 83.5309 359.535 85.6708C359.553 86.7408 359.567 87.5491 359.576 88.0959C359.58 88.3694 359.584 88.5772 359.586 88.7196C359.587 88.7909 359.588 88.8454 359.589 88.8835C359.589 88.927 359.589 88.9393 359.589 88.936H361.589ZM359.968 37.1819C358.987 36.9367 356.372 36.1186 352.069 34.7059L351.445 36.6061C355.719 38.0094 358.415 38.8553 359.483 39.1221L359.968 37.1819ZM352.749 35.786L353.517 29.93L351.534 29.67L350.766 35.526L352.749 35.786ZM352.525 30.8H379.117V28.8H352.525V30.8ZM377.02 62.9599C381.485 62.8932 385.086 61.6549 387.687 59.1247L386.292 57.6913C384.156 59.7691 381.102 60.8987 376.99 60.9601L377.02 62.9599ZM387.687 59.1247C390.269 56.6119 391.541 53.367 391.541 49.48H389.541C389.541 52.889 388.445 55.5961 386.292 57.6913L387.687 59.1247ZM391.541 49.48C391.541 45.6482 390.425 42.6873 387.961 40.8953L386.785 42.5127C388.545 43.7927 389.541 46.0158 389.541 49.48H391.541ZM387.989 40.916C385.679 39.1115 382.175 38.304 377.677 38.304V40.304C382.012 40.304 384.971 41.0965 386.758 42.492L387.989 40.916ZM377.677 38.304C375.937 38.304 374.291 38.3362 372.74 38.4009L372.823 40.3991C374.343 40.3358 375.961 40.304 377.677 40.304V38.304ZM371.781 39.3873C371.653 49.5002 371.589 57.0574 371.589 62.056H373.589C373.589 57.0706 373.653 49.5238 373.781 39.4127L371.781 39.3873ZM372.611 63.0558L377.027 62.9598L376.984 60.9602L372.568 61.0562L372.611 63.0558ZM452.841 39.4V38.4H451.841V39.4H452.841ZM452.65 58.216L451.65 58.1916L451.625 59.216H452.65V58.216ZM462.441 58.216V59.216H463.307L463.431 58.3594L462.441 58.216ZM463.401 51.592V50.592H462.536L462.412 51.4486L463.401 51.592ZM472.906 53.992H473.906V53.3853L473.367 53.1051L472.906 53.992ZM472.906 73.192L472.951 74.191L473.906 74.1476V73.192H472.906ZM466.569 73.48L465.737 74.0347L466.051 74.5046L466.615 74.479L466.569 73.48ZM463.882 67.432L464.871 67.2854L464.744 66.432H463.882V67.432ZM452.553 67.432V66.432H451.568L451.554 67.4177L452.553 67.432ZM452.362 87.688H451.362V88.688H452.362V87.688ZM468.777 87.688V88.688H469.556L469.747 87.9332L468.777 87.688ZM470.889 79.336V78.336H470.111L469.92 79.0908L470.889 79.336ZM479.914 79.912L480.881 79.6575L480.72 79.0457L480.098 78.9291L479.914 79.912ZM481.065 97V98H481.964L482.06 97.1065L481.065 97ZM433.449 97L432.463 97.1615L432.6 98H433.449V97ZM432.586 91.72L432.227 90.7867L431.467 91.0787L431.599 91.8815L432.586 91.72ZM440.65 88.936L440.855 89.9146L441.663 89.7445L441.649 88.9191L440.65 88.936ZM440.457 73L441.457 72.9907L441.457 72.9833L440.457 73ZM439.785 38.152L440.785 38.1276L440.768 37.4118L440.084 37.1977L439.785 38.152ZM431.818 35.656L430.826 35.526L430.717 36.3591L431.519 36.6103L431.818 35.656ZM432.586 29.8V28.8H431.708L431.594 29.67L432.586 29.8ZM479.721 29.8L480.715 29.6896L480.617 28.8H479.721V29.8ZM478.569 47.08L478.876 48.0317L479.43 47.8532L479.548 47.284L478.569 47.08ZM469.546 48.04L468.577 48.2876L468.769 49.04H469.546V48.04ZM467.337 39.4L468.306 39.1524L468.114 38.4H467.337V39.4ZM451.841 39.4C451.841 46.6907 451.778 52.9542 451.65 58.1916L453.649 58.2404C453.777 52.9818 453.841 46.7013 453.841 39.4H451.841ZM452.65 59.216H462.441V57.216H452.65V59.216ZM463.431 58.3594L464.391 51.7354L462.412 51.4486L461.452 58.0726L463.431 58.3594ZM463.401 52.592C466.495 52.592 469.505 53.3485 472.444 54.8789L473.367 53.1051C470.162 51.4355 466.836 50.592 463.401 50.592V52.592ZM471.906 53.992V73.192H473.906V53.992H471.906ZM472.86 72.193L466.524 72.481L466.615 74.479L472.951 74.191L472.86 72.193ZM467.402 72.9253C465.905 70.68 465.096 68.8067 464.871 67.2854L462.892 67.5785C463.179 69.5133 464.162 71.672 465.737 74.0347L467.402 72.9253ZM463.882 66.432H452.553V68.432H463.882V66.432ZM451.554 67.4177C451.426 76.3789 451.362 83.1366 451.362 87.688H453.362C453.362 83.1514 453.425 76.4051 453.553 67.4463L451.554 67.4177ZM452.362 88.688H468.777V86.688H452.362V88.688ZM469.747 87.9332L471.859 79.5812L469.92 79.0908L467.808 87.4428L469.747 87.9332ZM470.889 80.336C474.84 80.336 477.774 80.5283 479.729 80.8949L480.098 78.9291C477.957 78.5277 474.875 78.336 470.889 78.336V80.336ZM478.946 80.1665C479.89 83.7514 480.354 86.9924 480.354 89.896H482.354C482.354 86.7836 481.857 83.3685 480.881 79.6575L478.946 80.1665ZM480.354 89.896C480.354 92.8236 480.258 95.1519 480.071 96.8935L482.06 97.1065C482.257 95.2641 482.354 92.8564 482.354 89.896H480.354ZM481.065 96H433.449V98H481.065V96ZM434.436 96.8385L433.572 91.5585L431.599 91.8815L432.463 97.1615L434.436 96.8385ZM432.944 92.6533C437.127 91.0447 439.734 90.1507 440.855 89.9146L440.443 87.9575C439.133 88.2333 436.364 89.1953 432.227 90.7867L432.944 92.6533ZM441.649 88.9191C441.585 85.1468 441.521 79.8378 441.457 72.9907L439.458 73.0093C439.522 79.8582 439.586 85.1732 439.65 88.9529L441.649 88.9191ZM441.457 72.9833C441.201 57.6227 440.977 46.0036 440.785 38.1276L438.786 38.1764C438.978 46.0444 439.202 57.6573 439.458 73.0167L441.457 72.9833ZM440.084 37.1977L432.116 34.7017L431.519 36.6103L439.487 39.1063L440.084 37.1977ZM432.809 35.786L433.577 29.93L431.594 29.67L430.826 35.526L432.809 35.786ZM432.586 30.8H479.721V28.8H432.586V30.8ZM478.728 29.9104C478.914 31.5884 479.009 33.7244 479.009 36.328H481.009C481.009 33.6836 480.913 31.4676 480.715 29.6896L478.728 29.9104ZM479.009 36.328C479.009 38.7847 478.546 42.2893 477.591 46.876L479.548 47.284C480.513 42.6547 481.009 38.9913 481.009 36.328H479.009ZM478.263 46.1283C476.432 46.7189 473.552 47.04 469.546 47.04V49.04C473.603 49.04 476.739 48.7211 478.876 48.0317L478.263 46.1283ZM470.514 47.7924L468.306 39.1524L466.369 39.6476L468.577 48.2876L470.514 47.7924ZM467.337 38.4H452.841V40.4H467.337V38.4ZM530.553 41.128L530.175 40.2019L529.818 40.3476L529.651 40.6959L530.553 41.128ZM529.785 81.352L528.906 81.8291L528.909 81.8344L529.785 81.352ZM565.209 37.096L564.417 37.7075L564.421 37.7118L565.209 37.096ZM568.953 81.256L569.893 81.5968L568.953 81.256ZM559.545 93.544L560.116 94.3649L559.545 93.544ZM519.897 89.416L519.117 90.0418L519.121 90.0469L519.897 89.416ZM542.649 88.976C548.262 88.976 552.579 86.7944 555.439 82.4016C558.25 78.0831 559.585 71.7326 559.585 63.496H557.585C557.585 71.5794 556.263 77.4689 553.763 81.3104C551.31 85.0776 547.659 86.976 542.649 86.976V88.976ZM559.585 63.496C559.585 55.2594 558.25 48.9089 555.439 44.5904C552.579 40.1976 548.262 38.016 542.649 38.016V40.016C547.659 40.016 551.31 41.9144 553.763 45.6816C556.263 49.5231 557.585 55.4126 557.585 63.496H559.585ZM542.649 38.016C537.941 38.016 533.776 38.7351 530.175 40.2019L530.93 42.0541C534.242 40.7049 538.141 40.016 542.649 40.016V38.016ZM529.651 40.6959C526.631 46.9983 525.137 54.287 525.137 62.536H527.137C527.137 54.529 528.586 47.5457 531.455 41.5601L529.651 40.6959ZM525.137 62.536C525.137 70.6792 526.361 77.1413 528.906 81.8291L530.664 80.8749C528.344 76.6027 527.137 70.5208 527.137 62.536H525.137ZM528.909 81.8344C531.558 86.6447 536.235 88.976 542.649 88.976V86.976C536.775 86.976 532.876 84.8913 530.661 80.8696L528.909 81.8344ZM542.649 29.648C553.187 29.648 560.335 32.4242 564.417 37.7074L566 36.4846C561.379 30.5038 553.486 27.648 542.649 27.648V29.648ZM564.421 37.7118C568.573 43.0235 570.737 51.3013 570.737 62.728H572.737C572.737 51.1147 570.549 42.3045 565.997 36.4802L564.421 37.7118ZM570.737 62.728C570.737 69.8796 569.818 75.9337 568.013 80.9152L569.893 81.5968C571.799 76.3383 572.737 70.0404 572.737 62.728H570.737ZM568.013 80.9152C566.226 85.8434 563.218 89.7707 558.974 92.7231L560.116 94.3649C564.704 91.1733 567.967 86.9086 569.893 81.5968L568.013 80.9152ZM558.974 92.7231C554.766 95.6503 549.348 97.152 542.649 97.152V99.152C549.645 99.152 555.492 97.5817 560.116 94.3649L558.974 92.7231ZM542.649 97.152C532.394 97.152 525.153 94.2942 520.673 88.7851L519.121 90.0469C524.113 96.1858 532.039 99.152 542.649 99.152V97.152ZM520.677 88.7903C516.202 83.2125 513.889 74.9919 513.889 63.976H511.889C511.889 75.2321 514.247 83.9715 519.117 90.0417L520.677 88.7903ZM513.889 63.976C513.889 52.3163 516.348 43.7579 521.094 38.1243C525.812 32.5235 532.932 29.648 542.649 29.648V27.648C532.525 27.648 524.766 30.6605 519.564 36.8357C514.39 42.9781 511.889 52.0837 511.889 63.976H513.889ZM666.223 38.344L666.098 37.3517L665.227 37.4607L665.223 38.3391L666.223 38.344ZM665.935 97V98H666.93L666.935 97.0049L665.935 97ZM653.646 97L652.794 97.5229L653.087 98H653.646V97ZM621.966 45.352L622.819 44.8291L621.014 41.8861L620.967 45.3383L621.966 45.352ZM621.487 87.784L620.487 87.7773L620.481 88.6613L621.357 88.7756L621.487 87.784ZM628.11 88.648H629.11V87.77L628.24 87.6564L628.11 88.648ZM625.903 97V98H626.521L626.797 97.4472L625.903 97ZM602.575 97L601.588 97.1615L601.725 98H602.575V97ZM601.711 91.72L601.331 90.795L600.595 91.097L600.724 91.8815L601.711 91.72ZM609.774 88.936L609.984 89.9138L610.774 89.7444V88.936H609.774ZM608.911 38.152L609.91 38.1349L609.898 37.4134L609.209 37.1977L608.911 38.152ZM600.943 35.656L599.951 35.526L599.842 36.3591L600.644 36.6103L600.943 35.656ZM601.711 29.8V28.8H600.833L600.719 29.67L601.711 29.8ZM626.67 29.8L627.544 29.3131L627.258 28.8H626.67V29.8ZM654.607 79.912L653.733 80.3989L655.606 79.8775L654.607 79.912ZM653.167 38.152L654.166 38.1175L654.141 37.4095L653.465 37.1977L653.167 38.152ZM645.198 35.656L644.207 35.526L644.098 36.3591L644.9 36.6103L645.198 35.656ZM645.966 29.8V28.8H645.089L644.975 29.67L645.966 29.8ZM670.927 29.992L670.032 30.4392L670.105 30.5844L670.219 30.6991L670.927 29.992ZM671.31 30.856L670.349 31.1307L670.375 31.2201L670.416 31.3032L671.31 30.856ZM671.886 32.296L670.938 32.6122L670.944 32.6298L670.95 32.6471L671.886 32.296ZM672.654 37.384L672.809 38.3719L673.702 38.2319L673.653 37.33L672.654 37.384ZM665.223 38.3391L664.935 96.9951L666.935 97.0049L667.222 38.3489L665.223 38.3391ZM665.935 96H653.646V98H665.935V96ZM654.499 96.4771L622.819 44.8291L621.114 45.8749L652.794 97.5229L654.499 96.4771ZM620.967 45.3383C620.711 64.0909 620.551 78.2377 620.487 87.7773L622.486 87.7907C622.55 78.2583 622.71 64.1171 622.966 45.3656L620.967 45.3383ZM621.357 88.7756L627.981 89.6396L628.24 87.6564L621.616 86.7924L621.357 88.7756ZM627.11 88.648C627.11 91.0823 626.428 93.7132 625.008 96.5528L626.797 97.4472C628.321 94.3988 629.11 91.4617 629.11 88.648H627.11ZM625.903 96H602.575V98H625.903V96ZM603.561 96.8385L602.697 91.5585L600.724 91.8815L601.588 97.1615L603.561 96.8385ZM602.09 92.645C605.666 91.1765 608.285 90.2779 609.984 89.9138L609.565 87.9582C607.68 88.3621 604.923 89.3195 601.331 90.795L602.09 92.645ZM610.774 88.936C610.774 88.7326 610.486 71.7877 609.91 38.1349L607.911 38.1691C608.199 55.0011 608.415 67.6491 608.559 76.113C608.631 80.345 608.685 83.5309 608.721 85.6708C608.739 86.7408 608.752 87.5491 608.761 88.0959C608.766 88.3694 608.769 88.5772 608.771 88.7196C608.772 88.7909 608.773 88.8454 608.774 88.8835C608.774 88.927 608.774 88.9393 608.774 88.936H610.774ZM609.209 37.1977L601.241 34.7017L600.644 36.6103L608.612 39.1063L609.209 37.1977ZM601.934 35.786L602.702 29.93L600.719 29.67L599.951 35.526L601.934 35.786ZM601.711 30.8H626.67V28.8H601.711V30.8ZM625.797 30.2869L653.733 80.3989L655.48 79.4251L627.544 29.3131L625.797 30.2869ZM655.606 79.8775L654.166 38.1175L652.167 38.1865L653.607 79.9465L655.606 79.8775ZM653.465 37.1977L645.497 34.7017L644.9 36.6103L652.868 39.1063L653.465 37.1977ZM646.19 35.786L646.958 29.93L644.975 29.67L644.207 35.526L646.19 35.786ZM645.966 30.8H670.927V28.8H645.966V30.8ZM670.927 28.8C670.756 28.8 670.445 28.8432 670.183 29.1049C669.922 29.3666 669.878 29.6778 669.878 29.848C669.878 30.1348 669.996 30.3674 670.032 30.4392L671.821 29.5448C671.818 29.5393 671.828 29.5567 671.839 29.5918C671.848 29.6177 671.878 29.7127 671.878 29.848C671.878 29.9861 671.843 30.2734 671.598 30.5191C671.352 30.7648 671.065 30.8 670.927 30.8V28.8ZM670.219 30.6991C670.181 30.6606 670.167 30.6351 670.171 30.6421C670.174 30.6472 670.186 30.6678 670.205 30.7101C670.243 30.7966 670.292 30.9325 670.349 31.1307L672.272 30.5813C672.201 30.3315 672.122 30.0994 672.032 29.8979C671.95 29.7122 671.826 29.4773 671.634 29.2849L670.219 30.6991ZM670.416 31.3032C670.58 31.6316 670.755 32.0643 670.938 32.6122L672.835 31.9798C672.634 31.3757 672.425 30.8484 672.205 30.4088L670.416 31.3032ZM670.95 32.6471C671.277 33.5176 671.529 35.0814 671.656 37.438L673.653 37.33C673.524 34.9506 673.264 33.1224 672.823 31.9449L670.95 32.6471ZM672.5 36.3961C669.232 36.9086 667.104 37.226 666.098 37.3517L666.347 39.3363C667.389 39.206 669.549 38.8834 672.809 38.3719L672.5 36.3961ZM748.199 30.856L749.194 30.7565L749.126 30.0737L748.464 29.8918L748.199 30.856ZM748.295 31.816H749.295V31.7661L749.29 31.7165L748.295 31.816ZM747.047 38.536L747.657 39.3286L747.856 39.175L747.96 38.9451L747.047 38.536ZM743.111 40.072L742.901 39.0942L741.804 39.3293L742.164 40.3922L743.111 40.072ZM759.143 87.496L758.196 87.8163L758.396 88.4096L759.018 88.4881L759.143 87.496ZM768.263 88.648H769.263V87.7664L768.388 87.6559L768.263 88.648ZM766.055 97V98H766.673L766.949 97.4472L766.055 97ZM742.727 97L741.74 97.1615L741.877 98H742.727V97ZM741.863 91.72L741.507 90.7855L740.744 91.0761L740.876 91.8815L741.863 91.72ZM747.143 89.704L747.502 90.6373L748.411 90.2879L748.086 89.3703L747.143 89.704ZM743.303 78.856L744.246 78.5223L744.01 77.856H743.303V78.856ZM721.703 78.856V77.856H720.985L720.755 78.5366L721.703 78.856ZM718.631 87.784L717.737 87.3368L717.108 88.5938L718.502 88.7756L718.631 87.784ZM725.255 88.648H726.255V87.77L725.384 87.6564L725.255 88.648ZM724.487 93.352L725.446 93.6361L725.449 93.6267L724.487 93.352ZM723.047 97V98H723.596L723.891 97.5369L723.047 97ZM699.719 97L698.732 97.1615L698.869 98H699.719V97ZM698.855 91.72L698.466 90.7988L697.741 91.1049L697.868 91.8815L698.855 91.72ZM706.631 89.032L706.874 90.0021L707.41 89.8681L707.582 89.3427L706.631 89.032ZM722.759 39.688L723.71 39.9987L724.077 38.8737L722.907 38.699L722.759 39.688ZM713.063 37.192H712.063V37.8266L712.637 38.0968L713.063 37.192ZM713.927 32.296L713.611 31.3473L713.175 31.4925L713.001 31.9174L713.927 32.296ZM723.335 30.76L723.451 31.7533L723.462 31.7519L723.335 30.76ZM735.815 57.256L734.838 57.4706L734.854 57.5399L734.878 57.6063L735.815 57.256ZM733.031 44.584L734.008 44.3694L733.835 43.584H733.031V44.584ZM732.071 44.584V43.584H731.276L731.097 44.3581L732.071 44.584ZM728.999 57.832L729.935 58.1839L729.958 58.1222L729.973 58.0579L728.999 57.832ZM724.487 69.832L723.551 69.4801L723.043 70.832H724.487V69.832ZM740.519 69.832V70.832H741.961L741.456 69.4817L740.519 69.832ZM747.204 30.9555L747.3 31.9155L749.29 31.7165L749.194 30.7565L747.204 30.9555ZM747.295 31.816C747.295 34.3383 746.895 36.4312 746.135 38.1269L747.96 38.9451C748.863 36.9288 749.295 34.5417 749.295 31.816H747.295ZM746.437 37.7434C745.781 38.2485 744.641 38.7214 742.901 39.0942L743.321 41.0498C745.165 40.6546 746.649 40.1035 747.657 39.3286L746.437 37.7434ZM742.164 40.3922L758.196 87.8163L760.09 87.1758L744.058 39.7517L742.164 40.3922ZM759.018 88.4881L768.138 89.6401L768.388 87.6559L759.268 86.5039L759.018 88.4881ZM767.263 88.648C767.263 91.0823 766.58 93.7132 765.161 96.5528L766.949 97.4472C768.474 94.3988 769.263 91.4617 769.263 88.648H767.263ZM766.055 96H742.727V98H766.055V96ZM743.714 96.8385L742.85 91.5585L740.876 91.8815L741.74 97.1615L743.714 96.8385ZM742.219 92.6545C744.907 91.6306 746.668 90.958 747.502 90.6373L746.784 88.7707C745.954 89.09 744.195 89.7614 741.507 90.7855L742.219 92.6545ZM748.086 89.3703L744.246 78.5223L742.36 79.1897L746.2 90.0377L748.086 89.3703ZM743.303 77.856H721.703V79.856H743.303V77.856ZM720.755 78.5366C719.796 81.384 719.06 83.5497 718.549 85.0346C718.294 85.7775 718.095 86.3474 717.953 86.7463C717.796 87.1861 717.734 87.3422 717.737 87.3368L719.525 88.2312C719.592 88.0978 719.706 87.7859 719.837 87.4177C719.983 87.0086 720.184 86.4305 720.441 85.6854C720.954 84.1943 721.69 82.024 722.651 79.1754L720.755 78.5366ZM718.502 88.7756L725.126 89.6396L725.384 87.6564L718.76 86.7924L718.502 88.7756ZM724.255 88.648C724.255 89.871 724.021 91.3429 723.525 93.0773L725.449 93.6267C725.977 91.7771 726.255 90.113 726.255 88.648H724.255ZM723.528 93.0679C723.019 94.7852 722.571 95.8853 722.203 96.4631L723.891 97.5369C724.419 96.7067 724.931 95.3748 725.446 93.6361L723.528 93.0679ZM723.047 96H699.719V98H723.047V96ZM700.706 96.8385L699.842 91.5585L697.868 91.8815L698.732 97.1615L700.706 96.8385ZM699.244 92.6413C702.09 91.4394 704.632 90.5624 706.874 90.0021L706.388 88.0619C704.022 88.6535 701.38 89.5686 698.466 90.7988L699.244 92.6413ZM707.582 89.3427L723.71 39.9987L721.808 39.3773L705.68 88.7213L707.582 89.3427ZM722.907 38.699C718.651 38.0638 715.533 37.249 713.489 36.2872L712.637 38.0968C714.945 39.183 718.291 40.0322 722.611 40.677L722.907 38.699ZM714.063 37.192C714.063 35.4381 714.335 33.9392 714.853 32.6746L713.001 31.9174C712.367 33.4688 712.063 35.2339 712.063 37.192H714.063ZM714.243 33.2447C715.47 32.8359 718.494 32.3326 723.451 31.7532L723.219 29.7668C718.32 30.3393 715.072 30.8601 713.611 31.3473L714.243 33.2447ZM723.462 31.7519C728.417 31.1166 733.11 30.8 737.543 30.8V28.8C733.016 28.8 728.237 29.1234 723.208 29.7681L723.462 31.7519ZM737.543 30.8C742.051 30.8 745.5 31.1509 747.934 31.8202L748.464 29.8918C745.778 29.1531 742.123 28.8 737.543 28.8V30.8ZM736.792 57.0414L734.008 44.3694L732.054 44.7986L734.838 57.4706L736.792 57.0414ZM733.031 43.584H732.071V45.584H733.031V43.584ZM731.097 44.3581L728.025 57.6061L729.973 58.0579L733.045 44.8099L731.097 44.3581ZM728.063 57.4801L723.551 69.4801L725.423 70.1839L729.935 58.1839L728.063 57.4801ZM724.487 70.832H740.519V68.832H724.487V70.832ZM741.456 69.4817L736.752 56.9057L734.878 57.6063L739.582 70.1823L741.456 69.4817ZM797.737 47.272L796.763 47.4979L796.914 48.1486L797.573 48.2584L797.737 47.272ZM796.489 29.8V28.8H795.576L795.493 29.7095L796.489 29.8ZM852.265 29.8L853.262 29.7169L853.185 28.8H852.265V29.8ZM851.113 47.272L851.379 48.236L851.963 48.075L852.091 47.4833L851.113 47.272ZM841.993 48.04L841.018 48.262L841.195 49.04H841.993V48.04ZM839.785 38.344L840.76 38.122L840.583 37.344H839.785V38.344ZM831.625 38.344V37.344H830.651L830.626 38.3177L831.625 38.344ZM830.761 87.784L829.761 87.7672L829.746 88.6649L830.637 88.7763L830.761 87.784ZM837.673 88.648H838.673V87.7652L837.797 87.6557L837.673 88.648ZM835.465 97V98H836.051L836.337 97.4893L835.465 97ZM812.137 97L811.15 97.1615L811.288 98H812.137V97ZM811.273 91.72L810.921 90.7842L810.154 91.0731L810.286 91.8815L811.273 91.72ZM819.625 88.936L819.79 89.9224L820.625 89.7831V88.936H819.625ZM818.473 38.44L819.473 38.417L819.451 37.44H818.473V38.44ZM808.969 38.44V37.44H808.169L807.994 38.221L808.969 38.44ZM806.857 47.848V48.848H807.658L807.833 48.067L806.857 47.848ZM798.711 47.0461C797.694 42.6568 797.201 39.2552 797.201 36.808H795.201C795.201 39.4808 795.733 43.0552 796.763 47.4979L798.711 47.0461ZM797.201 36.808C797.201 34.2723 797.296 31.967 797.485 29.8905L795.493 29.7095C795.298 31.857 795.201 34.2237 795.201 36.808H797.201ZM796.489 30.8H852.265V28.8H796.489V30.8ZM851.269 29.883C851.525 32.9602 851.649 34.9999 851.649 36.04H853.649C853.649 34.9041 853.517 32.7838 853.262 29.7169L851.269 29.883ZM851.649 36.04C851.649 38.6869 851.154 42.3502 850.136 47.0607L852.091 47.4833C853.12 42.7218 853.649 38.8971 853.649 36.04H851.649ZM850.847 46.308C849.131 46.7814 846.208 47.04 841.993 47.04V49.04C846.226 49.04 849.383 48.7866 851.379 48.236L850.847 46.308ZM842.968 47.818L840.76 38.122L838.81 38.566L841.018 48.262L842.968 47.818ZM839.785 37.344H831.625V39.344H839.785V37.344ZM830.626 38.3177C830.561 40.756 830.273 57.2438 829.761 87.7672L831.761 87.8008C832.273 57.2682 832.561 40.796 832.625 38.3703L830.626 38.3177ZM830.637 88.7763L837.549 89.6403L837.797 87.6557L830.885 86.7917L830.637 88.7763ZM836.673 88.648C836.673 91.4168 835.983 94.0328 834.593 96.5107L836.337 97.4893C837.891 94.7192 838.673 91.7672 838.673 88.648H836.673ZM835.465 96H812.137V98H835.465V96ZM813.124 96.8385L812.26 91.5585L810.286 91.8815L811.15 97.1615L813.124 96.8385ZM811.626 92.6558C816.077 90.9785 818.756 90.0946 819.79 89.9224L819.461 87.9496C818.19 88.1614 815.301 89.1335 810.921 90.7842L811.626 92.6558ZM820.625 88.936C820.625 88.6647 820.241 71.8102 819.473 38.417L817.474 38.463C817.858 55.167 818.146 67.7269 818.338 76.1428C818.434 80.3508 818.505 83.5226 818.554 85.6585C818.578 86.7264 818.596 87.5351 818.607 88.0848C818.613 88.3597 818.618 88.5695 818.621 88.7144C818.622 88.7869 818.624 88.8427 818.624 88.882C818.625 88.9273 818.625 88.9397 818.625 88.936H820.625ZM818.473 37.44H808.969V39.44H818.473V37.44ZM807.994 38.221L805.882 47.629L807.833 48.067L809.945 38.659L807.994 38.221ZM806.857 46.848C803.107 46.848 800.129 46.6568 797.902 46.2856L797.573 48.2584C799.954 48.6552 803.055 48.848 806.857 48.848V46.848ZM898.428 41.128L898.05 40.2019L897.693 40.3476L897.526 40.6959L898.428 41.128ZM897.66 81.352L896.781 81.8291L896.784 81.8344L897.66 81.352ZM933.084 37.096L932.292 37.7075L932.296 37.7118L933.084 37.096ZM936.828 81.256L937.768 81.5968L936.828 81.256ZM927.42 93.544L927.991 94.3649L927.42 93.544ZM887.772 89.416L886.992 90.0418L886.996 90.0469L887.772 89.416ZM910.524 88.976C916.137 88.976 920.454 86.7944 923.314 82.4016C926.125 78.0831 927.46 71.7326 927.46 63.496H925.46C925.46 71.5794 924.138 77.4689 921.638 81.3104C919.185 85.0776 915.534 86.976 910.524 86.976V88.976ZM927.46 63.496C927.46 55.2594 926.125 48.9089 923.314 44.5904C920.454 40.1976 916.137 38.016 910.524 38.016V40.016C915.534 40.016 919.185 41.9144 921.638 45.6816C924.138 49.5231 925.46 55.4126 925.46 63.496H927.46ZM910.524 38.016C905.816 38.016 901.651 38.7351 898.05 40.2019L898.805 42.0541C902.117 40.7049 906.016 40.016 910.524 40.016V38.016ZM897.526 40.6959C894.506 46.9983 893.012 54.287 893.012 62.536H895.012C895.012 54.529 896.461 47.5457 899.33 41.5601L897.526 40.6959ZM893.012 62.536C893.012 70.6792 894.236 77.1413 896.781 81.8291L898.539 80.8749C896.219 76.6027 895.012 70.5208 895.012 62.536H893.012ZM896.784 81.8344C899.433 86.6447 904.11 88.976 910.524 88.976V86.976C904.65 86.976 900.751 84.8913 898.536 80.8696L896.784 81.8344ZM910.524 29.648C921.062 29.648 928.21 32.4242 932.292 37.7074L933.875 36.4846C929.254 30.5038 921.361 27.648 910.524 27.648V29.648ZM932.296 37.7118C936.448 43.0235 938.612 51.3013 938.612 62.728H940.612C940.612 51.1147 938.424 42.3045 933.872 36.4802L932.296 37.7118ZM938.612 62.728C938.612 69.8796 937.693 75.9337 935.888 80.9152L937.768 81.5968C939.674 76.3383 940.612 70.0404 940.612 62.728H938.612ZM935.888 80.9152C934.101 85.8434 931.093 89.7707 926.849 92.7231L927.991 94.3649C932.579 91.1733 935.842 86.9086 937.768 81.5968L935.888 80.9152ZM926.849 92.7231C922.641 95.6503 917.223 97.152 910.524 97.152V99.152C917.52 99.152 923.367 97.5817 927.991 94.3649L926.849 92.7231ZM910.524 97.152C900.269 97.152 893.028 94.2942 888.548 88.7851L886.996 90.0469C891.988 96.1858 899.914 99.152 910.524 99.152V97.152ZM888.552 88.7903C884.077 83.2125 881.764 74.9919 881.764 63.976H879.764C879.764 75.2321 882.122 83.9715 886.992 90.0417L888.552 88.7903ZM881.764 63.976C881.764 52.3163 884.223 43.7579 888.969 38.1243C893.687 32.5235 900.807 29.648 910.524 29.648V27.648C900.4 27.648 892.641 30.6605 887.439 36.8357C882.265 42.9781 879.764 52.0837 879.764 63.976H881.764Z" fill="black" mask="url(#path-2-outside-1_27_189)"/>
<defs>
<filter id="filter0_f_27_189" x="0" y="55" width="1013" height="21" filterUnits="userSpaceOnUse" color-interpolation-filters="sRGB">
<feFlood flood-opacity="0" result="BackgroundImageFix"/>
<feBlend mode="normal" in="SourceGraphic" in2="BackgroundImageFix" result="shape"/>
<feGaussianBlur stdDeviation="2" result="effect1_foregroundBlur_27_189"/>
</filter>
<filter id="filter1_i_27_189" x="54.9199" y="28.648" width="884.692" height="73.6" filterUnits="userSpaceOnUse" color-interpolation-filters="sRGB">
<feFlood flood-opacity="0" result="BackgroundImageFix"/>
<feBlend mode="normal" in="SourceGraphic" in2="BackgroundImageFix" result="shape"/>
<feColorMatrix in="SourceAlpha" type="matrix" values="0 0 0 0 0 0 0 0 0 0 0 0 0 0 0 0 0 0 127 0" result="hardAlpha"/>
<feOffset dy="4"/>
<feGaussianBlur stdDeviation="2"/>
<feComposite in2="hardAlpha" operator="arithmetic" k2="-1" k3="1"/>
<feColorMatrix type="matrix" values="0 0 0 0 0 0 0 0 0 0 0 0 0 0 0 0 0 0 0.25 0"/>
<feBlend mode="normal" in2="shape" result="effect1_innerShadow_27_189"/>
</filter>
</defs>
</svg>
