<svg width="1066" height="99" viewBox="0 0 1066 99" fill="none" xmlns="http://www.w3.org/2000/svg">
<g filter="url(#filter0_f_51_103)">
<ellipse cx="532.5" cy="66.5" rx="528.5" ry="6.5" fill="#DF1973"/>
</g>
<mask id="path-2-outside-1_51_103" maskUnits="userSpaceOnUse" x="66" y="27" width="936" height="73" fill="black">
<rect fill="white" x="66" y="27" width="936" height="73"/>
<path d="M95.336 29.8C103.464 29.8 109.512 31.208 113.48 34.024C117.448 36.84 119.432 41.96 119.432 49.384C119.432 55.592 117.512 60.776 113.672 64.936C109.832 69.032 103.688 71.08 95.24 71.08C92.488 71.08 90.312 71.048 88.712 70.984L88.52 87.88L95.528 88.648C95.528 91.464 94.792 94.248 93.32 97H69.608L68.744 91.72C72.072 90.376 74.76 89.448 76.808 88.936C76.808 88.744 76.52 71.816 75.944 38.152C74.92 37.896 72.264 37.064 67.976 35.656L68.744 29.8H95.336ZM93.224 61.96C97.512 61.896 100.84 60.712 103.208 58.408C105.576 56.104 106.76 53.128 106.76 49.48C106.76 45.832 105.704 43.24 103.592 41.704C101.544 40.104 98.312 39.304 93.896 39.304C92.168 39.304 90.536 39.336 89 39.4C88.872 49.512 88.808 57.064 88.808 62.056L93.224 61.96ZM169.06 39.4C169.06 46.696 168.996 52.968 168.868 58.216H178.66L179.62 51.592C182.884 51.592 186.052 52.392 189.124 53.992V73.192L182.788 73.48C181.252 71.176 180.356 69.16 180.1 67.432H168.772C168.644 76.392 168.58 83.144 168.58 87.688H184.996L187.108 79.336C191.076 79.336 194.084 79.528 196.132 79.912C197.092 83.56 197.572 86.888 197.572 89.896C197.572 92.84 197.476 95.208 197.284 97H149.668L148.804 91.72C152.964 90.12 155.652 89.192 156.868 88.936C156.804 85.16 156.74 79.848 156.676 73C156.42 57.64 156.196 46.024 156.004 38.152L148.036 35.656L148.804 29.8H195.94C196.132 31.528 196.228 33.704 196.228 36.328C196.228 38.888 195.748 42.472 194.788 47.08C192.804 47.72 189.796 48.04 185.764 48.04L183.556 39.4H169.06ZM254.164 29.8C265.364 29.8 272.788 31.4 276.436 34.6C279.764 37.48 281.427 41.928 281.427 47.944C281.427 57.288 276.564 63.656 266.836 67.048L280.66 87.88L288.916 88.744C288.916 91.496 288.18 94.248 286.708 97H272.788L253.972 68.296H250.9L250.612 87.88L257.62 88.648C257.62 91.272 256.884 94.056 255.411 97H231.7L230.836 91.72C234.676 90.184 237.364 89.256 238.9 88.936C238.772 81.064 238.612 71.56 238.42 60.424C238.228 49.288 238.1 41.832 238.036 38.056L230.068 35.656C230.132 34.184 230.42 32.232 230.932 29.8H254.164ZM261.748 40.072C259.764 39.624 257.108 39.4 253.78 39.4H251.092C250.964 48.232 250.9 54.856 250.9 59.272L255.604 59.176C259.38 59.112 262.356 58.344 264.532 56.872C266.772 55.336 267.892 52.392 267.892 48.04C267.892 43.688 265.844 41.032 261.748 40.072ZM343.349 87.784C350.773 87.784 354.485 84.616 354.485 78.28C354.485 75.592 353.077 73.32 350.261 71.464C348.213 70.056 345.397 68.552 341.813 66.952C338.293 65.288 335.637 63.976 333.845 63.016C332.117 62.056 330.101 60.712 327.797 58.984C323.381 55.592 321.173 51.368 321.173 46.312C321.173 41.256 323.125 37.064 327.029 33.736C330.997 30.344 336.341 28.648 343.061 28.648C349.781 28.648 356.949 30.792 364.565 35.08C364.565 39.688 364.085 44.68 363.125 50.056C361.077 50.696 358.037 51.016 354.005 51.016L351.221 39.592C348.853 38.888 346.261 38.536 343.445 38.536C340.629 38.536 338.453 39.144 336.917 40.36C335.381 41.576 334.613 43.4 334.613 45.832C334.613 48.2 335.797 50.344 338.165 52.264C340.597 54.12 343.509 55.848 346.901 57.448C350.293 58.984 352.629 60.072 353.909 60.712C355.189 61.352 356.821 62.312 358.805 63.592C360.789 64.872 362.293 66.088 363.317 67.24C365.941 70.312 367.253 73.736 367.253 77.512C367.253 84.168 365.045 89.288 360.629 92.872C356.213 96.456 350.453 98.248 343.349 98.248C339.573 98.248 335.413 97.608 330.869 96.328C326.389 94.984 322.581 93.288 319.445 91.24C319.573 87.336 320.085 82.056 320.981 75.4C323.541 74.888 326.613 74.632 330.197 74.632L332.213 86.152C335.733 87.24 339.445 87.784 343.349 87.784ZM426.774 87.976C437.398 87.976 442.71 79.816 442.71 63.496C442.71 47.176 437.398 39.016 426.774 39.016C422.166 39.016 418.134 39.72 414.678 41.128C411.734 47.272 410.262 54.408 410.262 62.536C410.262 70.6 411.478 76.872 413.91 81.352C416.342 85.768 420.63 87.976 426.774 87.976ZM426.774 28.648C437.462 28.648 444.982 31.464 449.334 37.096C453.686 42.664 455.862 51.208 455.862 62.728C455.862 69.96 454.934 76.136 453.078 81.256C451.222 86.376 448.086 90.472 443.67 93.544C439.254 96.616 433.622 98.152 426.774 98.152C416.342 98.152 408.758 95.24 404.022 89.416C399.35 83.592 397.014 75.112 397.014 63.976C397.014 40.424 406.934 28.648 426.774 28.648ZM550.348 38.344L550.06 97H537.772L506.092 45.352C505.836 64.104 505.676 78.248 505.612 87.784L512.236 88.648C512.236 91.272 511.5 94.056 510.028 97H486.7L485.836 91.72C489.42 90.248 492.108 89.32 493.9 88.936C493.9 88.744 493.612 71.816 493.036 38.152L485.068 35.656L485.836 29.8H510.796L538.732 79.912L537.292 38.152L529.324 35.656L530.092 29.8H555.052C554.988 29.8 554.988 29.864 555.052 29.992C555.18 30.12 555.308 30.408 555.436 30.856C555.628 31.24 555.82 31.72 556.012 32.296C556.396 33.32 556.652 35.016 556.78 37.384C553.516 37.896 551.372 38.216 550.348 38.344ZM632.324 30.856L632.42 31.816C632.42 34.44 632.004 36.68 631.172 38.536C630.34 39.176 629.028 39.688 627.236 40.072L643.268 87.496L652.388 88.648C652.388 91.272 651.652 94.056 650.18 97H626.852L625.988 91.72C628.676 90.696 630.436 90.024 631.268 89.704L627.428 78.856H605.828C603.908 84.552 602.884 87.528 602.756 87.784L609.38 88.648C609.38 89.992 609.124 91.56 608.612 93.352C608.1 95.08 607.62 96.296 607.172 97H583.844L582.98 91.72C585.86 90.504 588.452 89.608 590.756 89.032L606.884 39.688C602.596 39.048 599.364 38.216 597.188 37.192C597.188 35.336 597.476 33.704 598.052 32.296C599.396 31.848 602.532 31.336 607.46 30.76C612.452 30.12 617.188 29.8 621.668 29.8C626.212 29.8 629.764 30.152 632.324 30.856ZM619.94 57.256L617.156 44.584H616.196L613.124 57.832L608.612 69.832H624.644L619.94 57.256ZM708.934 98.248C700.23 98.248 693.286 95.304 688.102 89.416C682.918 83.528 680.326 74.824 680.326 63.304C680.326 51.784 682.566 43.144 687.046 37.384C691.59 31.56 698.918 28.648 709.03 28.648C713.318 28.648 717.414 29.224 721.318 30.376C725.286 31.528 727.974 32.52 729.382 33.352C730.79 34.12 731.91 34.824 732.742 35.464C732.742 39.56 732.23 44.104 731.206 49.096C729.542 49.864 727.878 50.248 726.214 50.248C724.614 50.248 723.238 50.184 722.086 50.056L720.07 40.072C717.254 39.304 714.502 38.92 711.814 38.92C708.038 38.92 703.334 39.688 697.702 41.224C694.886 46.856 693.478 53.704 693.478 61.768C693.478 79.432 698.662 88.264 709.03 88.264C714.214 88.264 718.342 87.4 721.414 85.672C721.542 82.344 721.67 77.224 721.798 70.312L713.734 67.816L714.502 61.96H737.734C738.502 63.368 739.078 65.896 739.462 69.544C737.286 69.992 734.95 70.312 732.454 70.504C732.838 78.76 733.03 85.864 733.03 91.816C731.174 93.032 727.814 94.408 722.95 95.944C718.086 97.48 713.414 98.248 708.934 98.248ZM790.154 39.4C790.154 46.696 790.09 52.968 789.962 58.216H799.754L800.714 51.592C803.978 51.592 807.146 52.392 810.218 53.992V73.192L803.882 73.48C802.346 71.176 801.45 69.16 801.194 67.432H789.866C789.738 76.392 789.674 83.144 789.674 87.688H806.09L808.202 79.336C812.17 79.336 815.178 79.528 817.226 79.912C818.186 83.56 818.666 86.888 818.666 89.896C818.666 92.84 818.57 95.208 818.378 97H770.762L769.898 91.72C774.058 90.12 776.746 89.192 777.962 88.936C777.898 85.16 777.834 79.848 777.77 73C777.514 57.64 777.29 46.024 777.098 38.152L769.13 35.656L769.898 29.8H817.034C817.226 31.528 817.322 33.704 817.322 36.328C817.322 38.888 816.842 42.472 815.882 47.08C813.898 47.72 810.89 48.04 806.858 48.04L804.65 39.4H790.154ZM916.441 38.344L916.153 97H903.865L872.185 45.352C871.929 64.104 871.769 78.248 871.705 87.784L878.329 88.648C878.329 91.272 877.593 94.056 876.121 97H852.793L851.929 91.72C855.513 90.248 858.201 89.32 859.993 88.936C859.993 88.744 859.705 71.816 859.129 38.152L851.161 35.656L851.929 29.8H876.889L904.825 79.912L903.385 38.152L895.417 35.656L896.185 29.8H921.145C921.081 29.8 921.081 29.864 921.145 29.992C921.273 30.12 921.401 30.408 921.529 30.856C921.721 31.24 921.913 31.72 922.105 32.296C922.489 33.32 922.745 35.016 922.873 37.384C919.609 37.896 917.465 38.216 916.441 38.344ZM976.818 87.784C984.242 87.784 987.954 84.616 987.954 78.28C987.954 75.592 986.546 73.32 983.73 71.464C981.682 70.056 978.866 68.552 975.282 66.952C971.762 65.288 969.106 63.976 967.314 63.016C965.586 62.056 963.57 60.712 961.266 58.984C956.85 55.592 954.642 51.368 954.642 46.312C954.642 41.256 956.594 37.064 960.498 33.736C964.466 30.344 969.81 28.648 976.53 28.648C983.25 28.648 990.418 30.792 998.034 35.08C998.034 39.688 997.554 44.68 996.594 50.056C994.546 50.696 991.506 51.016 987.474 51.016L984.69 39.592C982.322 38.888 979.73 38.536 976.914 38.536C974.098 38.536 971.922 39.144 970.386 40.36C968.85 41.576 968.082 43.4 968.082 45.832C968.082 48.2 969.266 50.344 971.634 52.264C974.066 54.12 976.978 55.848 980.37 57.448C983.762 58.984 986.098 60.072 987.378 60.712C988.658 61.352 990.29 62.312 992.274 63.592C994.258 64.872 995.762 66.088 996.786 67.24C999.41 70.312 1000.72 73.736 1000.72 77.512C1000.72 84.168 998.514 89.288 994.098 92.872C989.682 96.456 983.922 98.248 976.818 98.248C973.042 98.248 968.882 97.608 964.338 96.328C959.858 94.984 956.05 93.288 952.914 91.24C953.042 87.336 953.554 82.056 954.45 75.4C957.01 74.888 960.082 74.632 963.666 74.632L965.682 86.152C969.202 87.24 972.914 87.784 976.818 87.784Z"/>
</mask>
<g filter="url(#filter1_i_51_103)">
<path d="M95.336 29.8C103.464 29.8 109.512 31.208 113.48 34.024C117.448 36.84 119.432 41.96 119.432 49.384C119.432 55.592 117.512 60.776 113.672 64.936C109.832 69.032 103.688 71.08 95.24 71.08C92.488 71.08 90.312 71.048 88.712 70.984L88.52 87.88L95.528 88.648C95.528 91.464 94.792 94.248 93.32 97H69.608L68.744 91.72C72.072 90.376 74.76 89.448 76.808 88.936C76.808 88.744 76.52 71.816 75.944 38.152C74.92 37.896 72.264 37.064 67.976 35.656L68.744 29.8H95.336ZM93.224 61.96C97.512 61.896 100.84 60.712 103.208 58.408C105.576 56.104 106.76 53.128 106.76 49.48C106.76 45.832 105.704 43.24 103.592 41.704C101.544 40.104 98.312 39.304 93.896 39.304C92.168 39.304 90.536 39.336 89 39.4C88.872 49.512 88.808 57.064 88.808 62.056L93.224 61.96ZM169.06 39.4C169.06 46.696 168.996 52.968 168.868 58.216H178.66L179.62 51.592C182.884 51.592 186.052 52.392 189.124 53.992V73.192L182.788 73.48C181.252 71.176 180.356 69.16 180.1 67.432H168.772C168.644 76.392 168.58 83.144 168.58 87.688H184.996L187.108 79.336C191.076 79.336 194.084 79.528 196.132 79.912C197.092 83.56 197.572 86.888 197.572 89.896C197.572 92.84 197.476 95.208 197.284 97H149.668L148.804 91.72C152.964 90.12 155.652 89.192 156.868 88.936C156.804 85.16 156.74 79.848 156.676 73C156.42 57.64 156.196 46.024 156.004 38.152L148.036 35.656L148.804 29.8H195.94C196.132 31.528 196.228 33.704 196.228 36.328C196.228 38.888 195.748 42.472 194.788 47.08C192.804 47.72 189.796 48.04 185.764 48.04L183.556 39.4H169.06ZM254.164 29.8C265.364 29.8 272.788 31.4 276.436 34.6C279.764 37.48 281.427 41.928 281.427 47.944C281.427 57.288 276.564 63.656 266.836 67.048L280.66 87.88L288.916 88.744C288.916 91.496 288.18 94.248 286.708 97H272.788L253.972 68.296H250.9L250.612 87.88L257.62 88.648C257.62 91.272 256.884 94.056 255.411 97H231.7L230.836 91.72C234.676 90.184 237.364 89.256 238.9 88.936C238.772 81.064 238.612 71.56 238.42 60.424C238.228 49.288 238.1 41.832 238.036 38.056L230.068 35.656C230.132 34.184 230.42 32.232 230.932 29.8H254.164ZM261.748 40.072C259.764 39.624 257.108 39.4 253.78 39.4H251.092C250.964 48.232 250.9 54.856 250.9 59.272L255.604 59.176C259.38 59.112 262.356 58.344 264.532 56.872C266.772 55.336 267.892 52.392 267.892 48.04C267.892 43.688 265.844 41.032 261.748 40.072ZM343.349 87.784C350.773 87.784 354.485 84.616 354.485 78.28C354.485 75.592 353.077 73.32 350.261 71.464C348.213 70.056 345.397 68.552 341.813 66.952C338.293 65.288 335.637 63.976 333.845 63.016C332.117 62.056 330.101 60.712 327.797 58.984C323.381 55.592 321.173 51.368 321.173 46.312C321.173 41.256 323.125 37.064 327.029 33.736C330.997 30.344 336.341 28.648 343.061 28.648C349.781 28.648 356.949 30.792 364.565 35.08C364.565 39.688 364.085 44.68 363.125 50.056C361.077 50.696 358.037 51.016 354.005 51.016L351.221 39.592C348.853 38.888 346.261 38.536 343.445 38.536C340.629 38.536 338.453 39.144 336.917 40.36C335.381 41.576 334.613 43.4 334.613 45.832C334.613 48.2 335.797 50.344 338.165 52.264C340.597 54.12 343.509 55.848 346.901 57.448C350.293 58.984 352.629 60.072 353.909 60.712C355.189 61.352 356.821 62.312 358.805 63.592C360.789 64.872 362.293 66.088 363.317 67.24C365.941 70.312 367.253 73.736 367.253 77.512C367.253 84.168 365.045 89.288 360.629 92.872C356.213 96.456 350.453 98.248 343.349 98.248C339.573 98.248 335.413 97.608 330.869 96.328C326.389 94.984 322.581 93.288 319.445 91.24C319.573 87.336 320.085 82.056 320.981 75.4C323.541 74.888 326.613 74.632 330.197 74.632L332.213 86.152C335.733 87.24 339.445 87.784 343.349 87.784ZM426.774 87.976C437.398 87.976 442.71 79.816 442.71 63.496C442.71 47.176 437.398 39.016 426.774 39.016C422.166 39.016 418.134 39.72 414.678 41.128C411.734 47.272 410.262 54.408 410.262 62.536C410.262 70.6 411.478 76.872 413.91 81.352C416.342 85.768 420.63 87.976 426.774 87.976ZM426.774 28.648C437.462 28.648 444.982 31.464 449.334 37.096C453.686 42.664 455.862 51.208 455.862 62.728C455.862 69.96 454.934 76.136 453.078 81.256C451.222 86.376 448.086 90.472 443.67 93.544C439.254 96.616 433.622 98.152 426.774 98.152C416.342 98.152 408.758 95.24 404.022 89.416C399.35 83.592 397.014 75.112 397.014 63.976C397.014 40.424 406.934 28.648 426.774 28.648ZM550.348 38.344L550.06 97H537.772L506.092 45.352C505.836 64.104 505.676 78.248 505.612 87.784L512.236 88.648C512.236 91.272 511.5 94.056 510.028 97H486.7L485.836 91.72C489.42 90.248 492.108 89.32 493.9 88.936C493.9 88.744 493.612 71.816 493.036 38.152L485.068 35.656L485.836 29.8H510.796L538.732 79.912L537.292 38.152L529.324 35.656L530.092 29.8H555.052C554.988 29.8 554.988 29.864 555.052 29.992C555.18 30.12 555.308 30.408 555.436 30.856C555.628 31.24 555.82 31.72 556.012 32.296C556.396 33.32 556.652 35.016 556.78 37.384C553.516 37.896 551.372 38.216 550.348 38.344ZM632.324 30.856L632.42 31.816C632.42 34.44 632.004 36.68 631.172 38.536C630.34 39.176 629.028 39.688 627.236 40.072L643.268 87.496L652.388 88.648C652.388 91.272 651.652 94.056 650.18 97H626.852L625.988 91.72C628.676 90.696 630.436 90.024 631.268 89.704L627.428 78.856H605.828C603.908 84.552 602.884 87.528 602.756 87.784L609.38 88.648C609.38 89.992 609.124 91.56 608.612 93.352C608.1 95.08 607.62 96.296 607.172 97H583.844L582.98 91.72C585.86 90.504 588.452 89.608 590.756 89.032L606.884 39.688C602.596 39.048 599.364 38.216 597.188 37.192C597.188 35.336 597.476 33.704 598.052 32.296C599.396 31.848 602.532 31.336 607.46 30.76C612.452 30.12 617.188 29.8 621.668 29.8C626.212 29.8 629.764 30.152 632.324 30.856ZM619.94 57.256L617.156 44.584H616.196L613.124 57.832L608.612 69.832H624.644L619.94 57.256ZM708.934 98.248C700.23 98.248 693.286 95.304 688.102 89.416C682.918 83.528 680.326 74.824 680.326 63.304C680.326 51.784 682.566 43.144 687.046 37.384C691.59 31.56 698.918 28.648 709.03 28.648C713.318 28.648 717.414 29.224 721.318 30.376C725.286 31.528 727.974 32.52 729.382 33.352C730.79 34.12 731.91 34.824 732.742 35.464C732.742 39.56 732.23 44.104 731.206 49.096C729.542 49.864 727.878 50.248 726.214 50.248C724.614 50.248 723.238 50.184 722.086 50.056L720.07 40.072C717.254 39.304 714.502 38.92 711.814 38.92C708.038 38.92 703.334 39.688 697.702 41.224C694.886 46.856 693.478 53.704 693.478 61.768C693.478 79.432 698.662 88.264 709.03 88.264C714.214 88.264 718.342 87.4 721.414 85.672C721.542 82.344 721.67 77.224 721.798 70.312L713.734 67.816L714.502 61.96H737.734C738.502 63.368 739.078 65.896 739.462 69.544C737.286 69.992 734.95 70.312 732.454 70.504C732.838 78.76 733.03 85.864 733.03 91.816C731.174 93.032 727.814 94.408 722.95 95.944C718.086 97.48 713.414 98.248 708.934 98.248ZM790.154 39.4C790.154 46.696 790.09 52.968 789.962 58.216H799.754L800.714 51.592C803.978 51.592 807.146 52.392 810.218 53.992V73.192L803.882 73.48C802.346 71.176 801.45 69.16 801.194 67.432H789.866C789.738 76.392 789.674 83.144 789.674 87.688H806.09L808.202 79.336C812.17 79.336 815.178 79.528 817.226 79.912C818.186 83.56 818.666 86.888 818.666 89.896C818.666 92.84 818.57 95.208 818.378 97H770.762L769.898 91.72C774.058 90.12 776.746 89.192 777.962 88.936C777.898 85.16 777.834 79.848 777.77 73C777.514 57.64 777.29 46.024 777.098 38.152L769.13 35.656L769.898 29.8H817.034C817.226 31.528 817.322 33.704 817.322 36.328C817.322 38.888 816.842 42.472 815.882 47.08C813.898 47.72 810.89 48.04 806.858 48.04L804.65 39.4H790.154ZM916.441 38.344L916.153 97H903.865L872.185 45.352C871.929 64.104 871.769 78.248 871.705 87.784L878.329 88.648C878.329 91.272 877.593 94.056 876.121 97H852.793L851.929 91.72C855.513 90.248 858.201 89.32 859.993 88.936C859.993 88.744 859.705 71.816 859.129 38.152L851.161 35.656L851.929 29.8H876.889L904.825 79.912L903.385 38.152L895.417 35.656L896.185 29.8H921.145C921.081 29.8 921.081 29.864 921.145 29.992C921.273 30.12 921.401 30.408 921.529 30.856C921.721 31.24 921.913 31.72 922.105 32.296C922.489 33.32 922.745 35.016 922.873 37.384C919.609 37.896 917.465 38.216 916.441 38.344ZM976.818 87.784C984.242 87.784 987.954 84.616 987.954 78.28C987.954 75.592 986.546 73.32 983.73 71.464C981.682 70.056 978.866 68.552 975.282 66.952C971.762 65.288 969.106 63.976 967.314 63.016C965.586 62.056 963.57 60.712 961.266 58.984C956.85 55.592 954.642 51.368 954.642 46.312C954.642 41.256 956.594 37.064 960.498 33.736C964.466 30.344 969.81 28.648 976.53 28.648C983.25 28.648 990.418 30.792 998.034 35.08C998.034 39.688 997.554 44.68 996.594 50.056C994.546 50.696 991.506 51.016 987.474 51.016L984.69 39.592C982.322 38.888 979.73 38.536 976.914 38.536C974.098 38.536 971.922 39.144 970.386 40.36C968.85 41.576 968.082 43.4 968.082 45.832C968.082 48.2 969.266 50.344 971.634 52.264C974.066 54.12 976.978 55.848 980.37 57.448C983.762 58.984 986.098 60.072 987.378 60.712C988.658 61.352 990.29 62.312 992.274 63.592C994.258 64.872 995.762 66.088 996.786 67.24C999.41 70.312 1000.72 73.736 1000.72 77.512C1000.72 84.168 998.514 89.288 994.098 92.872C989.682 96.456 983.922 98.248 976.818 98.248C973.042 98.248 968.882 97.608 964.338 96.328C959.858 94.984 956.05 93.288 952.914 91.24C953.042 87.336 953.554 82.056 954.45 75.4C957.01 74.888 960.082 74.632 963.666 74.632L965.682 86.152C969.202 87.24 972.914 87.784 976.818 87.784Z" fill="white"/>
</g>
<path d="M113.48 34.024L112.901 34.8395L112.901 34.8395L113.48 34.024ZM113.672 64.936L114.402 65.62L114.407 65.6143L113.672 64.936ZM88.712 70.984L88.752 69.9848L87.7238 69.9437L87.7121 70.9726L88.712 70.984ZM88.52 87.88L87.5201 87.8686L87.5098 88.7753L88.4111 88.874L88.52 87.88ZM95.528 88.648H96.528V87.7516L95.6369 87.654L95.528 88.648ZM93.32 97V98H93.9192L94.2018 97.4717L93.32 97ZM69.608 97L68.6211 97.1615L68.7583 98H69.608V97ZM68.744 91.72L68.3695 90.7928L67.628 91.0922L67.7571 91.8815L68.744 91.72ZM76.808 88.936L77.0505 89.9061L77.808 89.7168V88.936H76.808ZM75.944 38.152L76.9439 38.1349L76.9307 37.3679L76.1865 37.1819L75.944 38.152ZM67.976 35.656L66.9845 35.526L66.8767 36.3476L67.664 36.6061L67.976 35.656ZM68.744 29.8V28.8H67.8666L67.7525 29.67L68.744 29.8ZM93.224 61.96L93.2091 60.9601L93.2023 60.9602L93.224 61.96ZM103.208 58.408L103.905 59.1247L103.905 59.1247L103.208 58.408ZM103.592 41.704L102.976 42.492L102.99 42.5026L103.004 42.5127L103.592 41.704ZM89 39.4L88.9584 38.4009L88.0121 38.4403L88.0001 39.3873L89 39.4ZM88.808 62.056H87.808V63.078L88.8297 63.0558L88.808 62.056ZM95.336 30.8C103.382 30.8 109.182 32.2 112.901 34.8395L114.059 33.2085C109.842 30.216 103.546 28.8 95.336 28.8V30.8ZM112.901 34.8395C116.488 37.3848 118.432 42.1069 118.432 49.384H120.432C120.432 41.8131 118.408 36.2952 114.059 33.2085L112.901 34.8395ZM118.432 49.384C118.432 55.367 116.59 60.3009 112.937 64.2577L114.407 65.6143C118.434 61.2511 120.432 55.817 120.432 49.384H118.432ZM112.942 64.2521C109.369 68.0635 103.551 70.08 95.24 70.08V72.08C103.825 72.08 110.295 70.0005 114.402 65.6199L112.942 64.2521ZM95.24 70.08C92.4933 70.08 90.3325 70.048 88.752 69.9848L88.672 71.9832C90.2915 72.048 92.4827 72.08 95.24 72.08V70.08ZM87.7121 70.9726L87.5201 87.8686L89.5199 87.8914L89.7119 70.9954L87.7121 70.9726ZM88.4111 88.874L95.4191 89.642L95.6369 87.654L88.6289 86.886L88.4111 88.874ZM94.528 88.648C94.528 91.2822 93.8412 93.9054 92.4382 96.5283L94.2018 97.4717C95.7428 94.5906 96.528 91.6458 96.528 88.648H94.528ZM93.32 96H69.608V98H93.32V96ZM70.5949 96.8385L69.7309 91.5585L67.7571 91.8815L68.6211 97.1615L70.5949 96.8385ZM69.1185 92.6472C72.4288 91.3104 75.0678 90.4018 77.0505 89.9061L76.5655 87.9659C74.4522 88.4942 71.7152 89.4416 68.3695 90.7928L69.1185 92.6472ZM77.808 88.936C77.808 88.7326 77.5197 71.7877 76.9439 38.1349L74.9441 38.1691C75.2321 55.0011 75.4481 67.6491 75.5921 76.113C75.6641 80.345 75.7181 83.5309 75.7541 85.6708C75.7721 86.7408 75.7856 87.5491 75.7946 88.096C75.7991 88.3694 75.8025 88.5772 75.8047 88.7196C75.8059 88.7909 75.8067 88.8454 75.8073 88.8835C75.8079 88.927 75.808 88.9393 75.808 88.936H77.808ZM76.1865 37.1819C75.206 36.9367 72.5904 36.1186 68.288 34.7059L67.664 36.6061C71.9376 38.0094 74.6341 38.8553 75.7015 39.1221L76.1865 37.1819ZM68.9675 35.786L69.7355 29.93L67.7525 29.67L66.9845 35.526L68.9675 35.786ZM68.744 30.8H95.336V28.8H68.744V30.8ZM93.2389 62.9599C97.7036 62.8933 101.305 61.6549 103.905 59.1247L102.511 57.6913C100.375 59.7691 97.3204 60.8987 93.2091 60.9601L93.2389 62.9599ZM103.905 59.1247C106.488 56.6119 107.76 53.367 107.76 49.48H105.76C105.76 52.889 104.664 55.5961 102.511 57.6913L103.905 59.1247ZM107.76 49.48C107.76 45.6482 106.644 42.6873 104.18 40.8953L103.004 42.5127C104.764 43.7927 105.76 46.0158 105.76 49.48H107.76ZM104.208 40.916C101.898 39.1115 98.3937 38.304 93.896 38.304V40.304C98.2304 40.304 101.19 41.0965 102.976 42.492L104.208 40.916ZM93.896 38.304C92.1558 38.304 90.5098 38.3362 88.9584 38.4009L89.0416 40.3991C90.5622 40.3358 92.1802 40.304 93.896 40.304V38.304ZM88.0001 39.3873C87.8721 49.5002 87.808 57.0574 87.808 62.056H89.808C89.808 57.0706 89.8719 49.5238 89.9999 39.4127L88.0001 39.3873ZM88.8297 63.0558L93.2457 62.9598L93.2023 60.9602L88.7863 61.0562L88.8297 63.0558ZM169.06 39.4V38.4H168.06V39.4H169.06ZM168.868 58.216L167.869 58.1916L167.844 59.216H168.868V58.216ZM178.66 58.216V59.216H179.526L179.65 58.3594L178.66 58.216ZM179.62 51.592V50.592H178.755L178.631 51.4486L179.62 51.592ZM189.124 53.992H190.124V53.3853L189.586 53.1051L189.124 53.992ZM189.124 73.192L189.17 74.191L190.124 74.1476V73.192H189.124ZM182.788 73.48L181.956 74.0347L182.269 74.5046L182.834 74.479L182.788 73.48ZM180.1 67.432L181.089 67.2854L180.963 66.432H180.1V67.432ZM168.772 67.432V66.432H167.786L167.772 67.4177L168.772 67.432ZM168.58 87.688H167.58V88.688H168.58V87.688ZM184.996 87.688V88.688H185.775L185.966 87.9332L184.996 87.688ZM187.108 79.336V78.336H186.33L186.139 79.0908L187.108 79.336ZM196.132 79.912L197.099 79.6575L196.938 79.0457L196.317 78.9291L196.132 79.912ZM197.284 97V98H198.183L198.279 97.1065L197.284 97ZM149.668 97L148.681 97.1615L148.819 98H149.668V97ZM148.804 91.72L148.445 90.7867L147.686 91.0787L147.817 91.8815L148.804 91.72ZM156.868 88.936L157.074 89.9145L157.882 89.7445L157.868 88.9191L156.868 88.936ZM156.676 73L157.676 72.9907L157.676 72.9833L156.676 73ZM156.004 38.152L157.004 38.1276L156.986 37.4118L156.303 37.1977L156.004 38.152ZM148.036 35.656L147.045 35.526L146.935 36.3591L147.737 36.6103L148.036 35.656ZM148.804 29.8V28.8H147.927L147.813 29.67L148.804 29.8ZM195.94 29.8L196.934 29.6896L196.835 28.8H195.94V29.8ZM194.788 47.08L195.095 48.0317L195.649 47.8532L195.767 47.284L194.788 47.08ZM185.764 48.04L184.795 48.2876L184.988 49.04H185.764V48.04ZM183.556 39.4L184.525 39.1524L184.333 38.4H183.556V39.4ZM168.06 39.4C168.06 46.6907 167.996 52.9542 167.869 58.1916L169.868 58.2404C169.996 52.9818 170.06 46.7013 170.06 39.4H168.06ZM168.868 59.216H178.66V57.216H168.868V59.216ZM179.65 58.3594L180.61 51.7354L178.631 51.4486L177.671 58.0726L179.65 58.3594ZM179.62 52.592C182.714 52.592 185.724 53.3485 188.662 54.8789L189.586 53.1051C186.381 51.4355 183.055 50.592 179.62 50.592V52.592ZM188.124 53.992V73.192H190.124V53.992H188.124ZM189.079 72.193L182.743 72.481L182.834 74.479L189.17 74.191L189.079 72.193ZM183.62 72.9253C182.123 70.68 181.315 68.8067 181.089 67.2854L179.111 67.5785C179.398 69.5133 180.381 71.672 181.956 74.0347L183.62 72.9253ZM180.1 66.432H168.772V68.432H180.1V66.432ZM167.772 67.4177C167.644 76.3789 167.58 83.1366 167.58 87.688H169.58C169.58 83.1514 169.644 76.4051 169.772 67.4463L167.772 67.4177ZM168.58 88.688H184.996V86.688H168.58V88.688ZM185.966 87.9332L188.078 79.5812L186.139 79.0908L184.027 87.4428L185.966 87.9332ZM187.108 80.336C191.059 80.336 193.993 80.5283 195.948 80.8949L196.317 78.9291C194.176 78.5277 191.093 78.336 187.108 78.336V80.336ZM195.165 80.1665C196.109 83.7515 196.572 86.9924 196.572 89.896H198.572C198.572 86.7836 198.076 83.3685 197.099 79.6575L195.165 80.1665ZM196.572 89.896C196.572 92.8236 196.477 95.1519 196.29 96.8935L198.279 97.1065C198.476 95.2641 198.572 92.8564 198.572 89.896H196.572ZM197.284 96H149.668V98H197.284V96ZM150.655 96.8385L149.791 91.5585L147.817 91.8815L148.681 97.1615L150.655 96.8385ZM149.163 92.6533C153.346 91.0447 155.953 90.1507 157.074 89.9145L156.662 87.9574C155.352 88.2333 152.583 89.1953 148.445 90.7867L149.163 92.6533ZM157.868 88.9191C157.804 85.1468 157.74 79.8378 157.676 72.9907L155.676 73.0093C155.74 79.8582 155.804 85.1732 155.868 88.9529L157.868 88.9191ZM157.676 72.9833C157.42 57.6227 157.196 46.0036 157.004 38.1276L155.005 38.1764C155.196 46.0444 155.42 57.6573 155.676 73.0167L157.676 72.9833ZM156.303 37.1977L148.335 34.7017L147.737 36.6103L155.705 39.1063L156.303 37.1977ZM149.028 35.786L149.796 29.93L147.813 29.67L147.045 35.526L149.028 35.786ZM148.804 30.8H195.94V28.8H148.804V30.8ZM194.946 29.9104C195.133 31.5884 195.228 33.7244 195.228 36.328H197.228C197.228 33.6836 197.132 31.4676 196.934 29.6896L194.946 29.9104ZM195.228 36.328C195.228 38.7847 194.765 42.2893 193.809 46.876L195.767 47.284C196.732 42.6547 197.228 38.9913 197.228 36.328H195.228ZM194.481 46.1283C192.65 46.7189 189.77 47.04 185.764 47.04V49.04C189.822 49.04 192.958 48.7211 195.095 48.0317L194.481 46.1283ZM186.733 47.7924L184.525 39.1524L182.587 39.6476L184.795 48.2876L186.733 47.7924ZM183.556 38.4H169.06V40.4H183.556V38.4ZM276.436 34.6L275.776 35.3518L275.781 35.3562L276.436 34.6ZM266.836 67.048L266.506 66.1038L265.29 66.5278L266.002 67.6009L266.836 67.048ZM280.66 87.88L279.826 88.4329L280.087 88.8255L280.555 88.8746L280.66 87.88ZM288.916 88.744H289.916V87.8432L289.02 87.7494L288.916 88.744ZM286.708 97V98H287.307L287.589 97.4717L286.708 97ZM272.788 97L271.951 97.5482L272.247 98H272.788V97ZM253.972 68.296L254.808 67.7478L254.512 67.296H253.972V68.296ZM250.9 68.296V67.296H249.914L249.9 68.2813L250.9 68.296ZM250.612 87.88L249.612 87.8653L249.598 88.7749L250.503 88.874L250.612 87.88ZM257.62 88.648H258.62V87.7516L257.728 87.654L257.62 88.648ZM255.411 97V98H256.03L256.306 97.4472L255.411 97ZM231.7 97L230.713 97.1615L230.85 98H231.7V97ZM230.836 91.72L230.464 90.7915L229.719 91.0896L229.849 91.8815L230.836 91.72ZM238.9 88.936L239.103 89.915L239.913 89.7464L239.899 88.9197L238.9 88.936ZM238.036 38.056L239.035 38.0391L239.023 37.3091L238.324 37.0985L238.036 38.056ZM230.068 35.656L229.068 35.6126L229.035 36.3893L229.779 36.6135L230.068 35.656ZM230.932 29.8V28.8H230.12L229.953 29.594L230.932 29.8ZM261.748 40.072L261.976 39.0983L261.968 39.0966L261.748 40.072ZM251.092 39.4V38.4H250.106L250.092 39.3855L251.092 39.4ZM250.9 59.272H249.9V60.2926L250.92 60.2718L250.9 59.272ZM255.604 59.176L255.587 58.1761L255.583 58.1762L255.604 59.176ZM264.532 56.872L265.092 57.7003L265.097 57.6967L264.532 56.872ZM254.164 30.8C259.723 30.8 264.302 31.1977 267.921 31.9776C271.552 32.7601 274.133 33.9101 275.776 35.3518L277.095 33.8482C275.09 32.0899 272.135 30.8399 268.342 30.0224C264.537 29.2023 259.804 28.8 254.164 28.8V30.8ZM275.781 35.3562C278.817 37.9837 280.427 42.1066 280.427 47.944H282.427C282.427 41.7494 280.71 36.9763 277.09 33.8438L275.781 35.3562ZM280.427 47.944C280.427 52.4345 279.262 56.1392 276.985 59.121C274.701 62.1106 271.238 64.4539 266.506 66.1038L267.165 67.9922C272.161 66.2501 275.994 63.7134 278.574 60.335C281.161 56.9488 282.427 52.7975 282.427 47.944H280.427ZM266.002 67.6009L279.826 88.4329L281.493 87.3271L267.669 66.4951L266.002 67.6009ZM280.555 88.8746L288.811 89.7386L289.02 87.7494L280.764 86.8854L280.555 88.8746ZM287.916 88.744C287.916 91.3105 287.231 93.9018 285.826 96.5283L287.589 97.4717C289.128 94.5942 289.916 91.6815 289.916 88.744H287.916ZM286.708 96H272.788V98H286.708V96ZM273.624 96.4518L254.808 67.7478L253.135 68.8442L271.951 97.5482L273.624 96.4518ZM253.972 67.296H250.9V69.296H253.972V67.296ZM249.9 68.2813L249.612 87.8653L251.611 87.8947L251.899 68.3107L249.9 68.2813ZM250.503 88.874L257.511 89.642L257.728 87.654L250.72 86.886L250.503 88.874ZM256.62 88.648C256.62 91.0823 255.937 93.7132 254.517 96.5528L256.306 97.4472C257.83 94.3988 258.62 91.4617 258.62 88.648H256.62ZM255.411 96H231.7V98H255.411V96ZM232.686 96.8385L231.822 91.5585L229.849 91.8815L230.713 97.1615L232.686 96.8385ZM231.207 92.6485C235.053 91.1101 237.665 90.2147 239.103 89.915L238.696 87.957C237.062 88.2973 234.298 89.2579 230.464 90.7915L231.207 92.6485ZM239.899 88.9197C239.771 81.0473 239.611 71.543 239.419 60.4068L237.42 60.4412C237.612 71.577 237.772 81.0807 237.9 88.9523L239.899 88.9197ZM239.419 60.4068C239.227 49.2707 239.099 41.8149 239.035 38.0391L237.036 38.0729C237.1 41.8491 237.228 49.3053 237.42 60.4412L239.419 60.4068ZM238.324 37.0985L230.356 34.6985L229.779 36.6135L237.747 39.0135L238.324 37.0985ZM231.067 35.6994C231.127 34.3066 231.403 32.4155 231.91 30.006L229.953 29.594C229.436 32.0485 229.136 34.0614 229.068 35.6126L231.067 35.6994ZM230.932 30.8H254.164V28.8H230.932V30.8ZM261.968 39.0966C259.881 38.6252 257.141 38.4 253.78 38.4V40.4C257.074 40.4 259.646 40.6227 261.527 41.0474L261.968 39.0966ZM253.78 38.4H251.092V40.4H253.78V38.4ZM250.092 39.3855C249.964 48.2186 249.9 54.8485 249.9 59.272H251.9C251.9 54.8635 251.963 48.2454 252.091 39.4145L250.092 39.3855ZM250.92 60.2718L255.624 60.1758L255.583 58.1762L250.879 58.2722L250.92 60.2718ZM255.62 60.1759C259.51 60.1099 262.699 59.3188 265.092 57.7003L263.971 56.0437C262.012 57.3692 259.249 58.1141 255.587 58.1761L255.62 60.1759ZM265.097 57.6967C267.742 55.883 268.892 52.5183 268.892 48.04H266.892C266.892 52.2657 265.801 54.789 263.966 56.0473L265.097 57.6967ZM268.892 48.04C268.892 45.7092 268.342 43.7223 267.147 42.1734C265.95 40.6207 264.189 39.6172 261.976 39.0984L261.519 41.0456C263.402 41.4868 264.713 42.2913 265.564 43.3946C266.417 44.5017 266.892 46.0188 266.892 48.04H268.892ZM350.261 71.464L349.694 72.288L349.703 72.2936L349.711 72.299L350.261 71.464ZM341.813 66.952L341.386 67.8561L341.395 67.8607L341.405 67.8651L341.813 66.952ZM333.845 63.016L333.359 63.8902L333.366 63.8939L333.373 63.8975L333.845 63.016ZM327.797 58.984L327.188 59.7771L327.197 59.784L327.797 58.984ZM327.029 33.736L327.678 34.497L327.679 34.4961L327.029 33.736ZM364.565 35.08H365.565V34.4954L365.056 34.2086L364.565 35.08ZM363.125 50.056L363.423 51.0105L364.003 50.8294L364.109 50.2318L363.125 50.056ZM354.005 51.016L353.033 51.2528L353.219 52.016H354.005V51.016ZM351.221 39.592L352.193 39.3552L352.057 38.7971L351.506 38.6335L351.221 39.592ZM338.165 52.264L337.535 53.0408L337.547 53.05L337.558 53.0589L338.165 52.264ZM346.901 57.448L346.474 58.3524L346.481 58.3557L346.488 58.359L346.901 57.448ZM358.805 63.592L358.263 64.4323L358.263 64.4323L358.805 63.592ZM363.317 67.24L364.077 66.5905L364.071 66.583L364.064 66.5756L363.317 67.24ZM360.629 92.872L361.259 93.6485L361.259 93.6485L360.629 92.872ZM330.869 96.328L330.582 97.2858L330.59 97.2883L330.598 97.2905L330.869 96.328ZM319.445 91.24L318.446 91.2072L318.427 91.7696L318.898 92.0773L319.445 91.24ZM320.981 75.4L320.785 74.4194L320.085 74.5594L319.99 75.2666L320.981 75.4ZM330.197 74.632L331.182 74.4596L331.037 73.632H330.197V74.632ZM332.213 86.152L331.228 86.3244L331.333 86.9268L331.918 87.1074L332.213 86.152ZM343.349 88.784C347.18 88.784 350.239 87.97 352.35 86.1686C354.491 84.3414 355.485 81.6472 355.485 78.28H353.485C353.485 81.2488 352.623 83.3066 351.052 84.6474C349.451 86.014 346.942 86.784 343.349 86.784V88.784ZM355.485 78.28C355.485 75.169 353.827 72.6166 350.811 70.629L349.711 72.299C352.327 74.0234 353.485 76.015 353.485 78.28H355.485ZM350.828 70.64C348.709 69.1837 345.832 67.6512 342.221 66.0389L341.405 67.8651C344.962 69.4528 347.717 70.9283 349.694 72.288L350.828 70.64ZM342.24 66.0479C338.725 64.3859 336.087 63.0824 334.317 62.1345L333.373 63.8975C335.187 64.8696 337.861 66.1901 341.386 67.8561L342.24 66.0479ZM334.331 62.1418C332.656 61.2114 330.679 59.8958 328.397 58.184L327.197 59.784C329.523 61.5282 331.578 62.9006 333.359 63.8902L334.331 62.1418ZM328.406 58.1909C324.208 54.9662 322.173 51.0228 322.173 46.312H320.173C320.173 51.7132 322.554 56.2178 327.188 59.777L328.406 58.1909ZM322.173 46.312C322.173 41.5538 323.993 37.6382 327.678 34.497L326.38 32.975C322.257 36.4898 320.173 40.9582 320.173 46.312H322.173ZM327.679 34.4961C331.419 31.299 336.509 29.648 343.061 29.648V27.648C336.173 27.648 330.575 29.389 326.379 32.9759L327.679 34.4961ZM343.061 29.648C349.565 29.648 356.564 31.723 364.074 35.9514L365.056 34.2086C357.334 29.861 349.997 27.648 343.061 27.648V29.648ZM363.565 35.08C363.565 39.6194 363.092 44.5519 362.141 49.8802L364.109 50.2318C365.078 44.8081 365.565 39.7566 365.565 35.08H363.565ZM362.827 49.1015C360.926 49.6955 358.008 50.016 354.005 50.016V52.016C358.066 52.016 361.228 51.6965 363.423 51.0105L362.827 49.1015ZM354.977 50.7792L352.193 39.3552L350.249 39.8288L353.033 51.2528L354.977 50.7792ZM351.506 38.6335C349.034 37.8984 346.344 37.536 343.445 37.536V39.536C346.178 39.536 348.672 39.8776 350.936 40.5505L351.506 38.6335ZM343.445 37.536C340.5 37.536 338.072 38.1704 336.296 39.576L337.538 41.144C338.834 40.1176 340.758 39.536 343.445 39.536V37.536ZM336.296 39.576C334.464 41.0269 333.613 43.1756 333.613 45.832H335.613C335.613 43.6244 336.298 42.1251 337.538 41.144L336.296 39.576ZM333.613 45.832C333.613 48.5842 335.006 50.99 337.535 53.0408L338.795 51.4872C336.588 49.698 335.613 47.8158 335.613 45.832H333.613ZM337.558 53.0589C340.057 54.966 343.032 56.7288 346.474 58.3524L347.328 56.5436C343.986 54.9672 341.137 53.274 338.772 51.469L337.558 53.0589ZM346.488 58.359C349.882 59.8954 352.201 60.9761 353.462 61.6064L354.356 59.8176C353.057 59.1679 350.704 58.0726 347.314 56.537L346.488 58.359ZM353.462 61.6064C354.695 62.2231 356.293 63.1612 358.263 64.4323L359.347 62.7517C357.349 61.4628 355.683 60.4809 354.356 59.8176L353.462 61.6064ZM358.263 64.4323C360.207 65.6863 361.629 66.8458 362.57 67.9044L364.064 66.5756C362.957 65.3302 361.371 64.0577 359.347 62.7517L358.263 64.4323ZM362.557 67.8895C365.038 70.7941 366.253 73.9915 366.253 77.512H368.253C368.253 73.4805 366.844 69.8299 364.077 66.5905L362.557 67.8895ZM366.253 77.512C366.253 83.924 364.14 88.7348 359.999 92.0955L361.259 93.6485C365.95 89.8412 368.253 84.412 368.253 77.512H366.253ZM359.999 92.0955C355.802 95.5019 350.282 97.248 343.349 97.248V99.248C350.624 99.248 356.624 97.4101 361.259 93.6485L359.999 92.0955ZM343.349 97.248C339.684 97.248 335.617 96.6265 331.14 95.3655L330.598 97.2905C335.209 98.5895 339.462 99.248 343.349 99.248V97.248ZM331.156 95.3702C326.746 94.0472 323.03 92.3872 319.992 90.4027L318.898 92.0773C322.132 94.1888 326.032 95.9208 330.582 97.2858L331.156 95.3702ZM320.444 91.2728C320.571 87.4179 321.078 82.1761 321.972 75.5334L319.99 75.2666C319.092 81.9359 318.575 87.2541 318.446 91.2072L320.444 91.2728ZM321.177 76.3806C323.654 75.8853 326.656 75.632 330.197 75.632V73.632C326.57 73.632 323.428 73.8907 320.785 74.4194L321.177 76.3806ZM329.212 74.8044L331.228 86.3244L333.198 85.9796L331.182 74.4596L329.212 74.8044ZM331.918 87.1074C335.539 88.2267 339.351 88.784 343.349 88.784V86.784C339.539 86.784 335.927 86.2533 332.508 85.1966L331.918 87.1074ZM414.678 41.128L414.3 40.2019L413.943 40.3476L413.776 40.6959L414.678 41.128ZM413.91 81.352L413.031 81.8291L413.034 81.8344L413.91 81.352ZM449.334 37.096L448.542 37.7075L448.546 37.7118L449.334 37.096ZM453.078 81.256L454.018 81.5968L454.018 81.5968L453.078 81.256ZM443.67 93.544L444.241 94.3649L444.241 94.3649L443.67 93.544ZM404.022 89.416L403.242 90.0418L403.246 90.0469L404.022 89.416ZM426.774 88.976C432.387 88.976 436.704 86.7944 439.564 82.4016C442.375 78.0831 443.71 71.7326 443.71 63.496H441.71C441.71 71.5794 440.388 77.4689 437.888 81.3104C435.435 85.0776 431.784 86.976 426.774 86.976V88.976ZM443.71 63.496C443.71 55.2594 442.375 48.9089 439.564 44.5904C436.704 40.1976 432.387 38.016 426.774 38.016V40.016C431.784 40.016 435.435 41.9144 437.888 45.6816C440.388 49.5231 441.71 55.4126 441.71 63.496H443.71ZM426.774 38.016C422.066 38.016 417.901 38.7351 414.3 40.2019L415.055 42.0541C418.367 40.7049 422.266 40.016 426.774 40.016V38.016ZM413.776 40.6959C410.756 46.9983 409.262 54.287 409.262 62.536H411.262C411.262 54.529 412.711 47.5457 415.58 41.5601L413.776 40.6959ZM409.262 62.536C409.262 70.6792 410.486 77.1413 413.031 81.8291L414.789 80.8749C412.469 76.6027 411.262 70.5208 411.262 62.536H409.262ZM413.034 81.8344C415.683 86.6447 420.36 88.976 426.774 88.976V86.976C420.9 86.976 417.001 84.8913 414.786 80.8696L413.034 81.8344ZM426.774 29.648C437.312 29.648 444.46 32.4242 448.542 37.7074L450.125 36.4846C445.504 30.5038 437.611 27.648 426.774 27.648V29.648ZM448.546 37.7118C452.698 43.0235 454.862 51.3013 454.862 62.728H456.862C456.862 51.1147 454.674 42.3045 450.122 36.4802L448.546 37.7118ZM454.862 62.728C454.862 69.8796 453.943 75.9337 452.138 80.9152L454.018 81.5968C455.924 76.3383 456.862 70.0404 456.862 62.728H454.862ZM452.138 80.9152C450.351 85.8434 447.343 89.7707 443.099 92.7231L444.241 94.3649C448.829 91.1733 452.092 86.9086 454.018 81.5968L452.138 80.9152ZM443.099 92.7231C438.891 95.6503 433.473 97.152 426.774 97.152V99.152C433.77 99.152 439.617 97.5817 444.241 94.3649L443.099 92.7231ZM426.774 97.152C416.519 97.152 409.278 94.2942 404.798 88.7851L403.246 90.0469C408.238 96.1858 416.164 99.152 426.774 99.152V97.152ZM404.802 88.7903C400.327 83.2125 398.014 74.9919 398.014 63.976H396.014C396.014 75.2321 398.372 83.9715 403.242 90.0417L404.802 88.7903ZM398.014 63.976C398.014 52.3163 400.473 43.7579 405.219 38.1243C409.937 32.5235 417.057 29.648 426.774 29.648V27.648C416.65 27.648 408.891 30.6605 403.689 36.8357C398.515 42.9781 396.014 52.0837 396.014 63.976H398.014ZM550.348 38.344L550.223 37.3517L549.352 37.4607L549.348 38.3391L550.348 38.344ZM550.06 97V98H551.055L551.059 97.0049L550.06 97ZM537.772 97L536.919 97.5229L537.212 98H537.772V97ZM506.092 45.352L506.944 44.8291L505.139 41.8861L505.092 45.3383L506.092 45.352ZM505.612 87.784L504.612 87.7773L504.606 88.6613L505.482 88.7756L505.612 87.784ZM512.236 88.648H513.236V87.77L512.365 87.6564L512.236 88.648ZM510.028 97V98H510.646L510.922 97.4472L510.028 97ZM486.7 97L485.713 97.1615L485.85 98H486.7V97ZM485.836 91.72L485.456 90.795L484.72 91.097L484.849 91.8815L485.836 91.72ZM493.9 88.936L494.109 89.9138L494.9 89.7444V88.936H493.9ZM493.036 38.152L494.035 38.1349L494.023 37.4134L493.334 37.1977L493.036 38.152ZM485.068 35.656L484.076 35.526L483.967 36.3591L484.769 36.6103L485.068 35.656ZM485.836 29.8V28.8H484.958L484.844 29.67L485.836 29.8ZM510.796 29.8L511.669 29.3131L511.383 28.8H510.796V29.8ZM538.732 79.912L537.858 80.3989L539.731 79.8775L538.732 79.912ZM537.292 38.152L538.291 38.1175L538.266 37.4095L537.59 37.1977L537.292 38.152ZM529.324 35.656L528.332 35.526L528.223 36.3591L529.025 36.6103L529.324 35.656ZM530.092 29.8V28.8H529.214L529.1 29.67L530.092 29.8ZM555.052 29.992L554.157 30.4392L554.23 30.5844L554.344 30.6991L555.052 29.992ZM555.436 30.856L554.474 31.1307L554.5 31.2201L554.541 31.3032L555.436 30.856ZM556.012 32.296L555.063 32.6122L555.069 32.6298L555.075 32.6471L556.012 32.296ZM556.78 37.384L556.934 38.3719L557.827 38.2319L557.778 37.33L556.78 37.384ZM549.348 38.3391L549.06 96.9951L551.059 97.0049L551.347 38.3489L549.348 38.3391ZM550.06 96H537.772V98H550.06V96ZM538.624 96.4771L506.944 44.8291L505.239 45.8749L536.919 97.5229L538.624 96.4771ZM505.092 45.3383C504.836 64.0909 504.676 78.2377 504.612 87.7773L506.611 87.7907C506.675 78.2583 506.835 64.1171 507.091 45.3656L505.092 45.3383ZM505.482 88.7756L512.106 89.6396L512.365 87.6564L505.741 86.7924L505.482 88.7756ZM511.236 88.648C511.236 91.0823 510.553 93.7132 509.133 96.5528L510.922 97.4472C512.446 94.3988 513.236 91.4617 513.236 88.648H511.236ZM510.028 96H486.7V98H510.028V96ZM487.686 96.8385L486.822 91.5585L484.849 91.8815L485.713 97.1615L487.686 96.8385ZM486.215 92.645C489.791 91.1765 492.41 90.2779 494.109 89.9138L493.69 87.9582C491.805 88.3621 489.048 89.3195 485.456 90.795L486.215 92.645ZM494.9 88.936C494.9 88.7326 494.611 71.7877 494.035 38.1349L492.036 38.1691C492.324 55.0011 492.54 67.6491 492.684 76.113C492.756 80.345 492.81 83.5309 492.846 85.6708C492.864 86.7408 492.877 87.5491 492.886 88.096C492.891 88.3694 492.894 88.5772 492.896 88.7196C492.897 88.7909 492.898 88.8454 492.899 88.8835C492.899 88.927 492.9 88.9393 492.9 88.936H494.9ZM493.334 37.1977L485.366 34.7017L484.769 36.6103L492.737 39.1063L493.334 37.1977ZM486.059 35.786L486.827 29.93L484.844 29.67L484.076 35.526L486.059 35.786ZM485.836 30.8H510.796V28.8H485.836V30.8ZM509.922 30.2869L537.858 80.3989L539.605 79.4251L511.669 29.3131L509.922 30.2869ZM539.731 79.8775L538.291 38.1175L536.292 38.1865L537.732 79.9465L539.731 79.8775ZM537.59 37.1977L529.622 34.7017L529.025 36.6103L536.993 39.1063L537.59 37.1977ZM530.315 35.786L531.083 29.93L529.1 29.67L528.332 35.526L530.315 35.786ZM530.092 30.8H555.052V28.8H530.092V30.8ZM555.052 28.8C554.881 28.8 554.57 28.8432 554.308 29.1049C554.047 29.3666 554.004 29.6778 554.004 29.848C554.004 30.1348 554.121 30.3674 554.157 30.4392L555.946 29.5448C555.943 29.5393 555.953 29.5567 555.964 29.5918C555.973 29.6177 556.004 29.7127 556.004 29.848C556.004 29.9861 555.968 30.2734 555.723 30.5191C555.477 30.7648 555.19 30.8 555.052 30.8V28.8ZM554.344 30.6991C554.306 30.6606 554.292 30.6351 554.296 30.6421C554.299 30.6472 554.311 30.6678 554.33 30.7101C554.368 30.7966 554.417 30.9325 554.474 31.1307L556.397 30.5813C556.326 30.3315 556.247 30.0994 556.157 29.8979C556.075 29.7122 555.951 29.4773 555.759 29.2849L554.344 30.6991ZM554.541 31.3032C554.705 31.6316 554.88 32.0643 555.063 32.6122L556.96 31.9798C556.759 31.3757 556.55 30.8484 556.33 30.4088L554.541 31.3032ZM555.075 32.6471C555.402 33.5176 555.654 35.0814 555.781 37.438L557.778 37.33C557.649 34.9506 557.389 33.1224 556.948 31.9449L555.075 32.6471ZM556.625 36.3961C553.357 36.9086 551.229 37.226 550.223 37.3517L550.472 39.3363C551.514 39.206 553.674 38.8834 556.934 38.3719L556.625 36.3961ZM632.324 30.856L633.319 30.7565L633.251 30.0737L632.589 29.8918L632.324 30.856ZM632.42 31.816H633.42V31.7661L633.415 31.7165L632.42 31.816ZM631.172 38.536L631.782 39.3286L631.981 39.175L632.085 38.9451L631.172 38.536ZM627.236 40.072L627.026 39.0942L625.929 39.3293L626.289 40.3922L627.236 40.072ZM643.268 87.496L642.321 87.8163L642.521 88.4096L643.143 88.4881L643.268 87.496ZM652.388 88.648H653.388V87.7664L652.513 87.6559L652.388 88.648ZM650.18 97V98H650.798L651.074 97.4472L650.18 97ZM626.852 97L625.865 97.1615L626.002 98H626.852V97ZM625.988 91.72L625.632 90.7855L624.869 91.0761L625.001 91.8815L625.988 91.72ZM631.268 89.704L631.627 90.6373L632.536 90.2879L632.211 89.3703L631.268 89.704ZM627.428 78.856L628.371 78.5223L628.135 77.856H627.428V78.856ZM605.828 78.856V77.856H605.11L604.88 78.5366L605.828 78.856ZM602.756 87.784L601.862 87.3368L601.233 88.5938L602.627 88.7756L602.756 87.784ZM609.38 88.648H610.38V87.77L609.509 87.6564L609.38 88.648ZM608.612 93.352L609.571 93.6361L609.574 93.6267L608.612 93.352ZM607.172 97V98H607.721L608.016 97.5369L607.172 97ZM583.844 97L582.857 97.1615L582.994 98H583.844V97ZM582.98 91.72L582.591 90.7988L581.866 91.1049L581.993 91.8815L582.98 91.72ZM590.756 89.032L590.999 90.0021L591.535 89.8681L591.707 89.3427L590.756 89.032ZM606.884 39.688L607.835 39.9987L608.202 38.8737L607.032 38.699L606.884 39.688ZM597.188 37.192H596.188V37.8266L596.762 38.0968L597.188 37.192ZM598.052 32.296L597.736 31.3473L597.3 31.4925L597.126 31.9174L598.052 32.296ZM607.46 30.76L607.576 31.7533L607.587 31.7519L607.46 30.76ZM619.94 57.256L618.963 57.4706L618.979 57.5399L619.003 57.6063L619.94 57.256ZM617.156 44.584L618.133 44.3694L617.96 43.584H617.156V44.584ZM616.196 44.584V43.584H615.401L615.222 44.3581L616.196 44.584ZM613.124 57.832L614.06 58.1839L614.083 58.1222L614.098 58.0579L613.124 57.832ZM608.612 69.832L607.676 69.4801L607.168 70.832H608.612V69.832ZM624.644 69.832V70.832H626.086L625.581 69.4817L624.644 69.832ZM631.329 30.9555L631.425 31.9155L633.415 31.7165L633.319 30.7565L631.329 30.9555ZM631.42 31.816C631.42 34.3383 631.02 36.4312 630.259 38.1269L632.085 38.9451C632.988 36.9288 633.42 34.5417 633.42 31.816H631.42ZM630.562 37.7434C629.906 38.2485 628.766 38.7214 627.026 39.0942L627.446 41.0498C629.29 40.6546 630.774 40.1035 631.782 39.3286L630.562 37.7434ZM626.289 40.3922L642.321 87.8163L644.215 87.1757L628.183 39.7517L626.289 40.3922ZM643.143 88.4881L652.263 89.6401L652.513 87.6559L643.393 86.5039L643.143 88.4881ZM651.388 88.648C651.388 91.0823 650.705 93.7132 649.286 96.5528L651.074 97.4472C652.599 94.3988 653.388 91.4617 653.388 88.648H651.388ZM650.18 96H626.852V98H650.18V96ZM627.839 96.8385L626.975 91.5585L625.001 91.8815L625.865 97.1615L627.839 96.8385ZM626.344 92.6545C629.032 91.6306 630.793 90.958 631.627 90.6373L630.909 88.7707C630.079 89.09 628.32 89.7614 625.632 90.7855L626.344 92.6545ZM632.211 89.3703L628.371 78.5223L626.485 79.1897L630.325 90.0377L632.211 89.3703ZM627.428 77.856H605.828V79.856H627.428V77.856ZM604.88 78.5366C603.921 81.384 603.185 83.5497 602.674 85.0346C602.419 85.7775 602.22 86.3474 602.078 86.7463C601.921 87.1861 601.859 87.3422 601.862 87.3368L603.65 88.2312C603.717 88.0978 603.831 87.7859 603.962 87.4177C604.108 87.0086 604.309 86.4305 604.566 85.6854C605.079 84.1943 605.815 82.024 606.776 79.1754L604.88 78.5366ZM602.627 88.7756L609.251 89.6396L609.509 87.6564L602.885 86.7924L602.627 88.7756ZM608.38 88.648C608.38 89.871 608.146 91.3429 607.65 93.0773L609.574 93.6267C610.102 91.7771 610.38 90.113 610.38 88.648H608.38ZM607.653 93.0679C607.144 94.7852 606.696 95.8853 606.328 96.4631L608.016 97.5369C608.544 96.7067 609.056 95.3748 609.571 93.6361L607.653 93.0679ZM607.172 96H583.844V98H607.172V96ZM584.831 96.8385L583.967 91.5585L581.993 91.8815L582.857 97.1615L584.831 96.8385ZM583.369 92.6412C586.215 91.4394 588.757 90.5624 590.999 90.0021L590.513 88.0619C588.147 88.6536 585.505 89.5686 582.591 90.7988L583.369 92.6412ZM591.707 89.3427L607.835 39.9987L605.933 39.3773L589.805 88.7213L591.707 89.3427ZM607.032 38.699C602.776 38.0638 599.658 37.249 597.614 36.2872L596.762 38.0968C599.07 39.183 602.416 40.0322 606.736 40.677L607.032 38.699ZM598.188 37.192C598.188 35.4381 598.46 33.9392 598.978 32.6746L597.126 31.9174C596.492 33.4688 596.188 35.2339 596.188 37.192H598.188ZM598.368 33.2447C599.595 32.8359 602.619 32.3326 607.576 31.7532L607.344 29.7668C602.445 30.3393 599.197 30.8601 597.736 31.3473L598.368 33.2447ZM607.587 31.7519C612.542 31.1166 617.235 30.8 621.668 30.8V28.8C617.141 28.8 612.362 29.1234 607.333 29.7681L607.587 31.7519ZM621.668 30.8C626.176 30.8 629.625 31.1509 632.059 31.8202L632.589 29.8918C629.903 29.1531 626.248 28.8 621.668 28.8V30.8ZM620.917 57.0414L618.133 44.3694L616.179 44.7986L618.963 57.4706L620.917 57.0414ZM617.156 43.584H616.196V45.584H617.156V43.584ZM615.222 44.3581L612.15 57.6061L614.098 58.0579L617.17 44.8099L615.222 44.3581ZM612.188 57.4801L607.676 69.4801L609.548 70.1839L614.06 58.1839L612.188 57.4801ZM608.612 70.832H624.644V68.832H608.612V70.832ZM625.581 69.4817L620.877 56.9057L619.003 57.6063L623.707 70.1823L625.581 69.4817ZM688.102 89.416L687.352 90.0768L688.102 89.416ZM687.046 37.384L686.258 36.7689L686.257 36.7701L687.046 37.384ZM721.318 30.376L721.035 31.3351L721.039 31.3363L721.318 30.376ZM729.382 33.352L728.874 34.2129L728.888 34.2217L728.903 34.2299L729.382 33.352ZM732.742 35.464H733.742V34.9716L733.352 34.6714L732.742 35.464ZM731.206 49.096L731.625 50.004L732.084 49.7921L732.186 49.2969L731.206 49.096ZM722.086 50.056L721.106 50.2539L721.25 50.9693L721.976 51.0499L722.086 50.056ZM720.07 40.072L721.05 39.8741L720.928 39.2695L720.333 39.1072L720.07 40.072ZM697.702 41.224L697.439 40.2592L697.008 40.3769L696.808 40.7768L697.702 41.224ZM721.414 85.672L721.905 86.5436L722.392 86.2694L722.414 85.7104L721.414 85.672ZM721.798 70.312L722.798 70.3305L722.812 69.579L722.094 69.3567L721.798 70.312ZM713.734 67.816L712.743 67.686L712.633 68.522L713.439 68.7713L713.734 67.816ZM714.502 61.96V60.96H713.625L713.511 61.83L714.502 61.96ZM737.734 61.96L738.612 61.4811L738.328 60.96H737.734V61.96ZM739.462 69.544L739.664 70.5235L740.552 70.3407L740.457 69.4393L739.462 69.544ZM732.454 70.504L732.378 69.5069L731.41 69.5814L731.455 70.5505L732.454 70.504ZM733.03 91.816L733.578 92.6525L734.03 92.3563V91.816H733.03ZM722.95 95.944L722.649 94.9904L722.649 94.9904L722.95 95.944ZM708.934 97.248C700.482 97.248 693.825 94.4025 688.853 88.7552L687.352 90.0768C692.748 96.2055 699.978 99.248 708.934 99.248V97.248ZM688.853 88.7552C683.89 83.119 681.326 74.6922 681.326 63.304H679.326C679.326 74.9558 681.946 83.937 687.352 90.0768L688.853 88.7552ZM681.326 63.304C681.326 51.886 683.551 43.5066 687.836 37.9979L686.257 36.7701C681.581 42.7814 679.326 51.682 679.326 63.304H681.326ZM687.835 37.9991C692.125 32.4998 699.105 29.648 709.03 29.648V27.648C698.731 27.648 691.055 30.6202 686.258 36.7689L687.835 37.9991ZM709.03 29.648C713.228 29.648 717.228 30.2116 721.035 31.3351L721.601 29.4169C717.601 28.2364 713.409 27.648 709.03 27.648V29.648ZM721.039 31.3363C725.013 32.4898 727.587 33.4528 728.874 34.2129L729.891 32.4911C728.361 31.5872 725.56 30.5662 721.597 29.4157L721.039 31.3363ZM728.903 34.2299C730.287 34.9845 731.357 35.6604 732.133 36.2566L733.352 34.6714C732.463 33.9876 731.294 33.2555 729.861 32.4741L728.903 34.2299ZM731.742 35.464C731.742 39.4785 731.24 43.9539 730.227 48.8951L732.186 49.2969C733.22 44.2541 733.742 39.6415 733.742 35.464H731.742ZM730.787 48.188C729.241 48.9016 727.719 49.248 726.214 49.248V51.248C728.037 51.248 729.843 50.8264 731.625 50.004L730.787 48.188ZM726.214 49.248C724.638 49.248 723.301 49.1848 722.197 49.0621L721.976 51.0499C723.175 51.1832 724.59 51.248 726.214 51.248V49.248ZM723.066 49.8581L721.05 39.8741L719.09 40.2699L721.106 50.2539L723.066 49.8581ZM720.333 39.1072C717.439 38.3178 714.598 37.92 711.814 37.92V39.92C714.406 39.92 717.07 40.2902 719.807 41.0368L720.333 39.1072ZM711.814 37.92C707.915 37.92 703.116 38.7111 697.439 40.2592L697.965 42.1888C703.553 40.6649 708.162 39.92 711.814 39.92V37.92ZM696.808 40.7768C693.906 46.581 692.478 53.591 692.478 61.768H694.478C694.478 53.817 695.867 47.131 698.597 41.6712L696.808 40.7768ZM692.478 61.768C692.478 70.6651 693.778 77.5022 696.504 82.1462C699.278 86.8728 703.497 89.264 709.03 89.264V87.264C704.196 87.264 700.638 85.2392 698.229 81.1338C695.77 76.9458 694.478 70.5349 694.478 61.768H692.478ZM709.03 89.264C714.311 89.264 718.629 88.3862 721.905 86.5436L720.924 84.8004C718.056 86.4137 714.118 87.264 709.03 87.264V89.264ZM722.414 85.7104C722.542 82.372 722.67 77.2437 722.798 70.3305L720.798 70.2935C720.67 77.2043 720.543 82.316 720.415 85.6336L722.414 85.7104ZM722.094 69.3567L714.03 66.8607L713.439 68.7713L721.503 71.2673L722.094 69.3567ZM714.726 67.946L715.494 62.09L713.511 61.83L712.743 67.686L714.726 67.946ZM714.502 62.96H737.734V60.96H714.502V62.96ZM736.856 62.4389C737.52 63.6561 738.084 66.0058 738.468 69.6487L740.457 69.4393C740.072 65.7862 739.484 63.0799 738.612 61.4811L736.856 62.4389ZM739.261 68.5645C737.131 69.0031 734.837 69.3178 732.378 69.5069L732.531 71.5011C735.064 71.3062 737.442 70.9809 739.664 70.5235L739.261 68.5645ZM731.455 70.5505C731.839 78.7964 732.03 85.8841 732.03 91.816H734.03C734.03 85.8439 733.838 78.7236 733.453 70.4575L731.455 70.5505ZM732.482 90.9795C730.752 92.1133 727.509 93.4557 722.649 94.9904L723.251 96.8976C728.119 95.3603 731.597 93.9507 733.578 92.6525L732.482 90.9795ZM722.649 94.9904C717.869 96.4998 713.299 97.248 708.934 97.248V99.248C713.529 99.248 718.303 98.4602 723.251 96.8976L722.649 94.9904ZM790.154 39.4V38.4H789.154V39.4H790.154ZM789.962 58.216L788.962 58.1916L788.937 59.216H789.962V58.216ZM799.754 58.216V59.216H800.62L800.744 58.3594L799.754 58.216ZM800.714 51.592V50.592H799.848L799.724 51.4486L800.714 51.592ZM810.218 53.992H811.218V53.3853L810.68 53.1051L810.218 53.992ZM810.218 73.192L810.263 74.191L811.218 74.1476V73.192H810.218ZM803.882 73.48L803.05 74.0347L803.363 74.5046L803.927 74.479L803.882 73.48ZM801.194 67.432L802.183 67.2854L802.057 66.432H801.194V67.432ZM789.866 67.432V66.432H788.88L788.866 67.4177L789.866 67.432ZM789.674 87.688H788.674V88.688H789.674V87.688ZM806.09 87.688V88.688H806.869L807.059 87.9332L806.09 87.688ZM808.202 79.336V78.336H807.423L807.233 79.0908L808.202 79.336ZM817.226 79.912L818.193 79.6575L818.032 79.0457L817.41 78.9291L817.226 79.912ZM818.378 97V98H819.277L819.372 97.1065L818.378 97ZM770.762 97L769.775 97.1615L769.912 98H770.762V97ZM769.898 91.72L769.539 90.7867L768.78 91.0787L768.911 91.8815L769.898 91.72ZM777.962 88.936L778.168 89.9145L778.976 89.7445L778.962 88.9191L777.962 88.936ZM777.77 73L778.77 72.9907L778.77 72.9833L777.77 73ZM777.098 38.152L778.098 38.1276L778.08 37.4118L777.397 37.1977L777.098 38.152ZM769.13 35.656L768.138 35.526L768.029 36.3591L768.831 36.6103L769.13 35.656ZM769.898 29.8V28.8H769.021L768.906 29.67L769.898 29.8ZM817.034 29.8L818.028 29.6896L817.929 28.8H817.034V29.8ZM815.882 47.08L816.189 48.0317L816.742 47.8532L816.861 47.284L815.882 47.08ZM806.858 48.04L805.889 48.2876L806.081 49.04H806.858V48.04ZM804.65 39.4L805.619 39.1524L805.427 38.4H804.65V39.4ZM789.154 39.4C789.154 46.6907 789.09 52.9542 788.962 58.1916L790.962 58.2404C791.09 52.9818 791.154 46.7013 791.154 39.4H789.154ZM789.962 59.216H799.754V57.216H789.962V59.216ZM800.744 58.3594L801.704 51.7354L799.724 51.4486L798.764 58.0726L800.744 58.3594ZM800.714 52.592C803.807 52.592 806.818 53.3485 809.756 54.8789L810.68 53.1051C807.474 51.4355 804.149 50.592 800.714 50.592V52.592ZM809.218 53.992V73.192H811.218V53.992H809.218ZM810.173 72.193L803.837 72.481L803.927 74.479L810.263 74.191L810.173 72.193ZM804.714 72.9253C803.217 70.68 802.409 68.8067 802.183 67.2854L800.205 67.5785C800.491 69.5133 801.475 71.672 803.05 74.0347L804.714 72.9253ZM801.194 66.432H789.866V68.432H801.194V66.432ZM788.866 67.4177C788.738 76.3789 788.674 83.1366 788.674 87.688H790.674C790.674 83.1514 790.738 76.4051 790.866 67.4463L788.866 67.4177ZM789.674 88.688H806.09V86.688H789.674V88.688ZM807.059 87.9332L809.171 79.5812L807.233 79.0908L805.121 87.4428L807.059 87.9332ZM808.202 80.336C812.153 80.336 815.087 80.5283 817.042 80.8949L817.41 78.9291C815.269 78.5277 812.187 78.336 808.202 78.336V80.336ZM816.259 80.1665C817.202 83.7515 817.666 86.9924 817.666 89.896H819.666C819.666 86.7836 819.17 83.3685 818.193 79.6575L816.259 80.1665ZM817.666 89.896C817.666 92.8236 817.57 95.1519 817.384 96.8935L819.372 97.1065C819.57 95.2641 819.666 92.8564 819.666 89.896H817.666ZM818.378 96H770.762V98H818.378V96ZM771.749 96.8385L770.885 91.5585L768.911 91.8815L769.775 97.1615L771.749 96.8385ZM770.257 92.6533C774.439 91.0447 777.046 90.1507 778.168 89.9145L777.756 87.9574C776.446 88.2333 773.677 89.1953 769.539 90.7867L770.257 92.6533ZM778.962 88.9191C778.898 85.1468 778.834 79.8378 778.77 72.9907L776.77 73.0093C776.834 79.8582 776.898 85.1732 776.962 88.9529L778.962 88.9191ZM778.77 72.9833C778.514 57.6227 778.29 46.0036 778.098 38.1276L776.098 38.1764C776.29 46.0444 776.514 57.6573 776.77 73.0167L778.77 72.9833ZM777.397 37.1977L769.429 34.7017L768.831 36.6103L776.799 39.1063L777.397 37.1977ZM770.122 35.786L770.89 29.93L768.906 29.67L768.138 35.526L770.122 35.786ZM769.898 30.8H817.034V28.8H769.898V30.8ZM816.04 29.9104C816.227 31.5884 816.322 33.7244 816.322 36.328H818.322C818.322 33.6836 818.225 31.4676 818.028 29.6896L816.04 29.9104ZM816.322 36.328C816.322 38.7847 815.859 42.2893 814.903 46.876L816.861 47.284C817.825 42.6547 818.322 38.9913 818.322 36.328H816.322ZM815.575 46.1283C813.744 46.7189 810.864 47.04 806.858 47.04V49.04C810.916 49.04 814.052 48.7211 816.189 48.0317L815.575 46.1283ZM807.827 47.7924L805.619 39.1524L803.681 39.6476L805.889 48.2876L807.827 47.7924ZM804.65 38.4H790.154V40.4H804.65V38.4ZM916.441 38.344L916.317 37.3517L915.446 37.4607L915.441 38.3391L916.441 38.344ZM916.153 97V98H917.148L917.153 97.0049L916.153 97ZM903.865 97L903.013 97.5229L903.306 98H903.865V97ZM872.185 45.352L873.038 44.8291L871.232 41.8861L871.185 45.3383L872.185 45.352ZM871.705 87.784L870.705 87.7773L870.699 88.6613L871.576 88.7756L871.705 87.784ZM878.329 88.648H879.329V87.77L878.459 87.6564L878.329 88.648ZM876.121 97V98H876.739L877.016 97.4472L876.121 97ZM852.793 97L851.806 97.1615L851.944 98H852.793V97ZM851.929 91.72L851.549 90.795L850.814 91.097L850.942 91.8815L851.929 91.72ZM859.993 88.936L860.203 89.9138L860.993 89.7444V88.936H859.993ZM859.129 38.152L860.129 38.1349L860.117 37.4134L859.428 37.1977L859.129 38.152ZM851.161 35.656L850.17 35.526L850.06 36.3591L850.862 36.6103L851.161 35.656ZM851.929 29.8V28.8H851.052L850.938 29.67L851.929 29.8ZM876.889 29.8L877.763 29.3131L877.477 28.8H876.889V29.8ZM904.825 79.912L903.952 80.3989L905.825 79.8775L904.825 79.912ZM903.385 38.152L904.385 38.1175L904.36 37.4095L903.684 37.1977L903.385 38.152ZM895.417 35.656L894.426 35.526L894.316 36.3591L895.118 36.6103L895.417 35.656ZM896.185 29.8V28.8H895.308L895.194 29.67L896.185 29.8ZM921.145 29.992L920.251 30.4392L920.323 30.5844L920.438 30.6991L921.145 29.992ZM921.529 30.856L920.568 31.1307L920.593 31.2201L920.635 31.3032L921.529 30.856ZM922.105 32.296L921.157 32.6122L921.162 32.6298L921.169 32.6471L922.105 32.296ZM922.873 37.384L923.028 38.3719L923.921 38.2319L923.872 37.33L922.873 37.384ZM915.441 38.3391L915.153 96.9951L917.153 97.0049L917.441 38.3489L915.441 38.3391ZM916.153 96H903.865V98H916.153V96ZM904.718 96.4771L873.038 44.8291L871.333 45.8749L903.013 97.5229L904.718 96.4771ZM871.185 45.3383C870.929 64.0909 870.769 78.2377 870.705 87.7773L872.705 87.7907C872.769 78.2583 872.929 64.1171 873.185 45.3656L871.185 45.3383ZM871.576 88.7756L878.2 89.6396L878.459 87.6564L871.835 86.7924L871.576 88.7756ZM877.329 88.648C877.329 91.0823 876.647 93.7132 875.227 96.5528L877.016 97.4472C878.54 94.3988 879.329 91.4617 879.329 88.648H877.329ZM876.121 96H852.793V98H876.121V96ZM853.78 96.8385L852.916 91.5585L850.942 91.8815L851.806 97.1615L853.78 96.8385ZM852.309 92.645C855.885 91.1765 858.503 90.2779 860.203 89.9138L859.784 87.9582C857.899 88.3621 855.142 89.3195 851.549 90.795L852.309 92.645ZM860.993 88.936C860.993 88.7326 860.705 71.7877 860.129 38.1349L858.129 38.1691C858.417 55.0011 858.633 67.6491 858.777 76.113C858.849 80.345 858.903 83.5309 858.939 85.6708C858.957 86.7408 858.971 87.5491 858.98 88.096C858.984 88.3694 858.988 88.5772 858.99 88.7196C858.991 88.7909 858.992 88.8454 858.993 88.8835C858.993 88.927 858.993 88.9393 858.993 88.936H860.993ZM859.428 37.1977L851.46 34.7017L850.862 36.6103L858.83 39.1063L859.428 37.1977ZM852.153 35.786L852.921 29.93L850.938 29.67L850.17 35.526L852.153 35.786ZM851.929 30.8H876.889V28.8H851.929V30.8ZM876.016 30.2869L903.952 80.3989L905.699 79.4251L877.763 29.3131L876.016 30.2869ZM905.825 79.8775L904.385 38.1175L902.386 38.1865L903.826 79.9465L905.825 79.8775ZM903.684 37.1977L895.716 34.7017L895.118 36.6103L903.086 39.1063L903.684 37.1977ZM896.409 35.786L897.177 29.93L895.194 29.67L894.426 35.526L896.409 35.786ZM896.185 30.8H921.145V28.8H896.185V30.8ZM921.145 28.8C920.975 28.8 920.664 28.8432 920.402 29.1049C920.14 29.3666 920.097 29.6778 920.097 29.848C920.097 30.1348 920.215 30.3674 920.251 30.4392L922.04 29.5448C922.037 29.5393 922.046 29.5567 922.058 29.5918C922.067 29.6177 922.097 29.7127 922.097 29.848C922.097 29.9861 922.062 30.2734 921.816 30.5191C921.571 30.7648 921.283 30.8 921.145 30.8V28.8ZM920.438 30.6991C920.4 30.6606 920.385 30.6351 920.39 30.6421C920.393 30.6472 920.405 30.6678 920.423 30.7101C920.462 30.7966 920.511 30.9325 920.568 31.1307L922.491 30.5813C922.419 30.3315 922.341 30.0994 922.251 29.8979C922.169 29.7122 922.045 29.4773 921.852 29.2849L920.438 30.6991ZM920.635 31.3032C920.799 31.6316 920.974 32.0643 921.157 32.6122L923.054 31.9798C922.853 31.3757 922.644 30.8484 922.424 30.4088L920.635 31.3032ZM921.169 32.6471C921.495 33.5176 921.747 35.0814 921.875 37.438L923.872 37.33C923.743 34.9506 923.483 33.1224 923.042 31.9449L921.169 32.6471ZM922.718 36.3961C919.451 36.9086 917.323 37.226 916.317 37.3517L916.565 39.3363C917.608 39.206 919.768 38.8834 923.028 38.3719L922.718 36.3961ZM983.73 71.464L983.163 72.288L983.171 72.2936L983.179 72.299L983.73 71.464ZM975.282 66.952L974.854 67.8561L974.864 67.8607L974.874 67.8651L975.282 66.952ZM967.314 63.016L966.828 63.8902L966.835 63.8939L966.842 63.8975L967.314 63.016ZM961.266 58.984L960.657 59.7771L960.666 59.784L961.266 58.984ZM960.498 33.736L961.146 34.497L961.148 34.4961L960.498 33.736ZM998.034 35.08H999.034V34.4954L998.524 34.2086L998.034 35.08ZM996.594 50.056L996.892 51.0105L997.471 50.8294L997.578 50.2318L996.594 50.056ZM987.474 51.016L986.502 51.2528L986.688 52.016H987.474V51.016ZM984.69 39.592L985.661 39.3552L985.525 38.7971L984.975 38.6335L984.69 39.592ZM971.634 52.264L971.004 53.0408L971.015 53.05L971.027 53.0589L971.634 52.264ZM980.37 57.448L979.943 58.3524L979.95 58.3557L979.957 58.359L980.37 57.448ZM992.274 63.592L991.732 64.4323L991.732 64.4323L992.274 63.592ZM996.786 67.24L997.546 66.5905L997.54 66.583L997.533 66.5756L996.786 67.24ZM994.098 92.872L994.728 93.6485L994.728 93.6485L994.098 92.872ZM964.338 96.328L964.05 97.2858L964.058 97.2883L964.067 97.2905L964.338 96.328ZM952.914 91.24L951.914 91.2072L951.896 91.7696L952.367 92.0773L952.914 91.24ZM954.45 75.4L954.254 74.4194L953.554 74.5594L953.459 75.2666L954.45 75.4ZM963.666 74.632L964.651 74.4596L964.506 73.632H963.666V74.632ZM965.682 86.152L964.697 86.3244L964.802 86.9268L965.386 87.1074L965.682 86.152ZM976.818 88.784C980.649 88.784 983.708 87.97 985.819 86.1686C987.96 84.3414 988.954 81.6472 988.954 78.28H986.954C986.954 81.2488 986.092 83.3066 984.521 84.6474C982.919 86.014 980.411 86.784 976.818 86.784V88.784ZM988.954 78.28C988.954 75.169 987.296 72.6166 984.28 70.629L983.179 72.299C985.796 74.0234 986.954 76.015 986.954 78.28H988.954ZM984.296 70.64C982.178 69.1837 979.301 67.6512 975.689 66.0389L974.874 67.8651C978.43 69.4528 981.185 70.9283 983.163 72.288L984.296 70.64ZM975.709 66.0479C972.193 64.3859 969.555 63.0824 967.786 62.1345L966.842 63.8975C968.656 64.8696 971.33 66.1901 974.854 67.8561L975.709 66.0479ZM967.799 62.1418C966.125 61.2114 964.148 59.8958 961.866 58.184L960.666 59.784C962.991 61.5282 965.047 62.9006 966.828 63.8902L967.799 62.1418ZM961.875 58.1909C957.677 54.9662 955.642 51.0228 955.642 46.312H953.642C953.642 51.7132 956.023 56.2178 960.657 59.777L961.875 58.1909ZM955.642 46.312C955.642 41.5538 957.462 37.6382 961.146 34.497L959.849 32.975C955.726 36.4898 953.642 40.9582 953.642 46.312H955.642ZM961.148 34.4961C964.888 31.299 969.978 29.648 976.53 29.648V27.648C969.641 27.648 964.044 29.389 959.848 32.9759L961.148 34.4961ZM976.53 29.648C983.034 29.648 990.033 31.723 997.543 35.9514L998.524 34.2086C990.802 29.861 983.466 27.648 976.53 27.648V29.648ZM997.034 35.08C997.034 39.6194 996.561 44.5519 995.609 49.8802L997.578 50.2318C998.547 44.8081 999.034 39.7566 999.034 35.08H997.034ZM996.295 49.1015C994.395 49.6955 991.477 50.016 987.474 50.016V52.016C991.535 52.016 994.697 51.6965 996.892 51.0105L996.295 49.1015ZM988.445 50.7792L985.661 39.3552L983.718 39.8288L986.502 51.2528L988.445 50.7792ZM984.975 38.6335C982.502 37.8984 979.813 37.536 976.914 37.536V39.536C979.646 39.536 982.141 39.8776 984.405 40.5505L984.975 38.6335ZM976.914 37.536C973.968 37.536 971.541 38.1704 969.765 39.576L971.006 41.144C972.303 40.1176 974.227 39.536 976.914 39.536V37.536ZM969.765 39.576C967.932 41.0269 967.082 43.1756 967.082 45.832H969.082C969.082 43.6244 969.767 42.1251 971.006 41.144L969.765 39.576ZM967.082 45.832C967.082 48.5842 968.475 50.99 971.004 53.0408L972.264 51.4872C970.057 49.698 969.082 47.8158 969.082 45.832H967.082ZM971.027 53.0589C973.526 54.966 976.501 56.7288 979.943 58.3524L980.796 56.5436C977.454 54.9672 974.606 53.274 972.24 51.469L971.027 53.0589ZM979.957 58.359C983.35 59.8954 985.67 60.9761 986.931 61.6064L987.825 59.8176C986.526 59.1679 984.173 58.0726 980.782 56.537L979.957 58.359ZM986.931 61.6064C988.164 62.2231 989.761 63.1612 991.732 64.4323L992.816 62.7517C990.818 61.4628 989.152 60.4809 987.825 59.8176L986.931 61.6064ZM991.732 64.4323C993.675 65.6863 995.097 66.8458 996.038 67.9044L997.533 66.5756C996.426 65.3302 994.84 64.0577 992.816 62.7517L991.732 64.4323ZM996.025 67.8895C998.506 70.7941 999.722 73.9915 999.722 77.512H1001.72C1001.72 73.4805 1000.31 69.8299 997.546 66.5905L996.025 67.8895ZM999.722 77.512C999.722 83.924 997.608 88.7348 993.468 92.0955L994.728 93.6485C999.419 89.8412 1001.72 84.412 1001.72 77.512H999.722ZM993.468 92.0955C989.271 95.5019 983.751 97.248 976.818 97.248V99.248C984.093 99.248 990.093 97.4101 994.728 93.6485L993.468 92.0955ZM976.818 97.248C973.153 97.248 969.086 96.6265 964.609 95.3655L964.067 97.2905C968.678 98.5895 972.931 99.248 976.818 99.248V97.248ZM964.625 95.3702C960.215 94.0472 956.499 92.3872 953.461 90.4027L952.367 92.0773C955.6 94.1888 959.5 95.9208 964.05 97.2858L964.625 95.3702ZM953.913 91.2728C954.04 87.4179 954.547 82.1761 955.441 75.5334L953.459 75.2666C952.561 81.9359 952.044 87.2541 951.914 91.2072L953.913 91.2728ZM954.646 76.3806C957.122 75.8853 960.125 75.632 963.666 75.632V73.632C960.038 73.632 956.897 73.8907 954.254 74.4194L954.646 76.3806ZM962.681 74.8044L964.697 86.3244L966.667 85.9796L964.651 74.4596L962.681 74.8044ZM965.386 87.1074C969.008 88.2267 972.82 88.784 976.818 88.784V86.784C973.008 86.784 969.396 86.2533 965.977 85.1966L965.386 87.1074Z" fill="black" mask="url(#path-2-outside-1_51_103)"/>
<defs>
<filter id="filter0_f_51_103" x="0" y="56" width="1065" height="21" filterUnits="userSpaceOnUse" color-interpolation-filters="sRGB">
<feFlood flood-opacity="0" result="BackgroundImageFix"/>
<feBlend mode="normal" in="SourceGraphic" in2="BackgroundImageFix" result="shape"/>
<feGaussianBlur stdDeviation="2" result="effect1_foregroundBlur_51_103"/>
</filter>
<filter id="filter1_i_51_103" x="67.9761" y="28.648" width="932.746" height="73.6" filterUnits="userSpaceOnUse" color-interpolation-filters="sRGB">
<feFlood flood-opacity="0" result="BackgroundImageFix"/>
<feBlend mode="normal" in="SourceGraphic" in2="BackgroundImageFix" result="shape"/>
<feColorMatrix in="SourceAlpha" type="matrix" values="0 0 0 0 0 0 0 0 0 0 0 0 0 0 0 0 0 0 127 0" result="hardAlpha"/>
<feOffset dy="4"/>
<feGaussianBlur stdDeviation="2"/>
<feComposite in2="hardAlpha" operator="arithmetic" k2="-1" k3="1"/>
<feColorMatrix type="matrix" values="0 0 0 0 0 0 0 0 0 0 0 0 0 0 0 0 0 0 0.25 0"/>
<feBlend mode="normal" in2="shape" result="effect1_innerShadow_51_103"/>
</filter>
</defs>
</svg>
