<svg width="564" height="99" viewBox="0 0 564 99" fill="none" xmlns="http://www.w3.org/2000/svg">
<g filter="url(#filter0_f_22_16)">
<ellipse cx="282" cy="64.5" rx="278" ry="6.5" fill="#DF1973"/>
</g>
<mask id="path-2-outside-1_22_16" maskUnits="userSpaceOnUse" x="31" y="27" width="494" height="73" fill="black">
<rect fill="white" x="31" y="27" width="494" height="73"/>
<path d="M56.976 29.8C68.176 29.8 75.6 31.4 79.248 34.6C82.576 37.48 84.24 41.928 84.24 47.944C84.24 57.288 79.376 63.656 69.648 67.048L83.472 87.88L91.728 88.744C91.728 91.496 90.992 94.248 89.52 97H75.6L56.784 68.296H53.712L53.424 87.88L60.432 88.648C60.432 91.272 59.696 94.056 58.224 97H34.512L33.648 91.72C37.488 90.184 40.176 89.256 41.712 88.936C41.584 81.064 41.424 71.56 41.232 60.424C41.04 49.288 40.912 41.832 40.848 38.056L32.88 35.656C32.944 34.184 33.232 32.232 33.744 29.8H56.976ZM64.56 40.072C62.576 39.624 59.92 39.4 56.592 39.4H53.904C53.776 48.232 53.712 54.856 53.712 59.272L58.416 59.176C62.192 59.112 65.168 58.344 67.344 56.872C69.584 55.336 70.704 52.392 70.704 48.04C70.704 43.688 68.656 41.032 64.56 40.072ZM141.842 39.4C141.842 46.696 141.778 52.968 141.65 58.216H151.442L152.402 51.592C155.666 51.592 158.834 52.392 161.906 53.992V73.192L155.57 73.48C154.034 71.176 153.138 69.16 152.882 67.432H141.554C141.426 76.392 141.362 83.144 141.362 87.688H157.778L159.89 79.336C163.858 79.336 166.866 79.528 168.914 79.912C169.874 83.56 170.354 86.888 170.354 89.896C170.354 92.84 170.258 95.208 170.066 97H122.45L121.586 91.72C125.746 90.12 128.434 89.192 129.65 88.936C129.586 85.16 129.522 79.848 129.458 73C129.202 57.64 128.978 46.024 128.786 38.152L120.818 35.656L121.586 29.8H168.722C168.914 31.528 169.01 33.704 169.01 36.328C169.01 38.888 168.53 42.472 167.57 47.08C165.586 47.72 162.578 48.04 158.546 48.04L156.338 39.4H141.842ZM230.497 98.248C221.793 98.248 214.849 95.304 209.665 89.416C204.481 83.528 201.889 74.824 201.889 63.304C201.889 51.784 204.129 43.144 208.609 37.384C213.153 31.56 220.481 28.648 230.593 28.648C234.881 28.648 238.977 29.224 242.881 30.376C246.849 31.528 249.537 32.52 250.945 33.352C252.353 34.12 253.473 34.824 254.305 35.464C254.305 39.56 253.793 44.104 252.769 49.096C251.105 49.864 249.441 50.248 247.777 50.248C246.177 50.248 244.801 50.184 243.649 50.056L241.633 40.072C238.817 39.304 236.065 38.92 233.377 38.92C229.601 38.92 224.897 39.688 219.265 41.224C216.449 46.856 215.041 53.704 215.041 61.768C215.041 79.432 220.225 88.264 230.593 88.264C235.777 88.264 239.905 87.4 242.977 85.672C243.105 82.344 243.233 77.224 243.361 70.312L235.297 67.816L236.065 61.96H259.297C260.065 63.368 260.641 65.896 261.025 69.544C258.849 69.992 256.513 70.312 254.017 70.504C254.401 78.76 254.593 85.864 254.593 91.816C252.737 93.032 249.377 94.408 244.513 95.944C239.649 97.48 234.977 98.248 230.497 98.248ZM314.789 29.8C325.989 29.8 333.413 31.4 337.061 34.6C340.389 37.48 342.052 41.928 342.052 47.944C342.052 57.288 337.189 63.656 327.461 67.048L341.285 87.88L349.541 88.744C349.541 91.496 348.805 94.248 347.333 97H333.413L314.597 68.296H311.525L311.237 87.88L318.245 88.648C318.245 91.272 317.509 94.056 316.036 97H292.325L291.461 91.72C295.301 90.184 297.989 89.256 299.525 88.936C299.397 81.064 299.237 71.56 299.045 60.424C298.853 49.288 298.725 41.832 298.661 38.056L290.693 35.656C290.757 34.184 291.045 32.232 291.557 29.8H314.789ZM322.373 40.072C320.389 39.624 317.733 39.4 314.405 39.4H311.717C311.589 48.232 311.525 54.856 311.525 59.272L316.229 59.176C320.005 59.112 322.981 58.344 325.157 56.872C327.397 55.336 328.517 52.392 328.517 48.04C328.517 43.688 326.469 41.032 322.373 40.072ZM425.574 30.856L425.67 31.816C425.67 34.44 425.254 36.68 424.422 38.536C423.59 39.176 422.278 39.688 420.486 40.072L436.518 87.496L445.638 88.648C445.638 91.272 444.902 94.056 443.43 97H420.102L419.238 91.72C421.926 90.696 423.686 90.024 424.518 89.704L420.678 78.856H399.078C397.158 84.552 396.134 87.528 396.006 87.784L402.63 88.648C402.63 89.992 402.374 91.56 401.862 93.352C401.35 95.08 400.87 96.296 400.422 97H377.094L376.23 91.72C379.11 90.504 381.702 89.608 384.006 89.032L400.134 39.688C395.846 39.048 392.614 38.216 390.438 37.192C390.438 35.336 390.726 33.704 391.302 32.296C392.646 31.848 395.782 31.336 400.71 30.76C405.702 30.12 410.438 29.8 414.918 29.8C419.462 29.8 423.014 30.152 425.574 30.856ZM413.19 57.256L410.406 44.584H409.446L406.374 57.832L401.862 69.832H417.894L413.19 57.256ZM499.88 87.784C507.304 87.784 511.016 84.616 511.016 78.28C511.016 75.592 509.608 73.32 506.792 71.464C504.744 70.056 501.928 68.552 498.344 66.952C494.824 65.288 492.168 63.976 490.376 63.016C488.648 62.056 486.632 60.712 484.328 58.984C479.912 55.592 477.704 51.368 477.704 46.312C477.704 41.256 479.656 37.064 483.56 33.736C487.528 30.344 492.872 28.648 499.592 28.648C506.312 28.648 513.48 30.792 521.096 35.08C521.096 39.688 520.616 44.68 519.656 50.056C517.608 50.696 514.568 51.016 510.536 51.016L507.752 39.592C505.384 38.888 502.792 38.536 499.976 38.536C497.16 38.536 494.984 39.144 493.448 40.36C491.912 41.576 491.144 43.4 491.144 45.832C491.144 48.2 492.328 50.344 494.696 52.264C497.128 54.12 500.04 55.848 503.432 57.448C506.824 58.984 509.16 60.072 510.44 60.712C511.72 61.352 513.352 62.312 515.336 63.592C517.32 64.872 518.824 66.088 519.848 67.24C522.472 70.312 523.784 73.736 523.784 77.512C523.784 84.168 521.576 89.288 517.16 92.872C512.744 96.456 506.984 98.248 499.88 98.248C496.104 98.248 491.944 97.608 487.4 96.328C482.92 94.984 479.112 93.288 475.976 91.24C476.104 87.336 476.616 82.056 477.512 75.4C480.072 74.888 483.144 74.632 486.728 74.632L488.744 86.152C492.264 87.24 495.976 87.784 499.88 87.784Z"/>
</mask>
<g filter="url(#filter1_i_22_16)">
<path d="M56.976 29.8C68.176 29.8 75.6 31.4 79.248 34.6C82.576 37.48 84.24 41.928 84.24 47.944C84.24 57.288 79.376 63.656 69.648 67.048L83.472 87.88L91.728 88.744C91.728 91.496 90.992 94.248 89.52 97H75.6L56.784 68.296H53.712L53.424 87.88L60.432 88.648C60.432 91.272 59.696 94.056 58.224 97H34.512L33.648 91.72C37.488 90.184 40.176 89.256 41.712 88.936C41.584 81.064 41.424 71.56 41.232 60.424C41.04 49.288 40.912 41.832 40.848 38.056L32.88 35.656C32.944 34.184 33.232 32.232 33.744 29.8H56.976ZM64.56 40.072C62.576 39.624 59.92 39.4 56.592 39.4H53.904C53.776 48.232 53.712 54.856 53.712 59.272L58.416 59.176C62.192 59.112 65.168 58.344 67.344 56.872C69.584 55.336 70.704 52.392 70.704 48.04C70.704 43.688 68.656 41.032 64.56 40.072ZM141.842 39.4C141.842 46.696 141.778 52.968 141.65 58.216H151.442L152.402 51.592C155.666 51.592 158.834 52.392 161.906 53.992V73.192L155.57 73.48C154.034 71.176 153.138 69.16 152.882 67.432H141.554C141.426 76.392 141.362 83.144 141.362 87.688H157.778L159.89 79.336C163.858 79.336 166.866 79.528 168.914 79.912C169.874 83.56 170.354 86.888 170.354 89.896C170.354 92.84 170.258 95.208 170.066 97H122.45L121.586 91.72C125.746 90.12 128.434 89.192 129.65 88.936C129.586 85.16 129.522 79.848 129.458 73C129.202 57.64 128.978 46.024 128.786 38.152L120.818 35.656L121.586 29.8H168.722C168.914 31.528 169.01 33.704 169.01 36.328C169.01 38.888 168.53 42.472 167.57 47.08C165.586 47.72 162.578 48.04 158.546 48.04L156.338 39.4H141.842ZM230.497 98.248C221.793 98.248 214.849 95.304 209.665 89.416C204.481 83.528 201.889 74.824 201.889 63.304C201.889 51.784 204.129 43.144 208.609 37.384C213.153 31.56 220.481 28.648 230.593 28.648C234.881 28.648 238.977 29.224 242.881 30.376C246.849 31.528 249.537 32.52 250.945 33.352C252.353 34.12 253.473 34.824 254.305 35.464C254.305 39.56 253.793 44.104 252.769 49.096C251.105 49.864 249.441 50.248 247.777 50.248C246.177 50.248 244.801 50.184 243.649 50.056L241.633 40.072C238.817 39.304 236.065 38.92 233.377 38.92C229.601 38.92 224.897 39.688 219.265 41.224C216.449 46.856 215.041 53.704 215.041 61.768C215.041 79.432 220.225 88.264 230.593 88.264C235.777 88.264 239.905 87.4 242.977 85.672C243.105 82.344 243.233 77.224 243.361 70.312L235.297 67.816L236.065 61.96H259.297C260.065 63.368 260.641 65.896 261.025 69.544C258.849 69.992 256.513 70.312 254.017 70.504C254.401 78.76 254.593 85.864 254.593 91.816C252.737 93.032 249.377 94.408 244.513 95.944C239.649 97.48 234.977 98.248 230.497 98.248ZM314.789 29.8C325.989 29.8 333.413 31.4 337.061 34.6C340.389 37.48 342.052 41.928 342.052 47.944C342.052 57.288 337.189 63.656 327.461 67.048L341.285 87.88L349.541 88.744C349.541 91.496 348.805 94.248 347.333 97H333.413L314.597 68.296H311.525L311.237 87.88L318.245 88.648C318.245 91.272 317.509 94.056 316.036 97H292.325L291.461 91.72C295.301 90.184 297.989 89.256 299.525 88.936C299.397 81.064 299.237 71.56 299.045 60.424C298.853 49.288 298.725 41.832 298.661 38.056L290.693 35.656C290.757 34.184 291.045 32.232 291.557 29.8H314.789ZM322.373 40.072C320.389 39.624 317.733 39.4 314.405 39.4H311.717C311.589 48.232 311.525 54.856 311.525 59.272L316.229 59.176C320.005 59.112 322.981 58.344 325.157 56.872C327.397 55.336 328.517 52.392 328.517 48.04C328.517 43.688 326.469 41.032 322.373 40.072ZM425.574 30.856L425.67 31.816C425.67 34.44 425.254 36.68 424.422 38.536C423.59 39.176 422.278 39.688 420.486 40.072L436.518 87.496L445.638 88.648C445.638 91.272 444.902 94.056 443.43 97H420.102L419.238 91.72C421.926 90.696 423.686 90.024 424.518 89.704L420.678 78.856H399.078C397.158 84.552 396.134 87.528 396.006 87.784L402.63 88.648C402.63 89.992 402.374 91.56 401.862 93.352C401.35 95.08 400.87 96.296 400.422 97H377.094L376.23 91.72C379.11 90.504 381.702 89.608 384.006 89.032L400.134 39.688C395.846 39.048 392.614 38.216 390.438 37.192C390.438 35.336 390.726 33.704 391.302 32.296C392.646 31.848 395.782 31.336 400.71 30.76C405.702 30.12 410.438 29.8 414.918 29.8C419.462 29.8 423.014 30.152 425.574 30.856ZM413.19 57.256L410.406 44.584H409.446L406.374 57.832L401.862 69.832H417.894L413.19 57.256ZM499.88 87.784C507.304 87.784 511.016 84.616 511.016 78.28C511.016 75.592 509.608 73.32 506.792 71.464C504.744 70.056 501.928 68.552 498.344 66.952C494.824 65.288 492.168 63.976 490.376 63.016C488.648 62.056 486.632 60.712 484.328 58.984C479.912 55.592 477.704 51.368 477.704 46.312C477.704 41.256 479.656 37.064 483.56 33.736C487.528 30.344 492.872 28.648 499.592 28.648C506.312 28.648 513.48 30.792 521.096 35.08C521.096 39.688 520.616 44.68 519.656 50.056C517.608 50.696 514.568 51.016 510.536 51.016L507.752 39.592C505.384 38.888 502.792 38.536 499.976 38.536C497.16 38.536 494.984 39.144 493.448 40.36C491.912 41.576 491.144 43.4 491.144 45.832C491.144 48.2 492.328 50.344 494.696 52.264C497.128 54.12 500.04 55.848 503.432 57.448C506.824 58.984 509.16 60.072 510.44 60.712C511.72 61.352 513.352 62.312 515.336 63.592C517.32 64.872 518.824 66.088 519.848 67.24C522.472 70.312 523.784 73.736 523.784 77.512C523.784 84.168 521.576 89.288 517.16 92.872C512.744 96.456 506.984 98.248 499.88 98.248C496.104 98.248 491.944 97.608 487.4 96.328C482.92 94.984 479.112 93.288 475.976 91.24C476.104 87.336 476.616 82.056 477.512 75.4C480.072 74.888 483.144 74.632 486.728 74.632L488.744 86.152C492.264 87.24 495.976 87.784 499.88 87.784Z" fill="white"/>
</g>
<path d="M79.248 34.6L78.5885 35.3518L78.5936 35.3562L79.248 34.6ZM69.648 67.048L69.3188 66.1038L68.1026 66.5278L68.8148 67.6009L69.648 67.048ZM83.472 87.88L82.6388 88.4329L82.8993 88.8255L83.3679 88.8746L83.472 87.88ZM91.728 88.744H92.728V87.8432L91.8321 87.7494L91.728 88.744ZM89.52 97V98H90.1192L90.4018 97.4716L89.52 97ZM75.6 97L74.7637 97.5482L75.0598 98H75.6V97ZM56.784 68.296L57.6203 67.7478L57.3242 67.296H56.784V68.296ZM53.712 68.296V67.296H52.7266L52.7121 68.2813L53.712 68.296ZM53.424 87.88L52.4241 87.8653L52.4107 88.7749L53.3151 88.874L53.424 87.88ZM60.432 88.648H61.432V87.7516L60.5409 87.654L60.432 88.648ZM58.224 97V98H58.842L59.1184 97.4472L58.224 97ZM34.512 97L33.5251 97.1615L33.6623 98H34.512V97ZM33.648 91.72L33.2766 90.7915L32.5315 91.0896L32.6611 91.8815L33.648 91.72ZM41.712 88.936L41.916 89.915L42.7253 89.7464L42.7119 88.9197L41.712 88.936ZM40.848 38.056L41.8479 38.0391L41.8355 37.3091L41.1364 37.0985L40.848 38.056ZM32.88 35.656L31.8809 35.6126L31.8472 36.3893L32.5916 36.6135L32.88 35.656ZM33.744 29.8V28.8H32.9326L32.7655 29.594L33.744 29.8ZM64.56 40.072L64.7882 39.0983L64.7803 39.0966L64.56 40.072ZM53.904 39.4V38.4H52.9184L52.9041 39.3855L53.904 39.4ZM53.712 59.272H52.712V60.2926L53.7324 60.2718L53.712 59.272ZM58.416 59.176L58.3991 58.1761L58.3956 58.1762L58.416 59.176ZM67.344 56.872L67.9043 57.7003L67.9095 57.6967L67.344 56.872ZM56.976 30.8C62.5352 30.8 67.1148 31.1977 70.7333 31.9776C74.3643 32.7601 76.9451 33.9101 78.5886 35.3518L79.9074 33.8482C77.9029 32.0899 74.9477 30.8399 71.1547 30.0224C67.3492 29.2023 62.6168 28.8 56.976 28.8V30.8ZM78.5936 35.3562C81.6298 37.9837 83.24 42.1066 83.24 47.944H85.24C85.24 41.7494 83.5222 36.9763 79.9024 33.8438L78.5936 35.3562ZM83.24 47.944C83.24 52.4345 82.0748 56.1392 79.7973 59.121C77.5138 62.1106 74.0503 64.4539 69.3188 66.1038L69.9772 67.9922C74.9737 66.2501 78.8062 63.7134 81.3867 60.335C83.9732 56.9488 85.24 52.7975 85.24 47.944H83.24ZM68.8148 67.6009L82.6388 88.4329L84.3052 87.3271L70.4812 66.4951L68.8148 67.6009ZM83.3679 88.8746L91.6239 89.7386L91.8321 87.7494L83.5761 86.8854L83.3679 88.8746ZM90.728 88.744C90.728 91.3105 90.0431 93.9018 88.6382 96.5284L90.4018 97.4716C91.9409 94.5942 92.728 91.6815 92.728 88.744H90.728ZM89.52 96H75.6V98H89.52V96ZM76.4363 96.4518L57.6203 67.7478L55.9477 68.8442L74.7637 97.5482L76.4363 96.4518ZM56.784 67.296H53.712V69.296H56.784V67.296ZM52.7121 68.2813L52.4241 87.8653L54.4239 87.8947L54.7119 68.3107L52.7121 68.2813ZM53.3151 88.874L60.3231 89.6421L60.5409 87.654L53.5329 86.8859L53.3151 88.874ZM59.432 88.648C59.432 91.0823 58.7494 93.7132 57.3296 96.5528L59.1184 97.4472C60.6426 94.3988 61.432 91.4617 61.432 88.648H59.432ZM58.224 96H34.512V98H58.224V96ZM35.4989 96.8385L34.6349 91.5585L32.6611 91.8815L33.5251 97.1615L35.4989 96.8385ZM34.0194 92.6485C37.8652 91.1101 40.4772 90.2147 41.916 89.915L41.508 87.957C39.8748 88.2973 37.1108 89.2579 33.2766 90.7915L34.0194 92.6485ZM42.7119 88.9197C42.5839 81.0473 42.4239 71.543 42.2319 60.4068L40.2321 60.4412C40.4241 71.577 40.5841 81.0807 40.7121 88.9523L42.7119 88.9197ZM42.2319 60.4068C42.0399 49.2707 41.9119 41.8149 41.8479 38.0391L39.8481 38.0729C39.9121 41.8491 40.0401 49.3053 40.2321 60.4412L42.2319 60.4068ZM41.1364 37.0985L33.1684 34.6985L32.5916 36.6135L40.5596 39.0135L41.1364 37.0985ZM33.8791 35.6994C33.9396 34.3066 34.2153 32.4155 34.7225 30.006L32.7655 29.594C32.2487 32.0485 31.9484 34.0614 31.8809 35.6126L33.8791 35.6994ZM33.744 30.8H56.976V28.8H33.744V30.8ZM64.7803 39.0966C62.693 38.6252 59.9537 38.4 56.592 38.4V40.4C59.8863 40.4 62.459 40.6227 64.3397 41.0474L64.7803 39.0966ZM56.592 38.4H53.904V40.4H56.592V38.4ZM52.9041 39.3855C52.7761 48.2186 52.712 54.8485 52.712 59.272H54.712C54.712 54.8635 54.7759 48.2454 54.9039 39.4145L52.9041 39.3855ZM53.7324 60.2718L58.4364 60.1758L58.3956 58.1762L53.6916 58.2722L53.7324 60.2718ZM58.4329 60.1759C62.3221 60.1099 65.5118 59.3188 67.9043 57.7003L66.7837 56.0437C64.8242 57.3692 62.0619 58.1141 58.3991 58.1761L58.4329 60.1759ZM67.9095 57.6967C70.5546 55.883 71.704 52.5183 71.704 48.04H69.704C69.704 52.2657 68.6134 54.789 66.7785 56.0473L67.9095 57.6967ZM71.704 48.04C71.704 45.7092 71.1543 43.7223 69.9599 42.1734C68.7627 40.6207 67.0019 39.6172 64.7882 39.0984L64.3318 41.0456C66.2141 41.4868 67.5253 42.2913 68.3761 43.3946C69.2297 44.5017 69.704 46.0188 69.704 48.04H71.704ZM141.841 39.4V38.4H140.841V39.4H141.841ZM141.649 58.216L140.65 58.1916L140.625 59.216H141.649V58.216ZM151.441 58.216V59.216H152.307L152.431 58.3594L151.441 58.216ZM152.402 51.592V50.592H151.536L151.412 51.4486L152.402 51.592ZM161.906 53.992H162.906V53.3853L162.367 53.1051L161.906 53.992ZM161.906 73.192L161.951 74.191L162.906 74.1476V73.192H161.906ZM155.57 73.48L154.737 74.0347L155.051 74.5046L155.615 74.479L155.57 73.48ZM152.882 67.432L153.871 67.2854L153.744 66.432H152.882V67.432ZM141.553 67.432V66.432H140.568L140.554 67.4177L141.553 67.432ZM141.362 87.688H140.362V88.688H141.362V87.688ZM157.778 87.688V88.688H158.556L158.747 87.9332L157.778 87.688ZM159.889 79.336V78.336H159.111L158.92 79.0908L159.889 79.336ZM168.913 79.912L169.881 79.6575L169.72 79.0457L169.098 78.9291L168.913 79.912ZM170.066 97V98H170.964L171.06 97.1065L170.066 97ZM122.45 97L121.463 97.1615L121.6 98H122.45V97ZM121.586 91.72L121.227 90.7867L120.467 91.0787L120.599 91.8815L121.586 91.72ZM129.649 88.936L129.856 89.9146L130.663 89.7445L130.649 88.9191L129.649 88.936ZM129.458 73L130.457 72.9907L130.457 72.9833L129.458 73ZM128.785 38.152L129.785 38.1276L129.768 37.4118L129.084 37.1977L128.785 38.152ZM120.817 35.656L119.826 35.526L119.717 36.3591L120.519 36.6103L120.817 35.656ZM121.586 29.8V28.8H120.708L120.594 29.67L121.586 29.8ZM168.721 29.8L169.715 29.6896L169.617 28.8H168.721V29.8ZM167.57 47.08L167.877 48.0317L168.43 47.8532L168.548 47.284L167.57 47.08ZM158.546 48.04L157.577 48.2876L157.769 49.04H158.546V48.04ZM156.338 39.4L157.306 39.1524L157.114 38.4H156.338V39.4ZM140.841 39.4C140.841 46.6907 140.778 52.9542 140.65 58.1916L142.649 58.2404C142.777 52.9818 142.841 46.7013 142.841 39.4H140.841ZM141.649 59.216H151.441V57.216H141.649V59.216ZM152.431 58.3594L153.391 51.7354L151.412 51.4486L150.452 58.0726L152.431 58.3594ZM152.402 52.592C155.495 52.592 158.505 53.3485 161.444 54.8789L162.367 53.1051C159.162 51.4355 155.836 50.592 152.402 50.592V52.592ZM160.906 53.992V73.192H162.906V53.992H160.906ZM161.86 72.193L155.524 72.481L155.615 74.479L161.951 74.191L161.86 72.193ZM156.402 72.9253C154.905 70.68 154.096 68.8067 153.871 67.2854L151.892 67.5785C152.179 69.5133 153.162 71.672 154.737 74.0347L156.402 72.9253ZM152.882 66.432H141.553V68.432H152.882V66.432ZM140.554 67.4177C140.426 76.3789 140.362 83.1366 140.362 87.688H142.362C142.362 83.1514 142.425 76.4051 142.553 67.4463L140.554 67.4177ZM141.362 88.688H157.778V86.688H141.362V88.688ZM158.747 87.9332L160.859 79.5812L158.92 79.0908L156.808 87.4428L158.747 87.9332ZM159.889 80.336C163.84 80.336 166.774 80.5283 168.729 80.8949L169.098 78.9291C166.957 78.5277 163.875 78.336 159.889 78.336V80.336ZM167.946 80.1665C168.89 83.7514 169.354 86.9924 169.354 89.896H171.354C171.354 86.7836 170.857 83.3685 169.881 79.6575L167.946 80.1665ZM169.354 89.896C169.354 92.8236 169.258 95.1519 169.071 96.8935L171.06 97.1065C171.257 95.2641 171.354 92.8564 171.354 89.896H169.354ZM170.066 96H122.45V98H170.066V96ZM123.436 96.8385L122.572 91.5585L120.599 91.8815L121.463 97.1615L123.436 96.8385ZM121.944 92.6533C126.127 91.0447 128.734 90.1507 129.856 89.9146L129.443 87.9575C128.133 88.2333 125.364 89.1953 121.227 90.7867L121.944 92.6533ZM130.649 88.9191C130.585 85.1468 130.521 79.8378 130.457 72.9907L128.458 73.0093C128.522 79.8582 128.586 85.1732 128.65 88.9529L130.649 88.9191ZM130.457 72.9833C130.201 57.6227 129.977 46.0036 129.785 38.1276L127.786 38.1764C127.978 46.0444 128.202 57.6573 128.458 73.0167L130.457 72.9833ZM129.084 37.1977L121.116 34.7017L120.519 36.6103L128.487 39.1063L129.084 37.1977ZM121.809 35.786L122.577 29.93L120.594 29.67L119.826 35.526L121.809 35.786ZM121.586 30.8H168.721V28.8H121.586V30.8ZM167.728 29.9104C167.914 31.5884 168.01 33.7244 168.01 36.328H170.01C170.01 33.6836 169.913 31.4676 169.715 29.6896L167.728 29.9104ZM168.01 36.328C168.01 38.7847 167.546 42.2893 166.591 46.876L168.548 47.284C169.513 42.6547 170.01 38.9913 170.01 36.328H168.01ZM167.262 46.1283C165.432 46.7189 162.552 47.04 158.546 47.04V49.04C162.603 49.04 165.739 48.7211 167.877 48.0317L167.262 46.1283ZM159.514 47.7924L157.306 39.1524L155.369 39.6476L157.577 48.2876L159.514 47.7924ZM156.338 38.4H141.841V40.4H156.338V38.4ZM209.665 89.416L208.914 90.0768L209.665 89.416ZM208.609 37.384L207.82 36.7689L207.819 36.7701L208.609 37.384ZM242.881 30.376L242.598 31.3351L242.602 31.3363L242.881 30.376ZM250.945 33.352L250.436 34.2129L250.451 34.2217L250.466 34.2299L250.945 33.352ZM254.305 35.464H255.305V34.9716L254.914 34.6714L254.305 35.464ZM252.769 49.096L253.188 50.004L253.647 49.7921L253.748 49.2969L252.769 49.096ZM243.649 50.056L242.669 50.2539L242.813 50.9693L243.538 51.0499L243.649 50.056ZM241.633 40.072L242.613 39.8741L242.491 39.2695L241.896 39.1072L241.633 40.072ZM219.265 41.224L219.002 40.2592L218.57 40.3769L218.37 40.7768L219.265 41.224ZM242.977 85.672L243.467 86.5436L243.955 86.2694L243.976 85.7104L242.977 85.672ZM243.361 70.312L244.361 70.3305L244.374 69.579L243.656 69.3567L243.361 70.312ZM235.297 67.816L234.305 67.686L234.196 68.522L235.001 68.7713L235.297 67.816ZM236.065 61.96V60.96H235.187L235.073 61.83L236.065 61.96ZM259.297 61.96L260.175 61.4811L259.89 60.96H259.297V61.96ZM261.025 69.544L261.226 70.5235L262.114 70.3407L262.019 69.4393L261.025 69.544ZM254.017 70.504L253.94 69.5069L252.973 69.5814L253.018 70.5505L254.017 70.504ZM254.593 91.816L255.141 92.6525L255.593 92.3563V91.816H254.593ZM244.513 95.944L244.212 94.9904L244.513 95.944ZM230.497 97.248C222.045 97.248 215.387 94.4025 210.415 88.7552L208.914 90.0768C214.31 96.2055 221.541 99.248 230.497 99.248V97.248ZM210.415 88.7552C205.453 83.119 202.889 74.6922 202.889 63.304H200.889C200.889 74.9558 203.509 83.937 208.914 90.0768L210.415 88.7552ZM202.889 63.304C202.889 51.886 205.114 43.5066 209.398 37.9979L207.819 36.7701C203.144 42.7814 200.889 51.682 200.889 63.304H202.889ZM209.397 37.9991C213.688 32.4998 220.668 29.648 230.593 29.648V27.648C220.294 27.648 212.618 30.6202 207.82 36.7689L209.397 37.9991ZM230.593 29.648C234.79 29.648 238.79 30.2116 242.598 31.3351L243.164 29.4169C239.163 28.2364 234.971 27.648 230.593 27.648V29.648ZM242.602 31.3363C246.575 32.4898 249.15 33.4528 250.436 34.2129L251.453 32.4911C249.924 31.5872 247.122 30.5662 243.16 29.4157L242.602 31.3363ZM250.466 34.2299C251.849 34.9845 252.92 35.6604 253.695 36.2566L254.914 34.6714C254.026 33.9876 252.856 33.2555 251.424 32.4741L250.466 34.2299ZM253.305 35.464C253.305 39.4785 252.803 43.9539 251.789 48.8951L253.748 49.2969C254.783 44.2541 255.305 39.6415 255.305 35.464H253.305ZM252.35 48.188C250.804 48.9016 249.282 49.248 247.777 49.248V51.248C249.6 51.248 251.406 50.8264 253.188 50.004L252.35 48.188ZM247.777 49.248C246.201 49.248 244.864 49.1848 243.759 49.0621L243.538 51.0499C244.738 51.1832 246.153 51.248 247.777 51.248V49.248ZM244.629 49.8581L242.613 39.8741L240.653 40.2699L242.669 50.2539L244.629 49.8581ZM241.896 39.1072C239.001 38.3178 236.161 37.92 233.377 37.92V39.92C235.969 39.92 238.632 40.2902 241.37 41.0368L241.896 39.1072ZM233.377 37.92C229.477 37.92 224.678 38.7111 219.002 40.2592L219.528 42.1888C225.115 40.6649 229.724 39.92 233.377 39.92V37.92ZM218.37 40.7768C215.468 46.581 214.041 53.591 214.041 61.768H216.041C216.041 53.817 217.429 47.131 220.159 41.6712L218.37 40.7768ZM214.041 61.768C214.041 70.6651 215.341 77.5022 218.066 82.1462C220.841 86.8728 225.059 89.264 230.593 89.264V87.264C225.758 87.264 222.201 85.2392 219.791 81.1338C217.333 76.9458 216.041 70.5349 216.041 61.768H214.041ZM230.593 89.264C235.873 89.264 240.191 88.3862 243.467 86.5436L242.486 84.8004C239.618 86.4137 235.68 87.264 230.593 87.264V89.264ZM243.976 85.7104C244.104 82.372 244.233 77.2437 244.361 70.3305L242.361 70.2935C242.233 77.2043 242.105 82.316 241.977 85.6336L243.976 85.7104ZM243.656 69.3567L235.592 66.8607L235.001 68.7713L243.065 71.2673L243.656 69.3567ZM236.288 67.946L237.056 62.09L235.073 61.83L234.305 67.686L236.288 67.946ZM236.065 62.96H259.297V60.96H236.065V62.96ZM258.419 62.4389C259.083 63.6561 259.647 66.0058 260.03 69.6487L262.019 69.4393C261.635 65.7862 261.047 63.0799 260.175 61.4811L258.419 62.4389ZM260.823 68.5645C258.693 69.0031 256.399 69.3178 253.94 69.5069L254.093 71.5011C256.626 71.3062 259.004 70.9809 261.226 70.5235L260.823 68.5645ZM253.018 70.5505C253.401 78.7964 253.593 85.8841 253.593 91.816H255.593C255.593 85.8439 255.4 78.7236 255.016 70.4575L253.018 70.5505ZM254.045 90.9795C252.314 92.1133 249.072 93.4557 244.212 94.9904L244.814 96.8976C249.682 95.3603 253.159 93.9507 255.141 92.6525L254.045 90.9795ZM244.212 94.9904C239.432 96.4998 234.862 97.248 230.497 97.248V99.248C235.092 99.248 239.866 98.4602 244.814 96.8976L244.212 94.9904ZM337.06 34.6L336.401 35.3518L336.406 35.3562L337.06 34.6ZM327.461 67.048L327.131 66.1038L325.915 66.5278L326.627 67.6009L327.461 67.048ZM341.285 87.88L340.451 88.4329L340.712 88.8255L341.18 88.8746L341.285 87.88ZM349.54 88.744H350.54V87.8432L349.645 87.7494L349.54 88.744ZM347.332 97V98H347.932L348.214 97.4716L347.332 97ZM333.413 97L332.576 97.5482L332.872 98H333.413V97ZM314.596 68.296L315.433 67.7478L315.137 67.296H314.596V68.296ZM311.525 68.296V67.296H310.539L310.525 68.2813L311.525 68.296ZM311.237 87.88L310.237 87.8653L310.223 88.7749L311.128 88.874L311.237 87.88ZM318.245 88.648H319.245V87.7516L318.353 87.654L318.245 88.648ZM316.036 97V98H316.655L316.931 97.4472L316.036 97ZM292.324 97L291.338 97.1615L291.475 98H292.324V97ZM291.461 91.72L291.089 90.7915L290.344 91.0896L290.474 91.8815L291.461 91.72ZM299.525 88.936L299.728 89.915L300.538 89.7464L300.524 88.9197L299.525 88.936ZM298.66 38.056L299.66 38.0391L299.648 37.3091L298.949 37.0985L298.66 38.056ZM290.693 35.656L289.693 35.6126L289.66 36.3893L290.404 36.6135L290.693 35.656ZM291.556 29.8V28.8H290.745L290.578 29.594L291.556 29.8ZM322.372 40.072L322.601 39.0983L322.593 39.0966L322.372 40.072ZM311.716 39.4V38.4H310.731L310.717 39.3855L311.716 39.4ZM311.525 59.272H310.525V60.2926L311.545 60.2718L311.525 59.272ZM316.229 59.176L316.212 58.1761L316.208 58.1762L316.229 59.176ZM325.156 56.872L325.717 57.7003L325.722 57.6967L325.156 56.872ZM314.789 30.8C320.348 30.8 324.927 31.1977 328.546 31.9776C332.177 32.7601 334.758 33.9101 336.401 35.3518L337.72 33.8482C335.715 32.0899 332.76 30.8399 328.967 30.0224C325.162 29.2023 320.429 28.8 314.789 28.8V30.8ZM336.406 35.3562C339.442 37.9837 341.052 42.1066 341.052 47.944H343.052C343.052 41.7494 341.335 36.9763 337.715 33.8438L336.406 35.3562ZM341.052 47.944C341.052 52.4345 339.887 56.1392 337.61 59.121C335.326 62.1106 331.863 64.4539 327.131 66.1038L327.79 67.9922C332.786 66.2501 336.619 63.7134 339.199 60.335C341.786 56.9488 343.052 52.7975 343.052 47.944H341.052ZM326.627 67.6009L340.451 88.4329L342.118 87.3271L328.294 66.4951L326.627 67.6009ZM341.18 88.8746L349.436 89.7386L349.645 87.7494L341.389 86.8854L341.18 88.8746ZM348.54 88.744C348.54 91.3105 347.856 93.9018 346.451 96.5284L348.214 97.4716C349.753 94.5942 350.54 91.6815 350.54 88.744H348.54ZM347.332 96H333.413V98H347.332V96ZM334.249 96.4518L315.433 67.7478L313.76 68.8442L332.576 97.5482L334.249 96.4518ZM314.596 67.296H311.525V69.296H314.596V67.296ZM310.525 68.2813L310.237 87.8653L312.236 87.8947L312.524 68.3107L310.525 68.2813ZM311.128 88.874L318.136 89.6421L318.353 87.654L311.345 86.8859L311.128 88.874ZM317.245 88.648C317.245 91.0823 316.562 93.7132 315.142 96.5528L316.931 97.4472C318.455 94.3988 319.245 91.4617 319.245 88.648H317.245ZM316.036 96H292.324V98H316.036V96ZM293.311 96.8385L292.447 91.5585L290.474 91.8815L291.338 97.1615L293.311 96.8385ZM291.832 92.6485C295.678 91.1101 298.29 90.2147 299.728 89.915L299.321 87.957C297.687 88.2973 294.923 89.2579 291.089 90.7915L291.832 92.6485ZM300.524 88.9197C300.396 81.0473 300.236 71.543 300.044 60.4068L298.045 60.4412C298.237 71.577 298.397 81.0807 298.525 88.9523L300.524 88.9197ZM300.044 60.4068C299.852 49.2707 299.724 41.8149 299.66 38.0391L297.661 38.0729C297.725 41.8491 297.853 49.3053 298.045 60.4412L300.044 60.4068ZM298.949 37.0985L290.981 34.6985L290.404 36.6135L298.372 39.0135L298.949 37.0985ZM291.692 35.6994C291.752 34.3066 292.028 32.4155 292.535 30.006L290.578 29.594C290.061 32.0485 289.761 34.0614 289.693 35.6126L291.692 35.6994ZM291.556 30.8H314.789V28.8H291.556V30.8ZM322.593 39.0966C320.506 38.6252 317.766 38.4 314.405 38.4V40.4C317.699 40.4 320.271 40.6227 322.152 41.0474L322.593 39.0966ZM314.405 38.4H311.716V40.4H314.405V38.4ZM310.717 39.3855C310.589 48.2186 310.525 54.8485 310.525 59.272H312.525C312.525 54.8635 312.588 48.2454 312.716 39.4145L310.717 39.3855ZM311.545 60.2718L316.249 60.1758L316.208 58.1762L311.504 58.2722L311.545 60.2718ZM316.245 60.1759C320.135 60.1099 323.324 59.3188 325.717 57.7003L324.596 56.0437C322.637 57.3692 319.874 58.1141 316.212 58.1761L316.245 60.1759ZM325.722 57.6967C328.367 55.883 329.517 52.5183 329.517 48.04H327.517C327.517 52.2657 326.426 54.789 324.591 56.0473L325.722 57.6967ZM329.517 48.04C329.517 45.7092 328.967 43.7223 327.772 42.1734C326.575 40.6207 324.814 39.6172 322.601 39.0984L322.144 41.0456C324.027 41.4868 325.338 42.2913 326.189 43.3946C327.042 44.5017 327.517 46.0188 327.517 48.04H329.517ZM425.574 30.856L426.569 30.7565L426.501 30.0737L425.839 29.8918L425.574 30.856ZM425.67 31.816H426.67V31.7661L426.665 31.7165L425.67 31.816ZM424.422 38.536L425.032 39.3286L425.231 39.175L425.335 38.9451L424.422 38.536ZM420.486 40.072L420.276 39.0942L419.179 39.3293L419.539 40.3922L420.486 40.072ZM436.518 87.496L435.571 87.8163L435.771 88.4096L436.393 88.4881L436.518 87.496ZM445.638 88.648H446.638V87.7664L445.763 87.6559L445.638 88.648ZM443.43 97V98H444.048L444.324 97.4472L443.43 97ZM420.102 97L419.115 97.1615L419.252 98H420.102V97ZM419.238 91.72L418.882 90.7855L418.119 91.0761L418.251 91.8815L419.238 91.72ZM424.518 89.704L424.877 90.6373L425.785 90.2879L425.461 89.3703L424.518 89.704ZM420.678 78.856L421.621 78.5223L421.385 77.856H420.678V78.856ZM399.078 78.856V77.856H398.36L398.13 78.5366L399.078 78.856ZM396.006 87.784L395.112 87.3368L394.483 88.5938L395.877 88.7756L396.006 87.784ZM402.63 88.648H403.63V87.77L402.759 87.6564L402.63 88.648ZM401.862 93.352L402.821 93.6361L402.824 93.6267L401.862 93.352ZM400.422 97V98H400.971L401.266 97.5369L400.422 97ZM377.094 97L376.107 97.1615L376.244 98H377.094V97ZM376.23 91.72L375.841 90.7988L375.116 91.1049L375.243 91.8815L376.23 91.72ZM384.006 89.032L384.249 90.0021L384.785 89.8681L384.957 89.3427L384.006 89.032ZM400.134 39.688L401.085 39.9987L401.452 38.8737L400.282 38.699L400.134 39.688ZM390.438 37.192H389.438V37.8266L390.012 38.0968L390.438 37.192ZM391.302 32.296L390.986 31.3473L390.55 31.4925L390.376 31.9174L391.302 32.296ZM400.71 30.76L400.826 31.7533L400.837 31.7519L400.71 30.76ZM413.19 57.256L412.213 57.4706L412.229 57.5399L412.253 57.6063L413.19 57.256ZM410.406 44.584L411.383 44.3694L411.21 43.584H410.406V44.584ZM409.446 44.584V43.584H408.651L408.472 44.3581L409.446 44.584ZM406.374 57.832L407.31 58.1839L407.333 58.1222L407.348 58.0579L406.374 57.832ZM401.862 69.832L400.926 69.4801L400.418 70.832H401.862V69.832ZM417.894 69.832V70.832H419.336L418.831 69.4817L417.894 69.832ZM424.579 30.9555L424.675 31.9155L426.665 31.7165L426.569 30.7565L424.579 30.9555ZM424.67 31.816C424.67 34.3383 424.27 36.4312 423.509 38.1269L425.335 38.9451C426.238 36.9288 426.67 34.5417 426.67 31.816H424.67ZM423.812 37.7434C423.156 38.2485 422.016 38.7214 420.276 39.0942L420.696 41.0498C422.54 40.6546 424.024 40.1035 425.032 39.3286L423.812 37.7434ZM419.539 40.3922L435.571 87.8163L437.465 87.1758L421.433 39.7517L419.539 40.3922ZM436.393 88.4881L445.513 89.6401L445.763 87.6559L436.643 86.5039L436.393 88.4881ZM444.638 88.648C444.638 91.0823 443.955 93.7132 442.536 96.5528L444.324 97.4472C445.849 94.3988 446.638 91.4617 446.638 88.648H444.638ZM443.43 96H420.102V98H443.43V96ZM421.089 96.8385L420.225 91.5585L418.251 91.8815L419.115 97.1615L421.089 96.8385ZM419.594 92.6545C422.282 91.6306 424.043 90.958 424.877 90.6373L424.159 88.7707C423.329 89.09 421.57 89.7614 418.882 90.7855L419.594 92.6545ZM425.461 89.3703L421.621 78.5223L419.735 79.1897L423.575 90.0377L425.461 89.3703ZM420.678 77.856H399.078V79.856H420.678V77.856ZM398.13 78.5366C397.171 81.384 396.435 83.5497 395.924 85.0346C395.669 85.7775 395.47 86.3474 395.328 86.7463C395.171 87.1861 395.109 87.3422 395.112 87.3368L396.9 88.2312C396.967 88.0978 397.081 87.7859 397.212 87.4177C397.358 87.0086 397.559 86.4305 397.816 85.6854C398.329 84.1943 399.065 82.024 400.026 79.1754L398.13 78.5366ZM395.877 88.7756L402.501 89.6396L402.759 87.6564L396.135 86.7924L395.877 88.7756ZM401.63 88.648C401.63 89.871 401.396 91.3429 400.9 93.0773L402.824 93.6267C403.352 91.7771 403.63 90.113 403.63 88.648H401.63ZM400.903 93.0679C400.394 94.7852 399.946 95.8853 399.578 96.4631L401.266 97.5369C401.794 96.7067 402.306 95.3748 402.821 93.6361L400.903 93.0679ZM400.422 96H377.094V98H400.422V96ZM378.081 96.8385L377.217 91.5585L375.243 91.8815L376.107 97.1615L378.081 96.8385ZM376.619 92.6413C379.465 91.4394 382.007 90.5624 384.249 90.0021L383.763 88.0619C381.397 88.6535 378.755 89.5686 375.841 90.7988L376.619 92.6413ZM384.957 89.3427L401.085 39.9987L399.183 39.3773L383.055 88.7213L384.957 89.3427ZM400.282 38.699C396.026 38.0638 392.908 37.249 390.864 36.2872L390.012 38.0968C392.32 39.183 395.666 40.0322 399.986 40.677L400.282 38.699ZM391.438 37.192C391.438 35.4381 391.71 33.9392 392.228 32.6746L390.376 31.9174C389.742 33.4688 389.438 35.2339 389.438 37.192H391.438ZM391.618 33.2447C392.845 32.8359 395.869 32.3326 400.826 31.7532L400.594 29.7668C395.695 30.3393 392.447 30.8601 390.986 31.3473L391.618 33.2447ZM400.837 31.7519C405.792 31.1166 410.485 30.8 414.918 30.8V28.8C410.391 28.8 405.612 29.1234 400.583 29.7681L400.837 31.7519ZM414.918 30.8C419.426 30.8 422.875 31.1509 425.309 31.8202L425.839 29.8918C423.153 29.1531 419.498 28.8 414.918 28.8V30.8ZM414.167 57.0414L411.383 44.3694L409.429 44.7986L412.213 57.4706L414.167 57.0414ZM410.406 43.584H409.446V45.584H410.406V43.584ZM408.472 44.3581L405.4 57.6061L407.348 58.0579L410.42 44.8099L408.472 44.3581ZM405.438 57.4801L400.926 69.4801L402.798 70.1839L407.31 58.1839L405.438 57.4801ZM401.862 70.832H417.894V68.832H401.862V70.832ZM418.831 69.4817L414.127 56.9057L412.253 57.6063L416.957 70.1823L418.831 69.4817ZM506.792 71.464L506.226 72.288L506.234 72.2936L506.242 72.299L506.792 71.464ZM498.344 66.952L497.917 67.8561L497.927 67.8607L497.937 67.8651L498.344 66.952ZM490.376 63.016L489.891 63.8902L489.897 63.8939L489.904 63.8975L490.376 63.016ZM484.328 58.984L483.719 59.7771L483.728 59.784L484.328 58.984ZM483.56 33.736L484.209 34.497L484.21 34.4961L483.56 33.736ZM521.096 35.08H522.096V34.4954L521.587 34.2086L521.096 35.08ZM519.656 50.056L519.955 51.0105L520.534 50.8294L520.641 50.2318L519.656 50.056ZM510.536 51.016L509.565 51.2528L509.751 52.016H510.536V51.016ZM507.752 39.592L508.724 39.3552L508.588 38.7971L508.037 38.6335L507.752 39.592ZM494.696 52.264L494.066 53.0408L494.078 53.05L494.09 53.0589L494.696 52.264ZM503.432 57.448L503.006 58.3524L503.013 58.3557L503.02 58.359L503.432 57.448ZM515.336 63.592L514.794 64.4323L515.336 63.592ZM519.848 67.24L520.609 66.5905L520.602 66.583L520.596 66.5756L519.848 67.24ZM517.16 92.872L517.79 93.6485L517.16 92.872ZM487.4 96.328L487.113 97.2858L487.121 97.2883L487.129 97.2905L487.4 96.328ZM475.976 91.24L474.977 91.2072L474.958 91.7696L475.429 92.0773L475.976 91.24ZM477.512 75.4L477.316 74.4194L476.616 74.5594L476.521 75.2666L477.512 75.4ZM486.728 74.632L487.713 74.4596L487.568 73.632H486.728V74.632ZM488.744 86.152L487.759 86.3244L487.865 86.9268L488.449 87.1074L488.744 86.152ZM499.88 88.784C503.711 88.784 506.771 87.97 508.881 86.1686C511.022 84.3414 512.016 81.6472 512.016 78.28H510.016C510.016 81.2488 509.154 83.3066 507.583 84.6474C505.982 86.014 503.473 86.784 499.88 86.784V88.784ZM512.016 78.28C512.016 75.169 510.358 72.6166 507.343 70.629L506.242 72.299C508.858 74.0234 510.016 76.015 510.016 78.28H512.016ZM507.359 70.64C505.241 69.1837 502.364 67.6512 498.752 66.0389L497.937 67.8651C501.493 69.4528 504.248 70.9283 506.226 72.288L507.359 70.64ZM498.772 66.0479C495.256 64.3859 492.618 63.0824 490.848 62.1345L489.904 63.8975C491.719 64.8696 494.393 66.1901 497.917 67.8561L498.772 66.0479ZM490.862 62.1418C489.187 61.2114 487.211 59.8958 484.928 58.184L483.728 59.784C486.054 61.5282 488.109 62.9006 489.891 63.8902L490.862 62.1418ZM484.937 58.1909C480.739 54.9662 478.704 51.0228 478.704 46.312H476.704C476.704 51.7132 479.085 56.2178 483.719 59.7771L484.937 58.1909ZM478.704 46.312C478.704 41.5538 480.524 37.6382 484.209 34.497L482.912 32.975C478.788 36.4898 476.704 40.9582 476.704 46.312H478.704ZM484.21 34.4961C487.95 31.299 493.041 29.648 499.592 29.648V27.648C492.704 27.648 487.106 29.389 482.91 32.9759L484.21 34.4961ZM499.592 29.648C506.096 29.648 513.096 31.723 520.606 35.9514L521.587 34.2086C513.865 29.861 506.528 27.648 499.592 27.648V29.648ZM520.096 35.08C520.096 39.6194 519.623 44.5519 518.672 49.8802L520.641 50.2318C521.609 44.8081 522.096 39.7566 522.096 35.08H520.096ZM519.358 49.1015C517.457 49.6955 514.539 50.016 510.536 50.016V52.016C514.597 52.016 517.759 51.6965 519.955 51.0105L519.358 49.1015ZM511.508 50.7792L508.724 39.3552L506.781 39.8288L509.565 51.2528L511.508 50.7792ZM508.037 38.6335C505.565 37.8984 502.876 37.536 499.976 37.536V39.536C502.709 39.536 505.204 39.8776 507.467 40.5505L508.037 38.6335ZM499.976 37.536C497.031 37.536 494.603 38.1704 492.828 39.576L494.069 41.144C495.366 40.1176 497.29 39.536 499.976 39.536V37.536ZM492.828 39.576C490.995 41.0269 490.144 43.1756 490.144 45.832H492.144C492.144 43.6244 492.83 42.1251 494.069 41.144L492.828 39.576ZM490.144 45.832C490.144 48.5842 491.537 50.99 494.066 53.0408L495.326 51.4872C493.119 49.698 492.144 47.8158 492.144 45.832H490.144ZM494.09 53.0589C496.588 54.966 499.564 56.7288 503.006 58.3524L503.859 56.5436C500.517 54.9672 497.668 53.274 495.303 51.469L494.09 53.0589ZM503.02 58.359C506.413 59.8954 508.732 60.9761 509.993 61.6064L510.887 59.8176C509.588 59.1679 507.236 58.0726 503.845 56.537L503.02 58.359ZM509.993 61.6064C511.226 62.2231 512.824 63.1612 514.794 64.4323L515.878 62.7517C513.881 61.4628 512.214 60.4809 510.887 59.8176L509.993 61.6064ZM514.794 64.4323C516.738 65.6863 518.16 66.8458 519.101 67.9044L520.596 66.5756C519.489 65.3302 517.903 64.0577 515.878 62.7517L514.794 64.4323ZM519.088 67.8895C521.569 70.7941 522.784 73.9915 522.784 77.512H524.784C524.784 73.4805 523.376 69.8299 520.609 66.5905L519.088 67.8895ZM522.784 77.512C522.784 83.924 520.671 88.7348 516.53 92.0955L517.79 93.6485C522.482 89.8412 524.784 84.412 524.784 77.512H522.784ZM516.53 92.0955C512.333 95.5019 506.813 97.248 499.88 97.248V99.248C507.155 99.248 513.155 97.4101 517.79 93.6485L516.53 92.0955ZM499.88 97.248C496.215 97.248 492.148 96.6265 487.671 95.3655L487.129 97.2905C491.74 98.5895 495.993 99.248 499.88 99.248V97.248ZM487.688 95.3702C483.278 94.0472 479.562 92.3872 476.523 90.4027L475.429 92.0773C478.663 94.1888 482.563 95.9208 487.113 97.2858L487.688 95.3702ZM476.976 91.2728C477.102 87.4179 477.609 82.1761 478.503 75.5334L476.521 75.2666C475.623 81.9359 475.106 87.2541 474.977 91.2072L476.976 91.2728ZM477.708 76.3806C480.185 75.8853 483.188 75.632 486.728 75.632V73.632C483.101 73.632 479.96 73.8907 477.316 74.4194L477.708 76.3806ZM485.743 74.8044L487.759 86.3244L489.729 85.9796L487.713 74.4596L485.743 74.8044ZM488.449 87.1074C492.07 88.2267 495.882 88.784 499.88 88.784V86.784C496.07 86.784 492.458 86.2533 489.04 85.1966L488.449 87.1074Z" fill="black" mask="url(#path-2-outside-1_22_16)"/>
<defs>
<filter id="filter0_f_22_16" x="0" y="54" width="564" height="21" filterUnits="userSpaceOnUse" color-interpolation-filters="sRGB">
<feFlood flood-opacity="0" result="BackgroundImageFix"/>
<feBlend mode="normal" in="SourceGraphic" in2="BackgroundImageFix" result="shape"/>
<feGaussianBlur stdDeviation="2" result="effect1_foregroundBlur_22_16"/>
</filter>
<filter id="filter1_i_22_16" x="32.88" y="28.648" width="490.904" height="73.6" filterUnits="userSpaceOnUse" color-interpolation-filters="sRGB">
<feFlood flood-opacity="0" result="BackgroundImageFix"/>
<feBlend mode="normal" in="SourceGraphic" in2="BackgroundImageFix" result="shape"/>
<feColorMatrix in="SourceAlpha" type="matrix" values="0 0 0 0 0 0 0 0 0 0 0 0 0 0 0 0 0 0 127 0" result="hardAlpha"/>
<feOffset dy="4"/>
<feGaussianBlur stdDeviation="2"/>
<feComposite in2="hardAlpha" operator="arithmetic" k2="-1" k3="1"/>
<feColorMatrix type="matrix" values="0 0 0 0 0 0 0 0 0 0 0 0 0 0 0 0 0 0 0.25 0"/>
<feBlend mode="normal" in2="shape" result="effect1_innerShadow_22_16"/>
</filter>
</defs>
</svg>
