<svg width="537" height="99" viewBox="0 0 537 99" fill="none" xmlns="http://www.w3.org/2000/svg">
<g filter="url(#filter0_f_37_6)">
<ellipse cx="268.5" cy="64.5" rx="264.5" ry="6.5" fill="#DF1973"/>
</g>
<mask id="path-2-outside-1_37_6" maskUnits="userSpaceOnUse" x="70" y="27" width="391" height="73" fill="black">
<rect fill="white" x="70" y="27" width="391" height="73"/>
<path d="M95.224 87.784C102.648 87.784 106.36 84.616 106.36 78.28C106.36 75.592 104.952 73.32 102.136 71.464C100.088 70.056 97.272 68.552 93.688 66.952C90.168 65.288 87.512 63.976 85.72 63.016C83.992 62.056 81.976 60.712 79.672 58.984C75.256 55.592 73.048 51.368 73.048 46.312C73.048 41.256 75 37.064 78.904 33.736C82.872 30.344 88.216 28.648 94.936 28.648C101.656 28.648 108.824 30.792 116.44 35.08C116.44 39.688 115.96 44.68 115 50.056C112.952 50.696 109.912 51.016 105.88 51.016L103.096 39.592C100.728 38.888 98.136 38.536 95.32 38.536C92.504 38.536 90.328 39.144 88.792 40.36C87.256 41.576 86.488 43.4 86.488 45.832C86.488 48.2 87.672 50.344 90.04 52.264C92.472 54.12 95.384 55.848 98.776 57.448C102.168 58.984 104.504 60.072 105.784 60.712C107.064 61.352 108.696 62.312 110.68 63.592C112.664 64.872 114.168 66.088 115.192 67.24C117.816 70.312 119.128 73.736 119.128 77.512C119.128 84.168 116.92 89.288 112.504 92.872C108.088 96.456 102.328 98.248 95.224 98.248C91.448 98.248 87.288 97.608 82.744 96.328C78.264 94.984 74.456 93.288 71.32 91.24C71.448 87.336 71.96 82.056 72.856 75.4C75.416 74.888 78.488 74.632 82.072 74.632L84.088 86.152C87.608 87.24 91.32 87.784 95.224 87.784ZM178.649 87.976C189.273 87.976 194.585 79.816 194.585 63.496C194.585 47.176 189.273 39.016 178.649 39.016C174.041 39.016 170.009 39.72 166.553 41.128C163.609 47.272 162.137 54.408 162.137 62.536C162.137 70.6 163.353 76.872 165.785 81.352C168.217 85.768 172.505 87.976 178.649 87.976ZM178.649 28.648C189.337 28.648 196.857 31.464 201.209 37.096C205.561 42.664 207.737 51.208 207.737 62.728C207.737 69.96 206.809 76.136 204.953 81.256C203.097 86.376 199.961 90.472 195.545 93.544C191.129 96.616 185.497 98.152 178.649 98.152C168.217 98.152 160.633 95.24 155.897 89.416C151.225 83.592 148.889 75.112 148.889 63.976C148.889 40.424 158.809 28.648 178.649 28.648ZM262.767 88.168C272.687 88.168 277.647 84.616 277.647 77.512C277.647 72.328 276.431 69.064 273.999 67.72C271.631 66.312 266.255 65.608 257.871 65.608L257.487 87.976C259.663 88.104 261.423 88.168 262.767 88.168ZM262.191 57.736C267.119 57.608 270.607 56.968 272.655 55.816C274.703 54.664 275.727 52.264 275.727 48.616C275.727 44.904 274.543 42.44 272.175 41.224C269.807 40.008 266.223 39.4 261.423 39.4H257.967C257.839 47.464 257.775 53.544 257.775 57.64L262.191 57.736ZM262.286 97.096H238.575L237.711 91.816C241.039 90.472 243.727 89.544 245.775 89.032C245.775 88.84 245.487 71.912 244.911 38.248C243.887 37.992 241.231 37.16 236.943 35.752L237.711 29.896H264.303C271.919 29.896 277.839 31.368 282.062 34.312C286.287 37.256 288.399 41.512 288.399 47.08C288.399 49.768 287.663 52.68 286.191 55.816C284.783 58.952 283.151 60.808 281.295 61.384C284.111 62.92 286.319 65.064 287.919 67.816C289.519 70.568 290.319 73.736 290.319 77.32C290.319 83.208 287.919 87.976 283.119 91.624C278.319 95.272 271.375 97.096 262.286 97.096ZM346.445 29.8C357.645 29.8 365.069 31.4 368.717 34.6C372.045 37.48 373.709 41.928 373.709 47.944C373.709 57.288 368.845 63.656 359.117 67.048L372.941 87.88L381.197 88.744C381.197 91.496 380.461 94.248 378.989 97H365.069L346.253 68.296H343.181L342.893 87.88L349.901 88.648C349.901 91.272 349.165 94.056 347.693 97H323.981L323.117 91.72C326.957 90.184 329.645 89.256 331.181 88.936C331.053 81.064 330.893 71.56 330.701 60.424C330.509 49.288 330.381 41.832 330.317 38.056L322.349 35.656C322.413 34.184 322.701 32.232 323.213 29.8H346.445ZM354.029 40.072C352.045 39.624 349.389 39.4 346.061 39.4H343.373C343.245 48.232 343.181 54.856 343.181 59.272L347.885 59.176C351.661 59.112 354.637 58.344 356.813 56.872C359.053 55.336 360.173 52.392 360.173 48.04C360.173 43.688 358.125 41.032 354.029 40.072ZM431.31 39.4C431.31 46.696 431.246 52.968 431.118 58.216H440.91L441.87 51.592C445.134 51.592 448.302 52.392 451.374 53.992V73.192L445.038 73.48C443.502 71.176 442.606 69.16 442.35 67.432H431.022C430.894 76.392 430.83 83.144 430.83 87.688H447.246L449.358 79.336C453.326 79.336 456.334 79.528 458.382 79.912C459.342 83.56 459.822 86.888 459.822 89.896C459.822 92.84 459.726 95.208 459.534 97H411.918L411.054 91.72C415.214 90.12 417.902 89.192 419.118 88.936C419.054 85.16 418.99 79.848 418.926 73C418.67 57.64 418.446 46.024 418.254 38.152L410.286 35.656L411.054 29.8H458.19C458.382 31.528 458.478 33.704 458.478 36.328C458.478 38.888 457.998 42.472 457.038 47.08C455.054 47.72 452.046 48.04 448.014 48.04L445.806 39.4H431.31Z"/>
</mask>
<g filter="url(#filter1_i_37_6)">
<path d="M95.224 87.784C102.648 87.784 106.36 84.616 106.36 78.28C106.36 75.592 104.952 73.32 102.136 71.464C100.088 70.056 97.272 68.552 93.688 66.952C90.168 65.288 87.512 63.976 85.72 63.016C83.992 62.056 81.976 60.712 79.672 58.984C75.256 55.592 73.048 51.368 73.048 46.312C73.048 41.256 75 37.064 78.904 33.736C82.872 30.344 88.216 28.648 94.936 28.648C101.656 28.648 108.824 30.792 116.44 35.08C116.44 39.688 115.96 44.68 115 50.056C112.952 50.696 109.912 51.016 105.88 51.016L103.096 39.592C100.728 38.888 98.136 38.536 95.32 38.536C92.504 38.536 90.328 39.144 88.792 40.36C87.256 41.576 86.488 43.4 86.488 45.832C86.488 48.2 87.672 50.344 90.04 52.264C92.472 54.12 95.384 55.848 98.776 57.448C102.168 58.984 104.504 60.072 105.784 60.712C107.064 61.352 108.696 62.312 110.68 63.592C112.664 64.872 114.168 66.088 115.192 67.24C117.816 70.312 119.128 73.736 119.128 77.512C119.128 84.168 116.92 89.288 112.504 92.872C108.088 96.456 102.328 98.248 95.224 98.248C91.448 98.248 87.288 97.608 82.744 96.328C78.264 94.984 74.456 93.288 71.32 91.24C71.448 87.336 71.96 82.056 72.856 75.4C75.416 74.888 78.488 74.632 82.072 74.632L84.088 86.152C87.608 87.24 91.32 87.784 95.224 87.784ZM178.649 87.976C189.273 87.976 194.585 79.816 194.585 63.496C194.585 47.176 189.273 39.016 178.649 39.016C174.041 39.016 170.009 39.72 166.553 41.128C163.609 47.272 162.137 54.408 162.137 62.536C162.137 70.6 163.353 76.872 165.785 81.352C168.217 85.768 172.505 87.976 178.649 87.976ZM178.649 28.648C189.337 28.648 196.857 31.464 201.209 37.096C205.561 42.664 207.737 51.208 207.737 62.728C207.737 69.96 206.809 76.136 204.953 81.256C203.097 86.376 199.961 90.472 195.545 93.544C191.129 96.616 185.497 98.152 178.649 98.152C168.217 98.152 160.633 95.24 155.897 89.416C151.225 83.592 148.889 75.112 148.889 63.976C148.889 40.424 158.809 28.648 178.649 28.648ZM262.767 88.168C272.687 88.168 277.647 84.616 277.647 77.512C277.647 72.328 276.431 69.064 273.999 67.72C271.631 66.312 266.255 65.608 257.871 65.608L257.487 87.976C259.663 88.104 261.423 88.168 262.767 88.168ZM262.191 57.736C267.119 57.608 270.607 56.968 272.655 55.816C274.703 54.664 275.727 52.264 275.727 48.616C275.727 44.904 274.543 42.44 272.175 41.224C269.807 40.008 266.223 39.4 261.423 39.4H257.967C257.839 47.464 257.775 53.544 257.775 57.64L262.191 57.736ZM262.286 97.096H238.575L237.711 91.816C241.039 90.472 243.727 89.544 245.775 89.032C245.775 88.84 245.487 71.912 244.911 38.248C243.887 37.992 241.231 37.16 236.943 35.752L237.711 29.896H264.303C271.919 29.896 277.839 31.368 282.062 34.312C286.287 37.256 288.399 41.512 288.399 47.08C288.399 49.768 287.663 52.68 286.191 55.816C284.783 58.952 283.151 60.808 281.295 61.384C284.111 62.92 286.319 65.064 287.919 67.816C289.519 70.568 290.319 73.736 290.319 77.32C290.319 83.208 287.919 87.976 283.119 91.624C278.319 95.272 271.375 97.096 262.286 97.096ZM346.445 29.8C357.645 29.8 365.069 31.4 368.717 34.6C372.045 37.48 373.709 41.928 373.709 47.944C373.709 57.288 368.845 63.656 359.117 67.048L372.941 87.88L381.197 88.744C381.197 91.496 380.461 94.248 378.989 97H365.069L346.253 68.296H343.181L342.893 87.88L349.901 88.648C349.901 91.272 349.165 94.056 347.693 97H323.981L323.117 91.72C326.957 90.184 329.645 89.256 331.181 88.936C331.053 81.064 330.893 71.56 330.701 60.424C330.509 49.288 330.381 41.832 330.317 38.056L322.349 35.656C322.413 34.184 322.701 32.232 323.213 29.8H346.445ZM354.029 40.072C352.045 39.624 349.389 39.4 346.061 39.4H343.373C343.245 48.232 343.181 54.856 343.181 59.272L347.885 59.176C351.661 59.112 354.637 58.344 356.813 56.872C359.053 55.336 360.173 52.392 360.173 48.04C360.173 43.688 358.125 41.032 354.029 40.072ZM431.31 39.4C431.31 46.696 431.246 52.968 431.118 58.216H440.91L441.87 51.592C445.134 51.592 448.302 52.392 451.374 53.992V73.192L445.038 73.48C443.502 71.176 442.606 69.16 442.35 67.432H431.022C430.894 76.392 430.83 83.144 430.83 87.688H447.246L449.358 79.336C453.326 79.336 456.334 79.528 458.382 79.912C459.342 83.56 459.822 86.888 459.822 89.896C459.822 92.84 459.726 95.208 459.534 97H411.918L411.054 91.72C415.214 90.12 417.902 89.192 419.118 88.936C419.054 85.16 418.99 79.848 418.926 73C418.67 57.64 418.446 46.024 418.254 38.152L410.286 35.656L411.054 29.8H458.19C458.382 31.528 458.478 33.704 458.478 36.328C458.478 38.888 457.998 42.472 457.038 47.08C455.054 47.72 452.046 48.04 448.014 48.04L445.806 39.4H431.31Z" fill="white"/>
</g>
<path d="M102.136 71.464L101.569 72.288L101.578 72.2936L101.586 72.299L102.136 71.464ZM93.688 66.952L93.2606 67.8561L93.2704 67.8607L93.2804 67.8651L93.688 66.952ZM85.72 63.016L85.2344 63.8902L85.241 63.8939L85.2478 63.8975L85.72 63.016ZM79.672 58.984L79.0628 59.7771L79.072 59.784L79.672 58.984ZM78.904 33.736L79.5527 34.497L79.5538 34.4961L78.904 33.736ZM116.44 35.08H117.44V34.4954L116.931 34.2086L116.44 35.08ZM115 50.056L115.298 51.0105L115.878 50.8294L115.984 50.2318L115 50.056ZM105.88 51.016L104.908 51.2528L105.094 52.016H105.88V51.016ZM103.096 39.592L104.068 39.3552L103.932 38.7971L103.381 38.6335L103.096 39.592ZM90.04 52.264L89.4102 53.0408L89.4216 53.05L89.4333 53.0589L90.04 52.264ZM98.776 57.448L98.3494 58.3524L98.3564 58.3557L98.3635 58.359L98.776 57.448ZM110.68 63.592L110.138 64.4323L110.138 64.4323L110.68 63.592ZM115.192 67.24L115.952 66.5905L115.946 66.583L115.939 66.5756L115.192 67.24ZM112.504 92.872L113.134 93.6485L113.134 93.6485L112.504 92.872ZM82.744 96.328L82.4567 97.2858L82.4647 97.2883L82.4729 97.2905L82.744 96.328ZM71.32 91.24L70.3205 91.2072L70.3021 91.7696L70.7732 92.0773L71.32 91.24ZM72.856 75.4L72.6599 74.4194L71.9601 74.5594L71.8649 75.2666L72.856 75.4ZM82.072 74.632L83.057 74.4596L82.9122 73.632H82.072V74.632ZM84.088 86.152L83.103 86.3244L83.2084 86.9268L83.7927 87.1074L84.088 86.152ZM95.224 88.784C99.0548 88.784 102.114 87.97 104.225 86.1686C106.366 84.3414 107.36 81.6472 107.36 78.28H105.36C105.36 81.2488 104.498 83.3066 102.927 84.6474C101.326 86.014 98.8172 86.784 95.224 86.784V88.784ZM107.36 78.28C107.36 75.169 105.702 72.6166 102.686 70.629L101.586 72.299C104.202 74.0234 105.36 76.015 105.36 78.28H107.36ZM102.703 70.64C100.584 69.1837 97.7073 67.6512 94.0957 66.0389L93.2804 67.8651C96.8367 69.4528 99.5917 70.9283 101.569 72.288L102.703 70.64ZM94.1154 66.0479C90.5995 64.3859 87.9617 63.0824 86.1922 62.1345L85.2478 63.8975C87.0623 64.8696 89.7365 66.1901 93.2606 67.8561L94.1154 66.0479ZM86.2056 62.1418C84.5309 61.2114 82.5545 59.8958 80.272 58.184L79.072 59.784C81.3975 61.5282 83.4531 62.9006 85.2344 63.8902L86.2056 62.1418ZM80.2812 58.1909C76.0829 54.9662 74.048 51.0228 74.048 46.312H72.048C72.048 51.7132 74.4291 56.2178 79.0628 59.777L80.2812 58.1909ZM74.048 46.312C74.048 41.5538 75.8679 37.6382 79.5527 34.497L78.2553 32.975C74.1321 36.4898 72.048 40.9582 72.048 46.312H74.048ZM79.5538 34.4961C83.2938 31.299 88.3843 29.648 94.936 29.648V27.648C88.0477 27.648 82.4502 29.389 78.2542 32.9759L79.5538 34.4961ZM94.936 29.648C101.44 29.648 108.439 31.723 115.949 35.9514L116.931 34.2086C109.209 29.861 101.872 27.648 94.936 27.648V29.648ZM115.44 35.08C115.44 39.6194 114.967 44.5519 114.016 49.8802L115.984 50.2318C116.953 44.8081 117.44 39.7566 117.44 35.08H115.44ZM114.702 49.1015C112.801 49.6955 109.883 50.016 105.88 50.016V52.016C109.941 52.016 113.103 51.6965 115.298 51.0105L114.702 49.1015ZM106.852 50.7792L104.068 39.3552L102.124 39.8288L104.908 51.2528L106.852 50.7792ZM103.381 38.6335C100.909 37.8984 98.2193 37.536 95.32 37.536V39.536C98.0527 39.536 100.547 39.8776 102.811 40.5505L103.381 38.6335ZM95.32 37.536C92.3745 37.536 89.9468 38.1704 88.1713 39.576L89.4127 41.144C90.7092 40.1176 92.6335 39.536 95.32 39.536V37.536ZM88.1713 39.576C86.3385 41.0269 85.488 43.1756 85.488 45.832H87.488C87.488 43.6244 88.1735 42.1251 89.4127 41.144L88.1713 39.576ZM85.488 45.832C85.488 48.5842 86.8809 50.99 89.4102 53.0408L90.6698 51.4872C88.4631 49.698 87.488 47.8158 87.488 45.832H85.488ZM89.4333 53.0589C91.9322 54.966 94.9074 56.7288 98.3494 58.3524L99.2026 56.5436C95.8606 54.9672 93.0118 53.274 90.6467 51.469L89.4333 53.0589ZM98.3635 58.359C101.757 59.8954 104.076 60.9761 105.337 61.6064L106.231 59.8176C104.932 59.1679 102.579 58.0726 99.1885 56.537L98.3635 58.359ZM105.337 61.6064C106.57 62.2231 108.168 63.1612 110.138 64.4323L111.222 62.7517C109.224 61.4628 107.558 60.4809 106.231 59.8176L105.337 61.6064ZM110.138 64.4323C112.082 65.6863 113.504 66.8458 114.445 67.9044L115.939 66.5756C114.832 65.3302 113.246 64.0577 111.222 62.7517L110.138 64.4323ZM114.432 67.8895C116.913 70.7941 118.128 73.9915 118.128 77.512H120.128C120.128 73.4805 118.719 69.8299 115.952 66.5905L114.432 67.8895ZM118.128 77.512C118.128 83.924 116.015 88.7348 111.874 92.0955L113.134 93.6485C117.825 89.8412 120.128 84.412 120.128 77.512H118.128ZM111.874 92.0955C107.677 95.5019 102.157 97.248 95.224 97.248V99.248C102.499 99.248 108.499 97.4101 113.134 93.6485L111.874 92.0955ZM95.224 97.248C91.5592 97.248 87.4919 96.6265 83.0151 95.3655L82.4729 97.2905C87.0841 98.5895 91.3368 99.248 95.224 99.248V97.248ZM83.0313 95.3702C78.6214 94.0472 74.9055 92.3872 71.8668 90.4027L70.7732 92.0773C74.0065 94.1888 77.9066 95.9208 82.4567 97.2858L83.0313 95.3702ZM72.3195 91.2728C72.4459 87.4179 72.9529 82.1761 73.8471 75.5334L71.8649 75.2666C70.9671 81.9359 70.4501 87.2541 70.3205 91.2072L72.3195 91.2728ZM73.0521 76.3806C75.5287 75.8853 78.5314 75.632 82.072 75.632V73.632C78.4446 73.632 75.3033 73.8907 72.6599 74.4194L73.0521 76.3806ZM81.087 74.8044L83.103 86.3244L85.073 85.9796L83.057 74.4596L81.087 74.8044ZM83.7927 87.1074C87.4139 88.2267 91.2259 88.784 95.224 88.784V86.784C91.4141 86.784 87.8021 86.2533 84.3833 85.1966L83.7927 87.1074ZM166.553 41.128L166.175 40.2019L165.818 40.3476L165.651 40.6959L166.553 41.128ZM165.785 81.352L164.906 81.8291L164.909 81.8344L165.785 81.352ZM201.209 37.096L200.417 37.7075L200.421 37.7118L201.209 37.096ZM204.953 81.256L205.893 81.5968L205.893 81.5968L204.953 81.256ZM195.545 93.544L196.116 94.3649L196.116 94.3649L195.545 93.544ZM155.897 89.416L155.117 90.0418L155.121 90.0469L155.897 89.416ZM178.649 88.976C184.262 88.976 188.579 86.7944 191.439 82.4016C194.25 78.0831 195.585 71.7326 195.585 63.496H193.585C193.585 71.5794 192.263 77.4689 189.763 81.3104C187.31 85.0776 183.659 86.976 178.649 86.976V88.976ZM195.585 63.496C195.585 55.2594 194.25 48.9089 191.439 44.5904C188.579 40.1976 184.262 38.016 178.649 38.016V40.016C183.659 40.016 187.31 41.9144 189.763 45.6816C192.263 49.5231 193.585 55.4126 193.585 63.496H195.585ZM178.649 38.016C173.941 38.016 169.776 38.7351 166.175 40.2019L166.93 42.0541C170.242 40.7049 174.141 40.016 178.649 40.016V38.016ZM165.651 40.6959C162.631 46.9983 161.137 54.287 161.137 62.536H163.137C163.137 54.529 164.586 47.5457 167.455 41.5601L165.651 40.6959ZM161.137 62.536C161.137 70.6792 162.361 77.1413 164.906 81.8291L166.664 80.8749C164.344 76.6027 163.137 70.5208 163.137 62.536H161.137ZM164.909 81.8344C167.558 86.6447 172.235 88.976 178.649 88.976V86.976C172.775 86.976 168.876 84.8913 166.661 80.8696L164.909 81.8344ZM178.649 29.648C189.187 29.648 196.335 32.4242 200.417 37.7074L202 36.4846C197.379 30.5038 189.486 27.648 178.649 27.648V29.648ZM200.421 37.7118C204.573 43.0235 206.737 51.3013 206.737 62.728H208.737C208.737 51.1147 206.549 42.3045 201.997 36.4802L200.421 37.7118ZM206.737 62.728C206.737 69.8796 205.818 75.9337 204.013 80.9152L205.893 81.5968C207.799 76.3383 208.737 70.0404 208.737 62.728H206.737ZM204.013 80.9152C202.226 85.8434 199.218 89.7707 194.974 92.7231L196.116 94.3649C200.704 91.1733 203.967 86.9086 205.893 81.5968L204.013 80.9152ZM194.974 92.7231C190.766 95.6503 185.348 97.152 178.649 97.152V99.152C185.645 99.152 191.492 97.5817 196.116 94.3649L194.974 92.7231ZM178.649 97.152C168.394 97.152 161.153 94.2942 156.673 88.7851L155.121 90.0469C160.113 96.1858 168.039 99.152 178.649 99.152V97.152ZM156.677 88.7903C152.202 83.2125 149.889 74.9919 149.889 63.976H147.889C147.889 75.2321 150.247 83.9715 155.117 90.0417L156.677 88.7903ZM149.889 63.976C149.889 52.3163 152.348 43.7579 157.094 38.1243C161.812 32.5235 168.932 29.648 178.649 29.648V27.648C168.525 27.648 160.766 30.6605 155.564 36.8357C150.39 42.9781 147.889 52.0837 147.889 63.976H149.889ZM273.999 67.72L273.487 68.5795L273.501 68.5876L273.515 68.5952L273.999 67.72ZM257.871 65.608V64.608H256.888L256.871 65.5908L257.871 65.608ZM257.487 87.976L256.487 87.9588L256.47 88.9179L257.428 88.9743L257.487 87.976ZM262.191 57.736L262.169 58.7358L262.193 58.7363L262.216 58.7357L262.191 57.736ZM257.967 39.4V38.4H256.982L256.967 39.3841L257.967 39.4ZM257.775 57.64H256.775V58.6185L257.753 58.6398L257.775 57.64ZM238.575 97.096L237.588 97.2575L237.725 98.096H238.575V97.096ZM237.711 91.816L237.336 90.8888L236.594 91.1882L236.724 91.9775L237.711 91.816ZM245.775 89.032L246.017 90.0021L246.775 89.8128V89.032H245.775ZM244.911 38.248L245.91 38.2309L245.897 37.4639L245.153 37.2779L244.911 38.248ZM236.943 35.752L235.951 35.622L235.843 36.4436L236.631 36.7021L236.943 35.752ZM237.711 29.896V28.896H236.833L236.719 29.766L237.711 29.896ZM282.062 34.312L281.491 35.1324L281.491 35.1324L282.062 34.312ZM286.191 55.816L285.285 55.3911L285.282 55.3987L285.278 55.4064L286.191 55.816ZM281.295 61.384L280.998 60.4289L278.74 61.1297L280.816 62.2619L281.295 61.384ZM287.919 67.816L288.783 67.3134L288.783 67.3134L287.919 67.816ZM283.119 91.624L283.724 92.4202L283.724 92.4202L283.119 91.624ZM262.767 89.168C267.816 89.168 271.782 88.2694 274.509 86.317C277.297 84.3205 278.647 81.3258 278.647 77.512H276.647C276.647 80.8022 275.516 83.1355 273.344 84.691C271.111 86.2906 267.637 87.168 262.767 87.168V89.168ZM278.647 77.512C278.647 72.2763 277.435 68.4765 274.482 66.8448L273.515 68.5952C275.426 69.6515 276.647 72.3797 276.647 77.512H278.647ZM274.51 66.8605C273.143 66.048 271.038 65.5003 268.32 65.1445C265.573 64.7847 262.085 64.608 257.871 64.608V66.608C262.04 66.608 265.432 66.7833 268.061 67.1275C270.719 67.4757 272.486 67.984 273.487 68.5795L274.51 66.8605ZM256.871 65.5908L256.487 87.9588L258.486 87.9932L258.87 65.6252L256.871 65.5908ZM257.428 88.9743C259.613 89.1028 261.395 89.168 262.767 89.168V87.168C261.45 87.168 259.712 87.1052 257.545 86.9777L257.428 88.9743ZM262.216 58.7357C267.166 58.6071 270.868 57.968 273.145 56.6876L272.164 54.9444C270.345 55.968 267.071 56.6089 262.165 56.7363L262.216 58.7357ZM273.145 56.6876C275.658 55.2736 276.727 52.4104 276.727 48.616H274.727C274.727 52.1176 273.747 54.0544 272.164 54.9444L273.145 56.6876ZM276.727 48.616C276.727 44.6983 275.46 41.7872 272.631 40.3344L271.718 42.1136C273.625 43.0927 274.727 45.1097 274.727 48.616H276.727ZM272.631 40.3344C270.05 39.0087 266.273 38.4 261.423 38.4V40.4C266.172 40.4 269.563 41.0072 271.718 42.1136L272.631 40.3344ZM261.423 38.4H257.967V40.4H261.423V38.4ZM256.967 39.3841C256.839 47.4494 256.775 53.5358 256.775 57.64H258.775C258.775 53.5522 258.838 47.4786 258.966 39.4159L256.967 39.3841ZM257.753 58.6398L262.169 58.7358L262.212 56.7362L257.796 56.6402L257.753 58.6398ZM262.286 96.096H238.575V98.096H262.286V96.096ZM239.561 96.9345L238.697 91.6545L236.724 91.9775L237.588 97.2575L239.561 96.9345ZM238.085 92.7432C241.395 91.4064 244.034 90.4978 246.017 90.0021L245.532 88.0619C243.419 88.5902 240.682 89.5376 237.336 90.8888L238.085 92.7432ZM246.775 89.032C246.775 88.8286 246.486 71.8837 245.91 38.2309L243.911 38.2651C244.199 55.0971 244.415 67.7451 244.559 76.209C244.631 80.441 244.685 83.6269 244.721 85.7668C244.739 86.8368 244.752 87.6451 244.761 88.192C244.766 88.4654 244.769 88.6732 244.771 88.8156C244.772 88.8869 244.773 88.9414 244.774 88.9795C244.774 89.023 244.775 89.0353 244.775 89.032H246.775ZM245.153 37.2779C244.172 37.0327 241.557 36.2146 237.254 34.8019L236.631 36.7021C240.904 38.1054 243.601 38.9513 244.668 39.2181L245.153 37.2779ZM237.934 35.882L238.702 30.026L236.719 29.766L235.951 35.622L237.934 35.882ZM237.711 30.896H264.303V28.896H237.711V30.896ZM264.303 30.896C271.807 30.896 277.497 32.3491 281.491 35.1324L282.634 33.4916C278.18 30.3869 272.03 28.896 264.303 28.896V30.896ZM281.491 35.1324C285.422 37.8722 287.399 41.8077 287.399 47.08H289.399C289.399 41.2163 287.151 36.6398 282.634 33.4916L281.491 35.1324ZM287.399 47.08C287.399 49.5851 286.712 52.3511 285.285 55.3911L287.096 56.2409C288.613 53.0089 289.399 49.9509 289.399 47.08H287.399ZM285.278 55.4064C283.903 58.4695 282.43 59.9844 280.998 60.4289L281.591 62.3391C283.871 61.6316 285.662 59.4345 287.103 56.2256L285.278 55.4064ZM280.816 62.2619C283.473 63.7111 285.547 65.7259 287.054 68.3186L288.783 67.3134C287.09 64.4021 284.748 62.1289 281.773 60.5061L280.816 62.2619ZM287.054 68.3186C288.555 70.8995 289.319 73.8899 289.319 77.32H291.319C291.319 73.5821 290.483 70.2365 288.783 67.3134L287.054 68.3186ZM289.319 77.32C289.319 82.8868 287.072 87.3636 282.513 90.8278L283.724 92.4202C288.765 88.5884 291.319 83.5292 291.319 77.32H289.319ZM282.513 90.8278C277.956 94.2915 271.261 96.096 262.286 96.096V98.096C271.488 98.096 278.681 96.2525 283.724 92.4202L282.513 90.8278ZM368.717 34.6L368.057 35.3518L368.062 35.3562L368.717 34.6ZM359.117 67.048L358.788 66.1038L357.571 66.5278L358.284 67.6009L359.117 67.048ZM372.941 87.88L372.108 88.4329L372.368 88.8255L372.837 88.8746L372.941 87.88ZM381.197 88.744H382.197V87.8432L381.301 87.7494L381.197 88.744ZM378.989 97V98H379.588L379.871 97.4717L378.989 97ZM365.069 97L364.232 97.5482L364.529 98H365.069V97ZM346.253 68.296L347.089 67.7478L346.793 67.296H346.253V68.296ZM343.181 68.296V67.296H342.195L342.181 68.2813L343.181 68.296ZM342.893 87.88L341.893 87.8653L341.879 88.7749L342.784 88.874L342.893 87.88ZM349.901 88.648H350.901V87.7516L350.01 87.654L349.901 88.648ZM347.693 97V98H348.311L348.587 97.4472L347.693 97ZM323.981 97L322.994 97.1615L323.131 98H323.981V97ZM323.117 91.72L322.745 90.7915L322 91.0896L322.13 91.8815L323.117 91.72ZM331.181 88.936L331.385 89.915L332.194 89.7464L332.181 88.9197L331.181 88.936ZM330.317 38.056L331.317 38.0391L331.304 37.3091L330.605 37.0985L330.317 38.056ZM322.349 35.656L321.35 35.6126L321.316 36.3893L322.06 36.6135L322.349 35.656ZM323.213 29.8V28.8H322.401L322.234 29.594L323.213 29.8ZM354.029 40.072L354.257 39.0983L354.249 39.0966L354.029 40.072ZM343.373 39.4V38.4H342.387L342.373 39.3855L343.373 39.4ZM343.181 59.272H342.181V60.2926L343.201 60.2718L343.181 59.272ZM347.885 59.176L347.868 58.1761L347.864 58.1762L347.885 59.176ZM356.813 56.872L357.373 57.7003L357.378 57.6967L356.813 56.872ZM346.445 30.8C352.004 30.8 356.584 31.1977 360.202 31.9776C363.833 32.7601 366.414 33.9101 368.057 35.3518L369.376 33.8482C367.372 32.0899 364.416 30.8399 360.623 30.0224C356.818 29.2023 352.086 28.8 346.445 28.8V30.8ZM368.062 35.3562C371.099 37.9837 372.709 42.1066 372.709 47.944H374.709C374.709 41.7494 372.991 36.9763 369.371 33.8438L368.062 35.3562ZM372.709 47.944C372.709 52.4345 371.544 56.1392 369.266 59.121C366.983 62.1106 363.519 64.4539 358.788 66.1038L359.446 67.9922C364.442 66.2501 368.275 63.7134 370.855 60.335C373.442 56.9488 374.709 52.7975 374.709 47.944H372.709ZM358.284 67.6009L372.108 88.4329L373.774 87.3271L359.95 66.4951L358.284 67.6009ZM372.837 88.8746L381.093 89.7386L381.301 87.7494L373.045 86.8854L372.837 88.8746ZM380.197 88.744C380.197 91.3105 379.512 93.9018 378.107 96.5283L379.871 97.4717C381.41 94.5942 382.197 91.6815 382.197 88.744H380.197ZM378.989 96H365.069V98H378.989V96ZM365.905 96.4518L347.089 67.7478L345.416 68.8442L364.232 97.5482L365.905 96.4518ZM346.253 67.296H343.181V69.296H346.253V67.296ZM342.181 68.2813L341.893 87.8653L343.893 87.8947L344.181 68.3107L342.181 68.2813ZM342.784 88.874L349.792 89.642L350.01 87.654L343.002 86.886L342.784 88.874ZM348.901 88.648C348.901 91.0823 348.218 93.7132 346.798 96.5528L348.587 97.4472C350.111 94.3988 350.901 91.4617 350.901 88.648H348.901ZM347.693 96H323.981V98H347.693V96ZM324.968 96.8385L324.104 91.5585L322.13 91.8815L322.994 97.1615L324.968 96.8385ZM323.488 92.6485C327.334 91.1101 329.946 90.2147 331.385 89.915L330.977 87.957C329.344 88.2973 326.58 89.2579 322.745 90.7915L323.488 92.6485ZM332.181 88.9197C332.053 81.0473 331.893 71.543 331.701 60.4068L329.701 60.4412C329.893 71.577 330.053 81.0807 330.181 88.9523L332.181 88.9197ZM331.701 60.4068C331.509 49.2707 331.381 41.8149 331.317 38.0391L329.317 38.0729C329.381 41.8491 329.509 49.3053 329.701 60.4412L331.701 60.4068ZM330.605 37.0985L322.637 34.6985L322.06 36.6135L330.028 39.0135L330.605 37.0985ZM323.348 35.6994C323.408 34.3066 323.684 32.4155 324.191 30.006L322.234 29.594C321.717 32.0485 321.417 34.0614 321.35 35.6126L323.348 35.6994ZM323.213 30.8H346.445V28.8H323.213V30.8ZM354.249 39.0966C352.162 38.6252 349.422 38.4 346.061 38.4V40.4C349.355 40.4 351.928 40.6227 353.808 41.0474L354.249 39.0966ZM346.061 38.4H343.373V40.4H346.061V38.4ZM342.373 39.3855C342.245 48.2186 342.181 54.8485 342.181 59.272H344.181C344.181 54.8635 344.245 48.2454 344.373 39.4145L342.373 39.3855ZM343.201 60.2718L347.905 60.1758L347.864 58.1762L343.16 58.2722L343.201 60.2718ZM347.902 60.1759C351.791 60.1099 354.981 59.3188 357.373 57.7003L356.252 56.0437C354.293 57.3692 351.531 58.1141 347.868 58.1761L347.902 60.1759ZM357.378 57.6967C360.023 55.883 361.173 52.5183 361.173 48.04H359.173C359.173 52.2657 358.082 54.789 356.247 56.0473L357.378 57.6967ZM361.173 48.04C361.173 45.7092 360.623 43.7223 359.429 42.1734C358.231 40.6207 356.471 39.6172 354.257 39.0984L353.801 41.0456C355.683 41.4868 356.994 42.2913 357.845 43.3946C358.698 44.5017 359.173 46.0188 359.173 48.04H361.173ZM431.31 39.4V38.4H430.31V39.4H431.31ZM431.118 58.216L430.119 58.1916L430.094 59.216H431.118V58.216ZM440.91 58.216V59.216H441.776L441.9 58.3594L440.91 58.216ZM441.87 51.592V50.592H441.005L440.881 51.4486L441.87 51.592ZM451.374 53.992H452.374V53.3853L451.836 53.1051L451.374 53.992ZM451.374 73.192L451.42 74.191L452.374 74.1476V73.192H451.374ZM445.038 73.48L444.206 74.0347L444.519 74.5046L445.084 74.479L445.038 73.48ZM442.35 67.432L443.339 67.2854L443.213 66.432H442.35V67.432ZM431.022 67.432V66.432H430.036L430.022 67.4177L431.022 67.432ZM430.83 87.688H429.83V88.688H430.83V87.688ZM447.246 87.688V88.688H448.025L448.216 87.9332L447.246 87.688ZM449.358 79.336V78.336H448.58L448.389 79.0908L449.358 79.336ZM458.382 79.912L459.349 79.6575L459.188 79.0457L458.567 78.9291L458.382 79.912ZM459.534 97V98H460.433L460.529 97.1065L459.534 97ZM411.918 97L410.931 97.1615L411.069 98H411.918V97ZM411.054 91.72L410.695 90.7867L409.936 91.0787L410.067 91.8815L411.054 91.72ZM419.118 88.936L419.324 89.9145L420.132 89.7445L420.118 88.9191L419.118 88.936ZM418.926 73L419.926 72.9907L419.926 72.9833L418.926 73ZM418.254 38.152L419.254 38.1276L419.236 37.4118L418.553 37.1977L418.254 38.152ZM410.286 35.656L409.295 35.526L409.185 36.3591L409.987 36.6103L410.286 35.656ZM411.054 29.8V28.8H410.177L410.063 29.67L411.054 29.8ZM458.19 29.8L459.184 29.6896L459.085 28.8H458.19V29.8ZM457.038 47.08L457.345 48.0317L457.899 47.8532L458.017 47.284L457.038 47.08ZM448.014 48.04L447.045 48.2876L447.238 49.04H448.014V48.04ZM445.806 39.4L446.775 39.1524L446.583 38.4H445.806V39.4ZM430.31 39.4C430.31 46.6907 430.246 52.9542 430.119 58.1916L432.118 58.2404C432.246 52.9818 432.31 46.7013 432.31 39.4H430.31ZM431.118 59.216H440.91V57.216H431.118V59.216ZM441.9 58.3594L442.86 51.7354L440.881 51.4486L439.921 58.0726L441.9 58.3594ZM441.87 52.592C444.964 52.592 447.974 53.3485 450.912 54.8789L451.836 53.1051C448.631 51.4355 445.305 50.592 441.87 50.592V52.592ZM450.374 53.992V73.192H452.374V53.992H450.374ZM451.329 72.193L444.993 72.481L445.084 74.479L451.42 74.191L451.329 72.193ZM445.87 72.9253C444.373 70.68 443.565 68.8067 443.339 67.2854L441.361 67.5785C441.648 69.5133 442.631 71.672 444.206 74.0347L445.87 72.9253ZM442.35 66.432H431.022V68.432H442.35V66.432ZM430.022 67.4177C429.894 76.3789 429.83 83.1366 429.83 87.688H431.83C431.83 83.1514 431.894 76.4051 432.022 67.4463L430.022 67.4177ZM430.83 88.688H447.246V86.688H430.83V88.688ZM448.216 87.9332L450.328 79.5812L448.389 79.0908L446.277 87.4428L448.216 87.9332ZM449.358 80.336C453.309 80.336 456.243 80.5283 458.198 80.8949L458.567 78.9291C456.426 78.5277 453.343 78.336 449.358 78.336V80.336ZM457.415 80.1665C458.359 83.7515 458.822 86.9924 458.822 89.896H460.822C460.822 86.7836 460.326 83.3685 459.349 79.6575L457.415 80.1665ZM458.822 89.896C458.822 92.8236 458.727 95.1519 458.54 96.8935L460.529 97.1065C460.726 95.2641 460.822 92.8564 460.822 89.896H458.822ZM459.534 96H411.918V98H459.534V96ZM412.905 96.8385L412.041 91.5585L410.067 91.8815L410.931 97.1615L412.905 96.8385ZM411.413 92.6533C415.596 91.0447 418.203 90.1507 419.324 89.9145L418.912 87.9574C417.602 88.2333 414.833 89.1953 410.695 90.7867L411.413 92.6533ZM420.118 88.9191C420.054 85.1468 419.99 79.8378 419.926 72.9907L417.926 73.0093C417.99 79.8582 418.054 85.1732 418.118 88.9529L420.118 88.9191ZM419.926 72.9833C419.67 57.6227 419.446 46.0036 419.254 38.1276L417.255 38.1764C417.446 46.0444 417.67 57.6573 417.926 73.0167L419.926 72.9833ZM418.553 37.1977L410.585 34.7017L409.987 36.6103L417.955 39.1063L418.553 37.1977ZM411.278 35.786L412.046 29.93L410.063 29.67L409.295 35.526L411.278 35.786ZM411.054 30.8H458.19V28.8H411.054V30.8ZM457.196 29.9104C457.383 31.5884 457.478 33.7244 457.478 36.328H459.478C459.478 33.6836 459.382 31.4676 459.184 29.6896L457.196 29.9104ZM457.478 36.328C457.478 38.7847 457.015 42.2893 456.059 46.876L458.017 47.284C458.982 42.6547 459.478 38.9913 459.478 36.328H457.478ZM456.731 46.1283C454.9 46.7189 452.02 47.04 448.014 47.04V49.04C452.072 49.04 455.208 48.7211 457.345 48.0317L456.731 46.1283ZM448.983 47.7924L446.775 39.1524L444.837 39.6476L447.045 48.2876L448.983 47.7924ZM445.806 38.4H431.31V40.4H445.806V38.4Z" fill="black" mask="url(#path-2-outside-1_37_6)"/>
<defs>
<filter id="filter0_f_37_6" x="0" y="54" width="537" height="21" filterUnits="userSpaceOnUse" color-interpolation-filters="sRGB">
<feFlood flood-opacity="0" result="BackgroundImageFix"/>
<feBlend mode="normal" in="SourceGraphic" in2="BackgroundImageFix" result="shape"/>
<feGaussianBlur stdDeviation="2" result="effect1_foregroundBlur_37_6"/>
</filter>
<filter id="filter1_i_37_6" x="71.3198" y="28.648" width="388.502" height="73.6" filterUnits="userSpaceOnUse" color-interpolation-filters="sRGB">
<feFlood flood-opacity="0" result="BackgroundImageFix"/>
<feBlend mode="normal" in="SourceGraphic" in2="BackgroundImageFix" result="shape"/>
<feColorMatrix in="SourceAlpha" type="matrix" values="0 0 0 0 0 0 0 0 0 0 0 0 0 0 0 0 0 0 127 0" result="hardAlpha"/>
<feOffset dy="4"/>
<feGaussianBlur stdDeviation="2"/>
<feComposite in2="hardAlpha" operator="arithmetic" k2="-1" k3="1"/>
<feColorMatrix type="matrix" values="0 0 0 0 0 0 0 0 0 0 0 0 0 0 0 0 0 0 0.25 0"/>
<feBlend mode="normal" in2="shape" result="effect1_innerShadow_37_6"/>
</filter>
</defs>
</svg>
